<svg version="1.1" id="Layer_1" xmlns="http://www.w3.org/2000/svg" xmlns:xlink="http://www.w3.org/1999/xlink" x="0px" y="0px"
	 width="100%" viewBox="0 0 1069 1083" enable-background="new 0 0 1069 1083" xml:space="preserve">
<path fill="#FFFFFF" opacity="1.000000" stroke="none" 
	d="
M619.000000,1084.000000 
	C412.690521,1084.000000 206.881027,1084.000000 1.035775,1084.000000 
	C1.035775,723.065674 1.035775,362.131348 1.035775,1.098520 
	C357.226349,1.098520 713.452698,1.098520 1069.839600,1.098520 
	C1069.839600,361.999939 1069.839600,722.999939 1069.839600,1084.000000 
	C919.797607,1084.000000 769.648804,1084.000000 619.000000,1084.000000 
M61.243385,674.190369 
	C83.530502,750.479065 121.934319,817.549988 176.577652,875.250977 
	C224.051605,925.381531 279.709167,963.788452 343.412323,990.395142 
	C391.363678,1010.422791 441.288055,1022.305481 493.147491,1026.364380 
	C530.545837,1029.291382 567.740417,1027.954712 604.779968,1022.464233 
	C644.265076,1016.611328 682.537537,1006.086121 719.308777,990.534729 
	C812.234802,951.234253 886.559875,889.422241 941.816895,804.990906 
	C983.987305,740.555603 1009.065430,669.814758 1017.830261,593.346985 
	C1023.155945,546.884033 1021.723694,500.549866 1013.820984,454.444305 
	C1007.332886,416.591919 996.530090,379.994232 981.345154,344.719910 
	C960.857361,297.127197 933.538391,253.833344 899.333313,214.887085 
	C854.669739,164.032639 801.808777,123.991295 740.674377,94.998802 
	C686.614929,69.361572 629.710938,54.332272 570.004395,49.673592 
	C505.093109,44.608799 441.646729,51.840496 379.842407,72.145889 
	C287.739136,102.405792 211.034714,155.397659 150.300766,230.902344 
	C85.956757,310.895142 50.449753,402.497498 43.221058,504.894104 
	C39.185043,562.065430 45.266354,618.275513 61.243385,674.190369 
z"/>
<path fill="#000000" opacity="1.000000" stroke="none" 
	d="
M61.150650,673.796692 
	C45.266354,618.275513 39.185043,562.065430 43.221058,504.894104 
	C50.449753,402.497498 85.956757,310.895142 150.300766,230.902344 
	C211.034714,155.397659 287.739136,102.405792 379.842407,72.145889 
	C441.646729,51.840496 505.093109,44.608799 570.004395,49.673592 
	C629.710938,54.332272 686.614929,69.361572 740.674377,94.998802 
	C801.808777,123.991295 854.669739,164.032639 899.333313,214.887085 
	C933.538391,253.833344 960.857361,297.127197 981.345154,344.719910 
	C996.530090,379.994232 1007.332886,416.591919 1013.820984,454.444305 
	C1021.723694,500.549866 1023.155945,546.884033 1017.830261,593.346985 
	C1009.065430,669.814758 983.987305,740.555603 941.816895,804.990906 
	C886.559875,889.422241 812.234802,951.234253 719.308777,990.534729 
	C682.537537,1006.086121 644.265076,1016.611328 604.779968,1022.464233 
	C567.740417,1027.954712 530.545837,1029.291382 493.147491,1026.364380 
	C441.288055,1022.305481 391.363678,1010.422791 343.412323,990.395142 
	C279.709167,963.788452 224.051605,925.381531 176.577652,875.250977 
	C121.934319,817.549988 83.530502,750.479065 61.150650,673.796692 
M331.297211,454.160858 
	C341.858704,453.135437 352.558136,452.859619 362.956299,450.946411 
	C396.338684,444.804230 421.596649,427.146729 434.464691,395.178253 
	C445.372040,368.080811 441.401733,342.265381 422.262665,319.613647 
	C411.292084,306.629639 396.226654,299.990601 380.650391,294.415039 
	C375.979431,292.743042 371.238953,291.265381 366.312103,289.626099 
	C373.294128,262.041870 380.203918,234.742981 387.151825,207.293411 
	C376.989777,204.732269 367.245056,202.276321 357.109894,199.721985 
	C350.045654,227.514389 343.068878,254.962799 336.046478,282.590576 
	C330.051605,281.335052 324.590546,280.191284 318.849487,278.988892 
	C325.798126,251.527847 332.653625,224.434875 339.519257,197.301865 
	C329.058685,194.650040 319.456360,192.215759 309.513977,189.695297 
	C302.379608,217.747803 295.397583,245.201263 288.360229,272.872253 
	C286.015717,272.440491 284.055420,272.177338 282.144043,271.712952 
	C250.036621,263.912476 217.915253,256.167847 185.843079,248.224716 
	C173.980545,245.286789 175.404144,244.737701 172.961777,255.659424 
	C171.452820,262.407227 171.522308,262.376038 178.374359,264.647949 
	C186.535477,267.353912 194.739853,269.990143 202.710312,273.192261 
	C209.713135,276.005585 213.380096,281.335358 212.239349,289.259674 
	C211.623535,293.537476 211.351898,297.888336 210.415512,302.092773 
	C201.676300,341.333588 192.946152,380.577118 183.980682,419.766632 
	C170.530518,478.559387 156.849823,537.288330 140.261292,595.315247 
	C136.861404,607.208069 131.267746,614.260742 118.681419,614.855652 
	C113.169701,615.116150 110.708344,618.024719 109.729095,623.525330 
	C108.922668,628.055176 110.157669,629.519958 114.381584,630.049255 
	C120.480972,630.813538 126.587021,631.724182 132.587784,633.039612 
	C152.811127,637.472961 172.989227,642.112671 193.399155,646.721924 
	C185.286560,678.728394 177.400192,709.842468 169.481491,741.083984 
	C179.876556,743.686890 189.487762,746.093445 199.522308,748.606079 
	C207.478378,717.341797 215.320465,686.525574 223.188766,655.606201 
	C229.112259,656.975098 234.585922,658.239990 240.531265,659.613892 
	C232.491959,691.411926 224.505798,722.999756 216.495529,754.682861 
	C226.898865,757.313843 236.543137,759.752808 246.525848,762.277405 
	C254.861740,729.409912 263.130646,696.806580 271.453247,663.991516 
	C300.184631,665.614319 326.927734,659.863525 352.157990,646.980286 
	C367.311707,639.242432 380.636139,629.088867 391.491760,616.058716 
	C404.385101,600.582642 412.077179,582.484131 415.505859,562.703552 
	C420.085724,536.281799 415.192810,512.228027 396.622894,491.899506 
	C383.490143,477.523071 366.286194,469.735565 348.794830,462.469086 
	C342.203766,459.731018 335.443207,457.400940 328.759949,454.884857 
	C328.850098,454.647491 328.940247,454.410095 329.030426,454.172729 
	C329.524017,454.172729 330.017578,454.172729 331.297211,454.160858 
M738.471252,432.795288 
	C737.741638,438.899384 736.965454,444.998322 736.291748,451.108582 
	C734.751709,465.076080 734.887451,462.338928 746.394836,465.269287 
	C750.384888,466.285339 751.913696,464.758820 752.877625,461.361328 
	C755.191345,453.206116 757.489929,445.044617 759.962524,436.936859 
	C764.741943,421.264771 768.954834,405.363129 777.247681,391.021301 
	C779.716187,386.752228 777.187744,385.948761 773.784058,385.215912 
	C742.431274,378.465179 710.982239,372.117859 679.771790,364.759705 
	C628.030457,352.561218 576.452820,339.669495 524.788696,327.141693 
	C511.239502,323.856171 513.748352,322.811279 510.204895,336.281311 
	C509.247955,339.919037 510.456818,341.771057 514.124023,342.790131 
	C522.755676,345.188782 531.370056,347.694702 539.859009,350.550964 
	C554.538147,355.490021 557.358398,360.137177 555.145691,375.414642 
	C554.146973,382.310394 552.977417,389.205200 551.412659,395.991486 
	C532.418457,478.368530 513.425476,560.746216 494.180511,643.064819 
	C491.277527,655.482239 487.349701,667.683411 483.409912,679.826904 
	C480.770599,687.962036 474.947144,692.244080 465.997131,691.152222 
	C457.258972,690.086182 448.503082,689.129333 439.798615,687.831787 
	C428.014801,686.075256 428.143890,685.976807 425.884491,697.780334 
	C425.152435,701.604919 426.309509,703.283142 430.083374,703.971985 
	C477.348938,712.599121 524.157227,723.237305 570.379028,736.373352 
	C583.643433,740.143127 581.296448,739.242126 584.364868,727.805237 
	C585.531006,723.458801 584.220276,721.697266 580.115295,720.772400 
	C575.580872,719.750793 571.041443,718.564209 566.694458,716.940247 
	C559.452881,714.234924 552.251526,711.362793 545.248291,708.099426 
	C540.622375,705.943726 538.510498,701.767578 539.032532,696.604980 
	C539.750488,689.505371 540.037231,682.288330 541.572632,675.357239 
	C550.912476,633.195984 560.549255,591.100403 570.120300,548.990540 
	C570.396606,547.774780 571.042603,546.643005 571.584229,545.304077 
	C581.010742,547.290100 590.200562,548.847107 599.183777,551.194702 
	C620.368225,556.730957 641.562439,562.280090 662.543640,568.526306 
	C677.735107,573.048889 679.968506,577.087341 678.107544,592.890503 
	C677.155823,600.972656 675.756714,609.014221 674.254456,617.016785 
	C671.711792,630.562866 671.715332,628.052917 683.546997,631.162659 
	C688.169128,632.377563 690.221191,631.177551 691.090942,626.393433 
	C697.865051,589.131592 706.040405,552.188416 716.719299,515.826355 
	C719.404663,506.682739 719.316589,506.655731 709.816528,504.421478 
	C708.849609,504.194092 707.829346,504.111053 706.916016,503.752075 
	C703.077087,502.243134 701.230652,503.738190 699.910828,507.479828 
	C696.879700,516.072632 693.378662,524.498352 690.209412,533.044189 
	C687.464783,540.445007 682.259766,543.280518 674.590698,542.035645 
	C673.118225,541.796509 671.577454,541.953308 670.115601,541.676758 
	C648.769226,537.639038 627.397522,533.723633 606.105469,529.415283 
	C596.223938,527.415894 586.501099,524.632507 576.532166,522.161316 
	C576.838074,520.514587 577.000305,519.388550 577.259155,518.285217 
	C581.242859,501.301117 584.973572,484.252136 589.291382,467.353180 
	C596.770691,438.080017 604.660339,408.911865 612.245544,379.665344 
	C613.113464,376.318634 614.750732,375.533844 617.917664,376.046692 
	C626.771912,377.480499 635.712769,378.429291 644.520142,380.094635 
	C676.098694,386.065643 707.202026,393.647644 735.702637,409.223663 
	C737.500305,410.206116 739.581116,412.682739 739.617981,414.502930 
	C739.735046,420.285004 738.946228,426.085419 738.471252,432.795288 
M912.491211,462.183777 
	C913.479126,459.547302 914.457703,456.907288 915.456543,454.274963 
	C918.633545,445.902405 922.740906,442.555511 931.459229,443.138153 
	C940.549744,443.745758 949.617737,445.131683 958.608765,446.681519 
	C971.239563,448.858734 969.556335,450.346802 972.740723,437.439850 
	C973.780334,433.226044 972.588562,431.504395 968.270447,430.672913 
	C921.285278,421.625397 874.548767,411.507935 828.528687,398.256500 
	C815.803711,394.592377 817.623108,393.787903 814.397034,406.520813 
	C813.355957,410.629822 814.268066,412.514435 818.462158,413.739655 
	C828.480225,416.666168 838.515503,419.665497 848.245178,423.411072 
	C858.392090,427.317291 860.732300,431.930542 859.724060,442.674866 
	C859.615479,443.831909 859.494629,444.996490 859.255188,446.131317 
	C853.073669,475.417053 847.304260,504.797913 840.591125,533.961487 
	C826.687988,594.360413 812.383972,654.667969 797.995056,714.953491 
	C795.148987,726.877930 791.723816,738.730042 787.571899,750.257568 
	C783.735901,760.907776 780.046753,762.926758 768.713135,762.044922 
	C760.281860,761.388916 751.917847,759.825623 743.536499,758.581238 
	C730.710754,756.676941 733.380981,755.391968 730.297546,767.112366 
	C728.719360,773.110962 729.270935,773.816833 735.470886,775.020386 
	C781.961975,784.045349 828.250549,793.925842 873.790588,807.079895 
	C887.299744,810.981934 885.053894,811.760315 888.472717,798.560059 
	C889.465393,794.727234 888.710388,793.001648 884.585327,791.848145 
	C874.684570,789.079346 864.833496,786.012573 855.210083,782.405273 
	C845.164856,778.639893 842.359985,774.640442 843.172668,763.969849 
	C843.888367,754.572388 845.524658,745.166504 847.634460,735.966187 
	C862.972168,669.084961 878.417725,602.228027 894.083313,535.422913 
	C899.769653,511.173553 906.149475,487.086761 912.491211,462.183777 
z"/>
<path fill="#FCFCFC" opacity="1.000000" stroke="none" 
	d="
M330.904175,454.166809 
	C330.017578,454.172729 329.524017,454.172729 329.030426,454.172729 
	C328.940247,454.410095 328.850098,454.647491 328.759949,454.884857 
	C335.443207,457.400940 342.203766,459.731018 348.794830,462.469086 
	C366.286194,469.735565 383.490143,477.523071 396.622894,491.899506 
	C415.192810,512.228027 420.085724,536.281799 415.505859,562.703552 
	C412.077179,582.484131 404.385101,600.582642 391.491760,616.058716 
	C380.636139,629.088867 367.311707,639.242432 352.157990,646.980286 
	C326.927734,659.863525 300.184631,665.614319 271.453247,663.991516 
	C263.130646,696.806580 254.861740,729.409912 246.525848,762.277405 
	C236.543137,759.752808 226.898865,757.313843 216.495529,754.682861 
	C224.505798,722.999756 232.491959,691.411926 240.531265,659.613892 
	C234.585922,658.239990 229.112259,656.975098 223.188766,655.606201 
	C215.320465,686.525574 207.478378,717.341797 199.522308,748.606079 
	C189.487762,746.093445 179.876556,743.686890 169.481491,741.083984 
	C177.400192,709.842468 185.286560,678.728394 193.399155,646.721924 
	C172.989227,642.112671 152.811127,637.472961 132.587784,633.039612 
	C126.587021,631.724182 120.480972,630.813538 114.381584,630.049255 
	C110.157669,629.519958 108.922668,628.055176 109.729095,623.525330 
	C110.708344,618.024719 113.169701,615.116150 118.681419,614.855652 
	C131.267746,614.260742 136.861404,607.208069 140.261292,595.315247 
	C156.849823,537.288330 170.530518,478.559387 183.980682,419.766632 
	C192.946152,380.577118 201.676300,341.333588 210.415512,302.092773 
	C211.351898,297.888336 211.623535,293.537476 212.239349,289.259674 
	C213.380096,281.335358 209.713135,276.005585 202.710312,273.192261 
	C194.739853,269.990143 186.535477,267.353912 178.374359,264.647949 
	C171.522308,262.376038 171.452820,262.407227 172.961777,255.659424 
	C175.404144,244.737701 173.980545,245.286789 185.843079,248.224716 
	C217.915253,256.167847 250.036621,263.912476 282.144043,271.712952 
	C284.055420,272.177338 286.015717,272.440491 288.360229,272.872253 
	C295.397583,245.201263 302.379608,217.747803 309.513977,189.695297 
	C319.456360,192.215759 329.058685,194.650040 339.519257,197.301865 
	C332.653625,224.434875 325.798126,251.527847 318.849487,278.988892 
	C324.590546,280.191284 330.051605,281.335052 336.046478,282.590576 
	C343.068878,254.962799 350.045654,227.514389 357.109894,199.721985 
	C367.245056,202.276321 376.989777,204.732269 387.151825,207.293411 
	C380.203918,234.742981 373.294128,262.041870 366.312103,289.626099 
	C371.238953,291.265381 375.979431,292.743042 380.650391,294.415039 
	C396.226654,299.990601 411.292084,306.629639 422.262665,319.613647 
	C441.401733,342.265381 445.372040,368.080811 434.464691,395.178253 
	C421.596649,427.146729 396.338684,444.804230 362.956299,450.946411 
	C352.558136,452.859619 341.858704,453.135437 330.904175,454.166809 
M355.572357,513.111389 
	C354.216766,509.743256 352.957672,506.332397 351.488922,503.014374 
	C345.064117,488.500305 332.847870,480.024017 319.447906,473.065063 
	C302.122406,464.067505 283.530212,458.470551 264.602478,454.024200 
	C253.666290,451.455231 242.623306,449.340851 231.395706,446.972809 
	C228.516663,459.253510 225.781601,470.714111 223.146255,482.197632 
	C212.927628,526.725159 202.769073,571.266479 192.476761,615.776917 
	C191.808411,618.667297 192.515533,619.716187 195.164001,620.973450 
	C209.813721,627.928406 225.154236,632.722961 241.018356,635.747314 
	C259.576752,639.285339 278.214203,640.923523 296.690308,635.104858 
	C326.450745,625.732422 343.013153,603.640381 352.798828,575.617065 
	C359.830231,555.481079 361.720184,534.790161 355.572357,513.111389 
M241.117905,404.812927 
	C239.626648,411.423767 238.135391,418.034576 236.650284,424.618195 
	C237.210327,425.046631 237.555634,425.491669 237.993713,425.620056 
	C261.956665,432.641357 286.067963,438.918121 311.276398,439.140717 
	C328.675537,439.294342 344.826965,435.615662 358.332123,423.701172 
	C372.316467,411.363892 379.194550,395.441895 382.619598,377.518799 
	C387.947601,349.637634 376.761780,326.267853 351.391235,313.471252 
	C328.943329,302.148773 304.737579,297.395630 279.984406,294.843201 
	C269.583588,293.770721 269.579712,293.817078 266.640503,303.495026 
	C266.060913,305.403503 265.381348,307.286499 264.899689,309.219116 
	C257.026184,340.810028 249.177170,372.407074 241.117905,404.812927 
z"/>
<path fill="#FBFBFB" opacity="1.000000" stroke="none" 
	d="
M738.489380,432.337006 
	C738.946228,426.085419 739.735046,420.285004 739.617981,414.502930 
	C739.581116,412.682739 737.500305,410.206116 735.702637,409.223663 
	C707.202026,393.647644 676.098694,386.065643 644.520142,380.094635 
	C635.712769,378.429291 626.771912,377.480499 617.917664,376.046692 
	C614.750732,375.533844 613.113464,376.318634 612.245544,379.665344 
	C604.660339,408.911865 596.770691,438.080017 589.291382,467.353180 
	C584.973572,484.252136 581.242859,501.301117 577.259155,518.285217 
	C577.000305,519.388550 576.838074,520.514587 576.532166,522.161316 
	C586.501099,524.632507 596.223938,527.415894 606.105469,529.415283 
	C627.397522,533.723633 648.769226,537.639038 670.115601,541.676758 
	C671.577454,541.953308 673.118225,541.796509 674.590698,542.035645 
	C682.259766,543.280518 687.464783,540.445007 690.209412,533.044189 
	C693.378662,524.498352 696.879700,516.072632 699.910828,507.479828 
	C701.230652,503.738190 703.077087,502.243134 706.916016,503.752075 
	C707.829346,504.111053 708.849609,504.194092 709.816528,504.421478 
	C719.316589,506.655731 719.404663,506.682739 716.719299,515.826355 
	C706.040405,552.188416 697.865051,589.131592 691.090942,626.393433 
	C690.221191,631.177551 688.169128,632.377563 683.546997,631.162659 
	C671.715332,628.052917 671.711792,630.562866 674.254456,617.016785 
	C675.756714,609.014221 677.155823,600.972656 678.107544,592.890503 
	C679.968506,577.087341 677.735107,573.048889 662.543640,568.526306 
	C641.562439,562.280090 620.368225,556.730957 599.183777,551.194702 
	C590.200562,548.847107 581.010742,547.290100 571.584229,545.304077 
	C571.042603,546.643005 570.396606,547.774780 570.120300,548.990540 
	C560.549255,591.100403 550.912476,633.195984 541.572632,675.357239 
	C540.037231,682.288330 539.750488,689.505371 539.032532,696.604980 
	C538.510498,701.767578 540.622375,705.943726 545.248291,708.099426 
	C552.251526,711.362793 559.452881,714.234924 566.694458,716.940247 
	C571.041443,718.564209 575.580872,719.750793 580.115295,720.772400 
	C584.220276,721.697266 585.531006,723.458801 584.364868,727.805237 
	C581.296448,739.242126 583.643433,740.143127 570.379028,736.373352 
	C524.157227,723.237305 477.348938,712.599121 430.083374,703.971985 
	C426.309509,703.283142 425.152435,701.604919 425.884491,697.780334 
	C428.143890,685.976807 428.014801,686.075256 439.798615,687.831787 
	C448.503082,689.129333 457.258972,690.086182 465.997131,691.152222 
	C474.947144,692.244080 480.770599,687.962036 483.409912,679.826904 
	C487.349701,667.683411 491.277527,655.482239 494.180511,643.064819 
	C513.425476,560.746216 532.418457,478.368530 551.412659,395.991486 
	C552.977417,389.205200 554.146973,382.310394 555.145691,375.414642 
	C557.358398,360.137177 554.538147,355.490021 539.859009,350.550964 
	C531.370056,347.694702 522.755676,345.188782 514.124023,342.790131 
	C510.456818,341.771057 509.247955,339.919037 510.204895,336.281311 
	C513.748352,322.811279 511.239502,323.856171 524.788696,327.141693 
	C576.452820,339.669495 628.030457,352.561218 679.771790,364.759705 
	C710.982239,372.117859 742.431274,378.465179 773.784058,385.215912 
	C777.187744,385.948761 779.716187,386.752228 777.247681,391.021301 
	C768.954834,405.363129 764.741943,421.264771 759.962524,436.936859 
	C757.489929,445.044617 755.191345,453.206116 752.877625,461.361328 
	C751.913696,464.758820 750.384888,466.285339 746.394836,465.269287 
	C734.887451,462.338928 734.751709,465.076080 736.291748,451.108582 
	C736.965454,444.998322 737.741638,438.899384 738.489380,432.337006 
z"/>
<path fill="#FCFCFC" opacity="1.000000" stroke="none" 
	d="
M912.352051,462.554810 
	C906.149475,487.086761 899.769653,511.173553 894.083313,535.422913 
	C878.417725,602.228027 862.972168,669.084961 847.634460,735.966187 
	C845.524658,745.166504 843.888367,754.572388 843.172668,763.969849 
	C842.359985,774.640442 845.164856,778.639893 855.210083,782.405273 
	C864.833496,786.012573 874.684570,789.079346 884.585327,791.848145 
	C888.710388,793.001648 889.465393,794.727234 888.472717,798.560059 
	C885.053894,811.760315 887.299744,810.981934 873.790588,807.079895 
	C828.250549,793.925842 781.961975,784.045349 735.470886,775.020386 
	C729.270935,773.816833 728.719360,773.110962 730.297546,767.112366 
	C733.380981,755.391968 730.710754,756.676941 743.536499,758.581238 
	C751.917847,759.825623 760.281860,761.388916 768.713135,762.044922 
	C780.046753,762.926758 783.735901,760.907776 787.571899,750.257568 
	C791.723816,738.730042 795.148987,726.877930 797.995056,714.953491 
	C812.383972,654.667969 826.687988,594.360413 840.591125,533.961487 
	C847.304260,504.797913 853.073669,475.417053 859.255188,446.131317 
	C859.494629,444.996490 859.615479,443.831909 859.724060,442.674866 
	C860.732300,431.930542 858.392090,427.317291 848.245178,423.411072 
	C838.515503,419.665497 828.480225,416.666168 818.462158,413.739655 
	C814.268066,412.514435 813.355957,410.629822 814.397034,406.520813 
	C817.623108,393.787903 815.803711,394.592377 828.528687,398.256500 
	C874.548767,411.507935 921.285278,421.625397 968.270447,430.672913 
	C972.588562,431.504395 973.780334,433.226044 972.740723,437.439850 
	C969.556335,450.346802 971.239563,448.858734 958.608765,446.681519 
	C949.617737,445.131683 940.549744,443.745758 931.459229,443.138153 
	C922.740906,442.555511 918.633545,445.902405 915.456543,454.274963 
	C914.457703,456.907288 913.479126,459.547302 912.352051,462.554810 
z"/>
<path fill="#000000" opacity="1.000000" stroke="none" 
	d="
M355.726868,513.488037 
	C361.720184,534.790161 359.830231,555.481079 352.798828,575.617065 
	C343.013153,603.640381 326.450745,625.732422 296.690308,635.104858 
	C278.214203,640.923523 259.576752,639.285339 241.018356,635.747314 
	C225.154236,632.722961 209.813721,627.928406 195.164001,620.973450 
	C192.515533,619.716187 191.808411,618.667297 192.476761,615.776917 
	C202.769073,571.266479 212.927628,526.725159 223.146255,482.197632 
	C225.781601,470.714111 228.516663,459.253510 231.395706,446.972809 
	C242.623306,449.340851 253.666290,451.455231 264.602478,454.024200 
	C283.530212,458.470551 302.122406,464.067505 319.447906,473.065063 
	C332.847870,480.024017 345.064117,488.500305 351.488922,503.014374 
	C352.957672,506.332397 354.216766,509.743256 355.726868,513.488037 
z"/>
<path fill="#000000" opacity="1.000000" stroke="none" 
	d="
M241.220276,404.407837 
	C249.177170,372.407074 257.026184,340.810028 264.899689,309.219116 
	C265.381348,307.286499 266.060913,305.403503 266.640503,303.495026 
	C269.579712,293.817078 269.583588,293.770721 279.984406,294.843201 
	C304.737579,297.395630 328.943329,302.148773 351.391235,313.471252 
	C376.761780,326.267853 387.947601,349.637634 382.619598,377.518799 
	C379.194550,395.441895 372.316467,411.363892 358.332123,423.701172 
	C344.826965,435.615662 328.675537,439.294342 311.276398,439.140717 
	C286.067963,438.918121 261.956665,432.641357 237.993713,425.620056 
	C237.555634,425.491669 237.210327,425.046631 236.650284,424.618195 
	C238.135391,418.034576 239.626648,411.423767 241.220276,404.407837 
z"/>
</svg>