<?xml version="1.0" encoding="UTF-8" standalone="no"?>
<!-- Generator: Adobe Illustrator 27.0.0, SVG Export Plug-In . SVG Version: 6.00 Build 0)  -->

<svg
   version="1.1"
   id="Layer_1"
   x="0px"
   y="0px"
   viewBox="0 0 650 180"
   xml:space="preserve"
   sodipodi:docname="eating_bubbel.svg"
   width="650"
   height="180"
   inkscape:version="1.2.1 (9c6d41e, 2022-07-14)"
   xmlns:inkscape="http://www.inkscape.org/namespaces/inkscape"
   xmlns:sodipodi="http://sodipodi.sourceforge.net/DTD/sodipodi-0.dtd"
   xmlns="http://www.w3.org/2000/svg"
   xmlns:svg="http://www.w3.org/2000/svg"><defs
   id="defs375" /><sodipodi:namedview
   id="namedview373"
   pagecolor="#505050"
   bordercolor="#eeeeee"
   borderopacity="1"
   inkscape:showpageshadow="0"
   inkscape:pageopacity="0"
   inkscape:pagecheckerboard="0"
   inkscape:deskcolor="#505050"
   showgrid="false"
   inkscape:zoom="0.30729167"
   inkscape:cx="707.79661"
   inkscape:cy="411.66102"
   inkscape:window-width="1515"
   inkscape:window-height="821"
   inkscape:window-x="0"
   inkscape:window-y="38"
   inkscape:window-maximized="0"
   inkscape:current-layer="Layer_1" />
<style
   type="text/css"
   id="style2">
	.st0{fill:#0C0C0C;}
	.st1{fill:#14171B;}
	.st2{fill:#110F08;}
	.st3{fill:#15181B;}
	.st4{fill:#1E1D12;}
	.st5{fill:#1E1C11;}
	.st6{fill:#454122;}
	.st7{fill:#2B280C;}
	.st8{fill:#5B592F;}
	.st9{fill:#2E2E2E;}
	.st10{fill:#FDFDFD;}
	.st11{fill:#F8F8F8;}
	.st12{fill:#F3F3F3;}
	.st13{fill:#F0F0F0;}
	.st14{fill:#3352B3;}
	.st15{fill:#EADF38;}
	.st16{fill:#1C1907;}
	.st17{fill:#221F08;}
	.st18{fill:#35320C;}
	.st19{fill:#3452B2;}
	.st20{fill:#E8DC36;}
	.st21{fill:#3B370D;}
	.st22{fill:#E8DD36;}
	.st23{fill:#101010;}
	.st24{fill:#0D0B03;}
	.st25{fill:#120F04;}
	.st26{fill:#FCFCFC;}
	.st27{fill:#DBD139;}
	.st28{fill:#B6AE3B;}
</style>
<g
   id="g370"
   transform="translate(-339.38774,-268.35165)">
	<path
   class="st0"
   d="m 561.44,309.4 c 1.02,6.54 2.09,13.06 4.94,19.15 0.42,0.91 0.14,2.15 0.18,3.23 -1.05,-0.23 -2.4,-0.12 -3.1,-0.74 -2.82,-2.49 -5.43,-5.2 -8.12,-7.83 0.43,-0.45 0.85,-0.9 1.28,-1.34 2.05,2.14 4.11,4.27 6.16,6.41 0.12,-0.1 0.24,-0.21 0.36,-0.31 -1.19,-4.53 -2.39,-9.05 -3.64,-13.82 -1.61,2.14 -3.1,4.13 -4.6,6.12 -0.54,0.46 -1.08,0.92 -1.62,1.37 -2.33,1.28 -2.77,2.99 -1.92,5.58 1.34,4.09 2.3,8.32 3.26,12.53 0.2,0.89 -0.28,1.93 -0.44,2.9 -0.96,-0.31 -2.2,-0.34 -2.84,-0.97 -3.28,-3.24 -6.4,-6.65 -9.67,-10.09 -1.57,1.61 -3.01,3.08 -4.48,4.58 1.55,4.87 3.13,9.7 4.58,14.56 0.19,0.64 -0.06,1.78 -0.53,2.12 -0.4,0.29 -1.59,0 -2.09,-0.43 -3.29,-2.84 -6.49,-5.79 -9.69,-8.69 -0.22,0.06 -0.44,0.06 -0.55,0.17 -5.17,4.97 -4.65,2.76 -2.27,9.66 0.91,2.63 2.27,5.11 3.28,7.71 0.28,0.73 0.07,1.65 0.08,2.48 -0.89,-0.16 -2.05,-0.02 -2.62,-0.54 -3.25,-2.89 -6.36,-5.94 -9.43,-8.85 -5.15,5.7 -10.53,11.65 -15.74,17.41 8.25,1.18 17.98,2.58 27.53,3.95 2.03,-3.59 3.82,-6.8 5.66,-9.98 0.59,-1.02 1.24,-2.02 2.04,-2.88 0.57,-0.61 1.41,-0.97 2.14,-1.44 0.44,0.72 1.1,1.38 1.3,2.16 0.83,3.32 1.62,6.66 2.22,10.02 0.45,2.51 1.38,4.17 4.28,3.98 0.69,-0.04 1.4,0.32 2.1,0.5 0.88,0.19 1.75,0.39 2.63,0.58 2.88,0.51 5.75,1.02 9.01,1.59 -1.07,-5.68 -2.08,-11.03 -3.09,-16.38 -0.21,0.01 -0.41,0.02 -0.62,0.03 -1.54,3.82 -3.08,7.64 -4.62,11.47 -0.24,-1.01 -0.49,-2.01 -0.73,-3.02 1.48,-3.53 2.84,-7.12 4.51,-10.55 0.45,-0.93 1.83,-1.41 2.79,-2.1 0.36,1.03 0.86,2.04 1.05,3.1 1,5.58 1.86,11.18 2.9,16.75 0.45,2.42 2.71,1.51 4.21,1.96 0.72,0.12 1.45,0.25 2.17,0.37 3.33,0.44 6.67,0.88 10.77,1.43 -0.49,-6.18 -0.92,-11.7 -1.36,-17.22 -0.37,-0.06 -0.75,-0.12 -1.12,-0.18 -2.06,3.82 -4.12,7.64 -6.18,11.46 -0.35,-0.66 -0.69,-1.32 -1.04,-1.98 2.64,-4.59 5.25,-9.2 7.95,-13.76 0.27,-0.45 1.05,-0.91 1.53,-0.84 0.38,0.05 0.9,0.87 0.93,1.38 0.44,6.14 1.22,12.3 1.07,18.43 -0.18,7.39 -3.49,13.98 -7.12,20.26 -8.23,14.25 -20.09,23.93 -36.39,27.43 -16.8,3.6 -32.24,-0.19 -46.16,-9.86 -17.8,-12.36 -28.37,-29.6 -32.58,-50.75 -3.78,-19.01 -1.48,-37.15 8.78,-53.82 8.98,-14.58 21.98,-23.72 39.02,-26.18 17.38,-2.51 32.73,2.94 46.35,13.64 2.44,1.91 4.54,4.24 6.8,6.38 0.15,0.57 0.33,1.13 0.5,1.7 z M 525.36,358 c 0.15,0.12 0.3,0.24 0.46,0.36 -0.06,-0.21 -0.12,-0.43 -0.18,-0.64 -1,-2.62 -2.01,-5.24 -3.06,-7.98 -1.12,0.9 -2.03,1.63 -2.94,2.36 1.98,2.04 3.85,3.97 5.72,5.9 z m 34.4,-49.02 c -3.43,-2.81 -6.39,-5.5 -9.61,-7.82 -12.24,-8.83 -25.94,-13.11 -40.98,-11.23 -16.65,2.08 -29.4,10.84 -38.2,25.02 -9.85,15.87 -12.33,33.17 -8.78,51.37 4.35,22.31 15.58,40.14 35.09,52.22 11.87,7.35 24.89,10.38 38.72,7.9 15.97,-2.86 27.98,-11.77 36.39,-25.59 3.01,-4.95 5.39,-10.16 6.65,-15.4 -5.38,-0.76 -10.65,-1.19 -15.78,-2.29 -13.73,-2.96 -27.61,-4.75 -41.56,-6.21 -6.55,-0.69 -13.06,-1.85 -19.55,-2.98 -1.67,-0.29 -3.21,-1.3 -4.81,-1.98 1.03,-1.52 1.84,-3.26 3.13,-4.51 7.09,-6.88 14.25,-13.69 21.48,-20.43 8.69,-8.1 17.48,-16.11 26.21,-24.17 1.86,-1.72 3.83,-3.38 5.43,-5.33 2.14,-2.63 4,-5.53 6.17,-8.57 z m -27.55,66.8 c 3.29,0.39 6.08,0.73 9.21,1.1 -0.87,-4.09 -1.68,-7.85 -2.65,-12.37 -2.35,4.06 -4.36,7.5 -6.56,11.27 z m 16.35,-50.04 c -2,1.6 -3.73,2.97 -5.14,4.11 2.77,2.92 5.4,5.7 8.37,8.84 -1.11,-4.45 -2.1,-8.42 -3.23,-12.95 z m -10.19,23 c -1.12,-4.05 -2.01,-7.28 -3.02,-10.95 -1.62,1.52 -2.96,2.78 -4.49,4.22 2.35,2.1 4.61,4.13 7.51,6.73 z"
   id="path4" />
	<path
   class="st1"
   d="m 407,386.62 c -10.84,5.32 -22.75,6.19 -34,9.5 -5.42,1.6 -10.83,3.24 -16.22,4.92 -2.95,0.92 -4.51,0.06 -4.18,-3.09 0.49,-4.81 1.49,-9.57 2.39,-14.33 0.67,-3.53 1.58,-7.01 2.28,-10.53 0.2,-1 0.03,-2.08 0.03,-3.55 15.42,-0.83 30.99,-1.67 46.18,-2.49 -3.56,-2.53 -7.5,-5.29 -11.4,-8.11 -1.24,-0.9 -2.69,-1.74 -3.5,-2.97 -2.4,-3.65 -4.93,-7.07 -8.79,-9.33 -0.43,-0.25 -0.45,-1.19 -0.66,-1.81 0.65,-0.2 1.32,-0.65 1.93,-0.56 6.41,0.9 12.83,1.8 19.22,2.85 9.33,1.53 18.64,3.12 27.95,4.78 5.66,1.01 11.3,2.11 16.92,3.31 2.35,0.5 2.74,2.96 0.92,5.5 -2.7,3.75 -5.82,7.23 -8.16,11.18 -6.27,10.56 -12.23,21.3 -18.29,31.99 -3.65,6.44 -7.13,12.97 -10.93,19.31 -0.96,1.61 -2.83,2.67 -4.28,3.99 -0.2,-1.77 -0.73,-3.57 -0.56,-5.3 0.96,-9.7 2.13,-19.38 3.14,-29.08 0.19,-1.93 0.01,-3.92 0.01,-6.18 z m -46.98,-15.03 c -0.82,3.26 -1.7,6.28 -2.32,9.36 -1.04,5.22 -1.94,10.48 -2.84,15.73 -0.27,1.58 0.32,2.56 2.11,2.05 3.03,-0.87 6.02,-1.87 9.05,-2.74 5.47,-1.57 10.89,-3.45 16.46,-4.53 7.9,-1.54 15.66,-3.41 23.08,-6.59 2.5,-1.07 4.21,0.14 4.01,2.84 -0.18,2.5 -0.57,4.99 -0.83,7.48 -0.73,7.12 -1.44,14.23 -2.15,21.35 -0.2,1.97 -0.4,3.93 -0.59,5.9 0.26,0.08 0.51,0.17 0.77,0.25 5.96,-11.1 12.04,-22.14 17.86,-33.32 5.8,-11.13 13.04,-21.33 20.53,-31.39 -0.18,-0.3 -0.37,-0.59 -0.55,-0.89 -20.02,-3.5 -40.04,-7 -60.15,-10.52 1.46,1.99 2.67,3.71 3.96,5.37 1.15,1.47 2.14,3.21 3.62,4.25 4.55,3.2 9.33,6.06 13.92,9.2 0.81,0.55 1.14,1.81 1.69,2.74 -0.8,0.42 -1.57,1.17 -2.39,1.22 -6.23,0.36 -12.46,0.56 -18.69,0.87 -8.87,0.43 -17.73,0.92 -26.55,1.37 z"
   id="path6" />
	<path
   class="st2"
   d="m 661.29,315.44 c 2.94,-0.2 5.93,-0.86 8.8,-0.52 18.14,2.19 30.89,17.16 30.53,35.57 -0.39,20.11 -15.14,37.14 -35.04,39.46 -20.37,2.38 -35.87,-11.8 -38.13,-29.43 -2.23,-17.45 4.79,-30.69 19.28,-40.2 1.89,-1.24 4.15,-1.92 6.24,-2.86 1.23,0.74 2.98,-1.79 3.95,0.62 h -0.01 c -0.91,0.33 -1.82,0.66 -2.73,0.99 -0.14,0.11 -0.3,0.16 -0.48,0.13 -0.56,0.17 -1.12,0.33 -1.68,0.5 -1.3,0.8 -2.59,1.6 -4.07,2.51 1.35,1.71 2.57,3.07 3.54,4.58 0.44,0.69 0.4,1.7 0.57,2.56 -0.75,-0.32 -1.71,-0.44 -2.21,-0.99 -1.38,-1.51 -2.56,-3.19 -4.06,-5.1 -2.7,2.54 -5.27,4.96 -8.02,7.56 2.21,1.32 3.97,2.27 5.6,3.41 0.54,0.37 0.75,1.22 1.11,1.84 -0.72,0.03 -1.57,0.33 -2.14,0.06 -2,-0.98 -3.9,-2.16 -6.31,-3.53 -2.08,4.67 -4.08,9.14 -6.29,14.11 2.74,0.2 4.7,0.35 6.66,0.48 1.28,0.09 2.55,0.14 3.83,0.21 -1.3,0.75 -2.53,1.71 -3.93,2.17 -0.95,0.31 -2.13,-0.08 -3.21,-0.18 -1.05,-0.1 -2.1,-0.23 -3.22,-0.35 0,4.77 0,9.3 0,13.96 1.98,-0.4 3.3,-0.76 4.64,-0.9 0.48,-0.05 1.01,0.42 1.52,0.65 -0.32,0.49 -0.54,1.23 -0.98,1.41 -1.21,0.5 -2.53,0.76 -4,1.17 1.24,4.12 3.02,7.6 5.73,10.59 0.54,0.71 1.08,1.41 1.61,2.12 3.45,2.38 6.9,4.76 10.35,7.14 0.39,0.17 0.79,0.34 1.18,0.51 4.51,0.74 9.02,1.47 13.52,2.21 0.55,-0.18 1.1,-0.36 1.66,-0.53 l 0.01,-0.01 c 0.6,-0.13 1.21,-0.25 1.81,-0.38 4.84,-0.13 8.94,-2.3 12.93,-4.46 -1.89,-2.96 -3.68,-5.67 -5.33,-8.46 -0.34,-0.57 -0.17,-1.45 -0.23,-2.18 0.73,0.34 1.77,0.48 2.15,1.05 1.81,2.68 3.44,5.48 5.2,8.32 4.71,-3.12 8.25,-7.3 11.31,-11.94 0.19,-0.44 0.37,-0.87 0.56,-1.31 3.3,-5.57 4.63,-11.63 4.79,-18.03 -3.16,-0.95 -6.03,2.26 -8.96,0.46 -0.06,-0.36 -0.13,-0.72 -0.19,-1.09 2.95,-0.72 5.89,-1.45 9.22,-2.26 -0.84,-3.41 -1.7,-6.92 -2.58,-10.46 -2.43,0.98 -4.34,1.82 -6.3,2.48 -0.51,0.17 -1.23,-0.25 -1.85,-0.41 0.36,-0.53 0.61,-1.3 1.11,-1.53 1.86,-0.88 3.8,-1.58 6.37,-2.61 -2.86,-3.59 -5.49,-6.91 -8.41,-10.57 -1.19,1.98 -1.9,3.34 -2.79,4.57 -0.28,0.39 -1.02,0.44 -1.56,0.64 -0.09,-0.56 -0.43,-1.23 -0.23,-1.65 0.72,-1.51 1.62,-2.94 2.73,-4.86 -3.62,-1.65 -7.15,-3.25 -10.99,-5 0,2.85 0.09,5.03 -0.06,7.18 -0.04,0.59 -0.83,1.13 -1.28,1.69 -0.26,-0.6 -0.72,-1.19 -0.75,-1.8 -0.09,-2.33 -0.04,-4.67 -0.04,-7.25 -2.82,-0.17 -5.25,-0.31 -7.67,-0.46 -1.06,-0.33 -2.85,0.65 -2.78,-1.6 z"
   id="path8" />
	<path
   class="st3"
   d="m 931.91,381 c 0.77,-2.34 1.46,-4.72 2.34,-7.02 1.89,-4.95 3.96,-9.82 5.77,-14.8 0.67,-1.84 0.81,-3.87 1.24,-6.02 -3.75,0.19 -7.37,0.02 -10.86,0.63 -8.68,1.51 -17.3,3.34 -25.92,5.11 -2.54,0.52 -3.39,-0.13 -3.01,-2.74 0.61,-4.27 1.37,-8.53 1.87,-12.81 0.17,-1.47 -0.24,-3.01 -0.45,-5.18 11.94,-0.89 23.86,-1.37 36.07,-0.37 -1.35,-3.05 -2.67,-5.94 -3.9,-8.86 -3.4,-8.02 -6.78,-16.05 -10.1,-24.1 -0.18,-0.44 0.16,-1.1 0.26,-1.65 0.63,0.21 1.4,0.25 1.87,0.65 6.19,5.29 12.31,10.68 18.52,15.96 6.47,5.51 13.05,10.89 19.53,16.39 3.24,2.75 6.47,5.53 9.48,8.53 2.33,2.31 2.08,3.89 -0.53,5.78 -7.47,5.41 -15.09,10.62 -22.43,16.2 -5.48,4.17 -10.59,8.82 -15.9,13.21 -0.85,0.7 -1.86,1.19 -2.8,1.78 -0.37,-0.24 -0.71,-0.47 -1.05,-0.69 z m -28.03,-24.51 c 1.89,-0.29 3.4,-0.41 4.86,-0.76 5.19,-1.23 10.3,-2.87 15.55,-3.7 5.7,-0.9 11.51,-1.12 17.28,-1.46 0.69,-0.04 2.14,1.23 2.05,1.6 -1.25,5.26 -2.54,10.52 -4.19,15.66 -0.97,3.01 -2.59,5.8 -3.92,8.69 0.7,0.04 0.96,-0.16 1.23,-0.37 10.35,-7.99 20.58,-16.12 31.08,-23.91 7.11,-5.27 7.34,-5.13 0.43,-10.67 -9.79,-7.84 -20.02,-15.14 -28.61,-24.43 -2.69,-2.91 -6.06,-5.19 -9.5,-8.08 0.08,0.98 0.01,1.45 0.17,1.83 3.75,9.07 7.47,18.15 11.34,27.16 0.79,1.84 0.3,2.39 -1.42,2.34 -6.97,-0.21 -13.94,-0.54 -20.92,-0.71 -4.66,-0.11 -9.33,-0.02 -13.38,-0.02 -0.73,5.9 -1.36,11.07 -2.05,16.83 z"
   id="path10" />
	<path
   class="st4"
   d="m 728.91,328.54 c 0.14,-0.19 0.28,-0.39 0.43,-0.58 0.23,-0.33 0.46,-0.67 0.69,-1 0.61,-0.77 1.23,-1.53 1.84,-2.3 0.47,-0.5 0.94,-1.01 1.41,-1.51 0.23,-0.23 0.46,-0.46 0.69,-0.69 0.87,-0.79 1.74,-1.58 2.61,-2.37 0.39,-0.3 0.77,-0.6 1.16,-0.91 0.34,-0.25 0.68,-0.49 1.02,-0.74 0.18,-0.13 0.36,-0.26 0.54,-0.39 0.37,-0.26 0.73,-0.51 1.1,-0.77 0.16,-0.11 0.32,-0.21 0.49,-0.32 0.38,-0.23 0.77,-0.47 1.15,-0.7 0.54,-0.31 1.09,-0.62 1.63,-0.92 3.61,-1.27 7.23,-2.53 10.84,-3.8 0.3,-0.06 0.6,-0.12 0.91,-0.18 0.97,-0.12 1.94,-0.24 2.91,-0.36 1.11,-0.01 2.22,-0.03 3.33,-0.04 0.29,0.46 0.57,0.91 0.73,1.16 -2.89,0.56 -5.63,1.09 -8.37,1.63 -1.1,0.38 -2.19,0.76 -3.62,1.26 0.9,1.89 1.81,3.55 2.46,5.3 0.26,0.69 -0.03,1.59 -0.08,2.39 -0.69,-0.43 -1.63,-0.7 -2.01,-1.32 -1.06,-1.74 -1.89,-3.63 -2.98,-5.82 -3.11,1.9 -6,3.66 -9.25,5.65 1.74,1.63 3.13,2.77 4.31,4.11 0.54,0.62 0.65,1.61 0.95,2.43 -0.87,-0.25 -1.9,-0.29 -2.57,-0.8 -1.51,-1.14 -2.83,-2.51 -4.77,-4.28 -3,4.03 -5.87,7.88 -8.73,11.74 0.13,0.36 0.26,0.72 0.4,1.08 2.51,0.44 5.03,0.85 7.53,1.36 0.59,0.12 1.11,0.62 1.67,0.94 -0.48,0.45 -0.94,1.27 -1.45,1.3 -1.6,0.08 -3.25,0.02 -4.82,-0.27 -1.36,-0.26 -2.65,-0.92 -4.61,-1.63 -0.82,4.83 -1.57,9.19 -2.36,13.8 1.98,0 3.17,-0.12 4.31,0.05 0.56,0.08 1.05,0.7 1.57,1.08 -0.52,0.42 -0.98,1.07 -1.57,1.2 -1.11,0.26 -2.28,0.21 -4.03,0.34 0.86,3.22 1.54,6.09 2.41,8.9 0.28,0.91 1.04,1.66 1.58,2.49 0.34,0.53 0.67,1.06 1.01,1.59 0.33,0.81 0.47,1.79 1.02,2.41 2.16,2.43 4.45,4.75 6.69,7.11 0.72,0.47 1.44,0.95 2.15,1.42 l 0.02,0.02 c 0.16,0.17 0.32,0.35 0.48,0.52 1.87,0.83 3.74,1.66 5.61,2.48 0.17,0.07 0.33,0.14 0.5,0.21 l -0.01,-0.01 c 0.5,0.21 1,0.41 1.5,0.62 0.81,0.19 1.62,0.38 2.44,0.57 -0.06,0.13 -0.13,0.26 -0.19,0.39 0.08,0.03 0.15,0.09 0.23,0.09 1.93,0.01 3.86,0.01 5.79,0.01 1.65,0 3.3,0 4.96,0 1.44,0 2.87,0 4.31,0 -0.01,-0.17 -0.02,-0.33 -0.04,-0.5 -0.33,0 -0.66,0 -1,0 0.77,-0.18 1.54,-0.36 2.31,-0.54 0.68,-0.2 1.36,-0.41 2.03,-0.61 0.21,-0.36 0.42,-0.71 0.63,-1.07 0.64,0.17 1.27,0.34 1.91,0.51 -0.09,-0.24 -0.17,-0.49 -0.26,-0.73 0.94,-0.31 2,-0.43 2.79,-0.96 3.36,-2.26 6.63,-4.64 9.93,-6.98 0.28,-0.27 0.56,-0.54 0.84,-0.8 0.14,-0.24 0.28,-0.49 0.42,-0.73 0.23,-0.29 0.46,-0.58 0.69,-0.88 4.31,-4.73 6.94,-10.28 8.47,-16.93 -2.31,0 -4.27,0.11 -6.19,-0.05 -0.85,-0.07 -1.66,-0.72 -2.49,-1.1 0.77,-0.43 1.52,-1.15 2.31,-1.22 2.13,-0.17 4.29,-0.06 6.65,-0.06 0,-3.52 0,-6.98 0,-10.64 -2.13,0.33 -3.82,0.73 -5.52,0.8 -0.89,0.04 -1.81,-0.47 -2.72,-0.73 0.85,-0.5 1.63,-1.2 2.55,-1.46 1.53,-0.43 3.13,-0.58 5.5,-0.98 -1.94,-3.84 -3.63,-7.2 -5.32,-10.55 -0.16,-0.18 -0.31,-0.37 -0.47,-0.55 l -0.05,-0.05 c -0.9,-1.07 -1.8,-2.14 -2.69,-3.21 l -0.05,-0.05 c -0.36,-0.35 -0.71,-0.69 -1.07,-1.04 -2.2,-1.55 -4.39,-3.1 -6.59,-4.65 -0.28,-0.1 -0.57,-0.2 -0.85,-0.3 -0.17,0.19 -0.34,0.39 -0.51,0.58 -0.31,1.76 -0.63,3.51 -0.94,5.27 l -0.05,0.15 c -0.64,-0.15 -1.28,-0.31 -1.91,-0.46 0.05,-0.19 0.1,-0.37 0.15,-0.56 0.3,-1.81 0.61,-3.62 0.91,-5.44 -0.07,-0.16 -0.12,-0.33 -0.13,-0.5 -0.46,-0.23 -0.93,-0.47 -1.39,-0.7 -0.27,-0.13 -0.54,-0.25 -0.8,-0.38 -0.88,-0.21 -1.77,-0.43 -2.65,-0.64 -0.35,-0.05 -0.7,-0.09 -1.05,-0.14 -0.91,-0.28 -1.89,-0.43 -2.69,-0.91 -0.41,-0.25 -0.47,-1.07 -0.68,-1.64 1.32,0.1 2.64,0.2 3.96,0.3 0.33,0.06 0.66,0.11 0.99,0.17 0.92,0.22 1.84,0.45 2.77,0.67 0.74,0.3 1.48,0.6 2.22,0.9 0.87,0.35 1.73,0.69 2.6,1.04 0.41,0.19 0.82,0.38 1.24,0.58 0.31,0.19 0.62,0.39 0.94,0.58 0.37,0.2 0.74,0.4 1.11,0.6 4.25,2.53 7.75,5.84 10.36,10.05 0.2,0.31 0.4,0.63 0.61,0.94 0.2,0.33 0.39,0.66 0.59,0.99 1.23,3.27 2.45,6.55 3.68,9.82 0.06,0.34 0.12,0.68 0.18,1.02 0.13,0.75 0.26,1.5 0.39,2.25 0,2.94 0,5.88 -0.01,8.81 -0.08,0.43 -0.17,0.86 -0.25,1.3 -0.11,0.66 -0.22,1.32 -0.32,1.98 -0.12,0.38 -0.24,0.76 -0.35,1.14 -0.21,0.86 -0.41,1.72 -0.62,2.58 -0.36,0.93 -0.72,1.85 -1.09,2.78 -1.58,2.89 -3.17,5.78 -4.75,8.67 -0.26,0.34 -0.52,0.68 -0.78,1.02 -0.64,0.75 -1.27,1.5 -1.91,2.25 -0.82,0.85 -1.64,1.7 -2.46,2.54 -2,1.55 -4.01,3.1 -6.01,4.64 -0.37,0.22 -0.74,0.45 -1.1,0.67 -0.91,0.5 -1.82,0.99 -2.73,1.49 -0.36,0.17 -0.72,0.34 -1.08,0.51 -0.5,0.22 -1,0.44 -1.5,0.66 -2.2,0.69 -4.41,1.37 -6.61,2.06 -0.47,0.1 -0.94,0.19 -1.41,0.29 -0.44,0.07 -0.88,0.14 -1.31,0.21 -0.71,0.06 -1.41,0.12 -2.12,0.18 -0.37,0.06 -0.75,0.11 -1.12,0.17 -0.43,-0.02 -0.85,-0.03 -1.28,-0.05 -1.2,-0.02 -2.39,-0.03 -3.59,-0.05 -0.78,-0.07 -1.56,-0.14 -2.34,-0.21 -0.44,-0.08 -0.88,-0.17 -1.32,-0.25 -1.72,-0.42 -3.43,-0.84 -5.14,-1.26 -0.41,-0.18 -0.81,-0.37 -1.22,-0.55 -0.86,-0.36 -1.73,-0.72 -2.59,-1.07 -0.41,-0.18 -0.82,-0.37 -1.24,-0.55 -0.32,-0.19 -0.63,-0.38 -0.95,-0.56 -0.38,-0.21 -0.75,-0.41 -1.13,-0.62 -0.19,-0.13 -0.38,-0.25 -0.56,-0.38 -0.16,-0.09 -0.33,-0.19 -0.49,-0.28 -0.24,-0.16 -0.49,-0.32 -0.73,-0.48 0,0 0.03,0 0.03,0 -0.16,0 -0.28,-0.07 -0.36,-0.21 -0.36,-0.28 -0.72,-0.56 -1.08,-0.84 -1.85,-1.86 -3.69,-3.71 -5.54,-5.57 -0.27,-0.34 -0.53,-0.68 -0.8,-1.02 -0.48,-0.71 -0.95,-1.43 -1.43,-2.14 -0.22,-0.38 -0.44,-0.76 -0.66,-1.13 -0.53,-1.04 -1.06,-2.08 -1.59,-3.13 -0.48,-1.29 -0.95,-2.58 -1.43,-3.88 -0.31,-1.2 -0.61,-2.41 -0.92,-3.61 -0.06,-0.43 -0.13,-0.86 -0.19,-1.3 -0.09,-0.86 -0.18,-1.72 -0.26,-2.58 -0.01,-1.6 -0.03,-3.2 -0.04,-4.79 0.09,-1.21 0.18,-2.42 0.27,-3.63 0.08,-0.44 0.17,-0.87 0.25,-1.31 0.1,-0.47 0.2,-0.95 0.29,-1.42 0.1,-0.42 0.2,-0.83 0.31,-1.25 0.08,-0.31 0.16,-0.62 0.24,-0.93 0.34,-0.9 0.67,-1.81 1.01,-2.71 0.18,-0.52 0.37,-1.04 0.55,-1.56 0.73,-1.46 1.47,-2.93 2.2,-4.39 0.32,-0.54 0.65,-1.07 0.97,-1.61 0.24,-0.34 0.48,-0.7 0.71,-1.05 z"
   id="path12" />
	<path
   class="st5"
   d="m 839.08,381.39 c -0.9,-0.28 -1.8,-0.55 -2.69,-0.83 -0.55,-0.28 -1.09,-0.55 -1.64,-0.83 -0.36,-0.15 -0.72,-0.29 -1.08,-0.44 -0.37,-0.21 -0.74,-0.43 -1.11,-0.64 -0.36,-0.18 -0.71,-0.35 -1.07,-0.53 -0.33,-0.2 -0.65,-0.41 -0.98,-0.61 -1.32,-0.96 -2.63,-1.92 -3.95,-2.87 -0.32,-0.3 -0.64,-0.61 -0.97,-0.91 -0.23,-0.22 -0.45,-0.44 -0.68,-0.66 -0.5,-0.52 -1,-1.03 -1.5,-1.55 0,0 -0.09,-0.12 -0.09,-0.12 -0.28,-0.32 -0.56,-0.64 -0.85,-0.96 -0.28,-0.37 -0.56,-0.75 -0.84,-1.12 -0.25,-0.35 -0.5,-0.71 -0.75,-1.06 -0.12,-0.17 -0.24,-0.35 -0.37,-0.52 -0.24,-0.37 -0.47,-0.75 -0.71,-1.12 -0.31,-0.53 -0.62,-1.07 -0.92,-1.6 -0.36,-0.74 -0.72,-1.47 -1.08,-2.21 -0.21,-0.49 -0.42,-0.97 -0.64,-1.46 -0.5,-1.68 -1.01,-3.36 -1.51,-5.04 -0.06,-0.3 -0.11,-0.59 -0.17,-0.89 -0.12,-0.61 -0.24,-1.22 -0.36,-1.84 -0.07,-0.63 -0.14,-1.27 -0.2,-1.9 -0.02,-2.04 -0.04,-4.08 -0.06,-6.12 0.07,-0.43 0.14,-0.85 0.22,-1.28 0.12,-1.02 0.24,-2.03 0.36,-3.05 0.09,-0.48 0.17,-0.97 0.26,-1.45 0,0 0,0.01 0,0.01 0.32,-1.04 0.64,-2.07 0.96,-3.11 0.54,-1.33 1.07,-2.66 1.61,-3.99 0.16,-0.31 0.31,-0.61 0.47,-0.92 0.6,-1.1 1.19,-2.19 1.79,-3.29 0.12,-0.18 0.23,-0.35 0.35,-0.53 0.62,-0.9 1.24,-1.79 1.86,-2.69 0.14,-0.19 0.29,-0.38 0.43,-0.57 0.58,-0.7 1.16,-1.4 1.74,-2.1 1.14,-1.13 2.27,-2.25 3.41,-3.38 0.53,-0.46 1.06,-0.92 1.59,-1.38 0.01,-0.17 0.11,-0.25 0.28,-0.23 0,0 0.13,-0.09 0.13,-0.09 0.18,-0.13 0.36,-0.26 0.54,-0.4 0.39,-0.26 0.79,-0.53 1.18,-0.79 0.2,-0.13 0.39,-0.26 0.59,-0.4 0.35,-0.22 0.7,-0.45 1.06,-0.67 0.54,-0.33 1.08,-0.66 1.61,-0.99 4.07,-1.38 8.08,-3.07 12.25,-4.02 2.69,-0.61 5.66,-1.63 8.77,-0.09 -3.34,0.51 -6.37,0.88 -9.36,1.48 -0.77,0.16 -1.39,1.04 -2.09,1.59 0.67,1.59 1.45,3.14 1.95,4.78 0.24,0.79 -0.06,1.75 -0.11,2.63 -0.71,-0.56 -1.67,-0.97 -2.07,-1.7 -0.89,-1.64 -1.51,-3.44 -2.43,-5.64 -3.2,1.71 -6.23,3.33 -9.25,4.95 -0.14,0.37 -0.27,0.74 -0.41,1.12 1.54,1.25 3.14,2.43 4.56,3.81 0.43,0.42 0.34,1.37 0.48,2.08 -0.71,-0.15 -1.65,-0.07 -2.1,-0.5 -1.54,-1.5 -2.91,-3.18 -4.8,-5.3 -3.47,4.3 -6.49,8.03 -9.5,11.77 0.13,0.34 0.27,0.68 0.4,1.02 2.31,0.58 4.64,1.11 6.93,1.76 0.75,0.21 1.41,0.7 2.12,1.07 -0.71,0.44 -1.44,1.28 -2.12,1.23 -1.77,-0.12 -3.53,-0.58 -5.26,-1.02 -1,-0.25 -1.95,-0.71 -3.51,-1.3 -1.02,4.71 -1.96,9.02 -2.93,13.5 1.97,0.13 3.16,0.09 4.3,0.33 0.57,0.12 1.03,0.74 1.54,1.14 -0.53,0.4 -1.02,1.04 -1.61,1.15 -1.18,0.23 -2.42,0.19 -4.4,0.3 1.23,4.1 2.31,7.7 3.39,11.31 0.47,1.1 0.94,2.2 1.41,3.3 2.38,2.76 4.75,5.51 7.13,8.27 0.74,0.53 1.48,1.07 2.22,1.6 3.31,1.59 6.63,3.17 9.94,4.76 2.02,0.25 4.04,0.5 6.06,0.75 0.19,0 0.34,0.08 0.45,0.22 0.52,0.03 1.04,0.06 1.56,0.09 2.05,-0.13 4.1,-0.25 6.15,-0.38 1.26,-0.24 2.52,-0.49 3.78,-0.73 0.36,-0.13 0.72,-0.26 1.08,-0.38 0.66,-0.32 1.33,-0.64 1.99,-0.96 0.43,-0.04 0.85,-0.08 1.28,-0.12 0.53,-0.2 1.07,-0.39 1.6,-0.59 3.11,-1.98 6.21,-3.97 9.32,-5.95 0.19,-0.16 0.37,-0.33 0.56,-0.49 l 0.03,-0.03 c 0.17,-0.16 0.34,-0.33 0.52,-0.49 l 0.05,-0.04 c 0.17,-0.15 0.34,-0.31 0.5,-0.46 l 0.07,-0.07 c 0.7,-0.72 1.4,-1.45 2.1,-2.17 l 0.03,-0.04 c 0.17,-0.18 0.33,-0.36 0.5,-0.54 l 0.02,-0.02 c 0.17,-0.2 0.34,-0.39 0.51,-0.59 0.16,-0.19 0.32,-0.38 0.47,-0.57 0.18,-0.23 0.35,-0.47 0.53,-0.7 0.85,-1.36 1.93,-2.63 2.5,-4.1 1.18,-3.06 2.08,-6.22 3.09,-9.34 0.35,-0.63 0.7,-1.27 1.05,-1.9 0.26,-3.62 0.52,-7.25 0.81,-11.16 -2.65,0.32 -4.52,0.64 -6.39,0.7 -0.72,0.02 -1.46,-0.56 -2.19,-0.86 0.66,-0.47 1.27,-1.19 2,-1.35 1.81,-0.38 3.67,-0.51 6.33,-0.84 -1.98,-4.13 -3.72,-7.75 -5.46,-11.37 -0.69,-0.9 -1.38,-1.8 -2.06,-2.7 -2.89,-2.35 -5.78,-4.7 -8.67,-7.04 -0.11,-0.13 -0.23,-0.26 -0.34,-0.39 -0.13,0.48 -0.26,0.96 -0.4,1.45 -0.06,0.38 -0.11,0.75 -0.17,1.13 -0.28,1.13 -0.56,2.25 -0.85,3.38 -0.1,0.31 -0.2,0.62 -0.3,0.93 -0.36,-0.39 -1,-0.76 -1.04,-1.17 -0.09,-1.04 0.1,-2.11 0.17,-3.16 v -0.01 c 0.09,-1.11 0.17,-2.23 0.26,-3.34 -0.13,0.02 -0.2,-0.04 -0.22,-0.17 -0.22,-0.09 -0.44,-0.17 -0.66,-0.26 -0.7,-0.24 -1.4,-0.48 -2.09,-0.73 -0.33,-0.15 -0.66,-0.31 -1,-0.46 l -0.07,-0.02 c -1.18,-0.36 -2.34,-0.8 -3.53,-1.06 -1.41,-0.31 -1.52,-1.03 -0.87,-2.12 1.11,0.19 2.22,0.38 3.33,0.57 0.56,0.14 1.13,0.29 1.69,0.43 0.56,0.18 1.12,0.35 1.67,0.53 0.9,0.37 1.8,0.73 2.7,1.1 0.5,0.19 1.01,0.39 1.51,0.58 0.36,0.19 0.72,0.39 1.08,0.58 1.12,0.68 2.23,1.37 3.35,2.05 0.03,0.16 0.13,0.21 0.28,0.17 0.8,0.63 1.59,1.25 2.38,1.88 0.31,0.28 0.61,0.55 0.92,0.83 0.78,0.79 1.57,1.58 2.35,2.36 0.27,0.31 0.53,0.62 0.8,0.93 0.28,0.37 0.56,0.74 0.85,1.11 0.26,0.36 0.52,0.71 0.79,1.07 0.66,1.07 1.33,2.14 1.99,3.21 0.36,0.75 0.72,1.5 1.08,2.25 0.21,0.48 0.42,0.97 0.62,1.45 0.69,2.59 1.37,5.18 2.06,7.77 0.07,0.64 0.14,1.27 0.21,1.91 0.02,2.04 0.04,4.08 0.06,6.12 -0.09,0.98 -0.19,1.97 -0.28,2.95 -0.1,0.46 -0.2,0.91 -0.3,1.37 -0.07,0.27 -0.14,0.54 -0.21,0.81 -0.31,1.17 -0.62,2.35 -0.93,3.52 -0.19,0.62 -0.37,1.25 -0.56,1.87 -0.78,1.63 -1.56,3.27 -2.34,4.9 -0.33,0.55 -0.65,1.11 -0.98,1.66 -0.21,0.36 -0.42,0.72 -0.63,1.08 -0.13,0.19 -0.26,0.37 -0.38,0.56 -0.24,0.35 -0.48,0.71 -0.72,1.06 -2.39,2.56 -4.79,5.12 -7.18,7.68 -0.53,0.41 -1.05,0.83 -1.58,1.24 -0.18,0.13 -0.37,0.27 -0.55,0.4 -0.36,0.25 -0.72,0.5 -1.08,0.74 -0.17,0.12 -0.34,0.24 -0.51,0.36 -0.37,0.23 -0.75,0.46 -1.12,0.69 -0.55,0.31 -1.09,0.63 -1.64,0.94 -0.36,0.17 -0.72,0.35 -1.08,0.52 -0.84,0.41 -1.69,0.82 -2.53,1.22 -0.43,0.17 -0.86,0.35 -1.3,0.52 -1.18,0.39 -2.36,0.77 -3.54,1.15 -1.35,0.31 -2.7,0.62 -4.05,0.92 -0.46,0.06 -0.91,0.13 -1.37,0.19 -3.48,0.01 -6.96,0.01 -10.44,0.02 -1.17,-0.25 -2.34,-0.5 -3.51,-0.75 -0.54,-0.21 -1.09,-0.38 -1.63,-0.55 z"
   id="path14" />
	<path
   class="st6"
   d="m 844.86,313.21 c 0.69,-0.55 1.32,-1.43 2.09,-1.59 2.99,-0.6 6.02,-0.98 9.36,-1.48 -3.11,-1.54 -6.08,-0.52 -8.77,0.09 -4.17,0.95 -8.18,2.64 -12.25,4.02 6.34,-4.02 13.28,-5.6 20.73,-5.17 1.26,0.07 2.52,0.2 3.78,0.3 -0.64,1.09 -0.53,1.81 0.87,2.12 1.2,0.26 2.36,0.7 3.53,1.06 -1.94,-0.32 -3.87,-0.65 -6.13,-1.03 -0.25,1.98 -0.4,3.94 -0.8,5.85 -0.15,0.7 -0.91,1.28 -1.4,1.91 -0.33,-0.66 -0.91,-1.32 -0.93,-2 -0.05,-1.86 0.13,-3.73 0.24,-5.93 -3.67,0.15 -7.15,-0.04 -10.32,1.85 z"
   id="path16" />
	<path
   class="st7"
   d="m 656.91,318.09 c -0.97,-2.41 -2.72,0.11 -3.95,-0.62 2.78,-0.68 5.55,-1.35 8.33,-2.03 -0.08,2.25 1.72,1.27 2.75,1.59 -1.05,0.17 -2.1,0.33 -3.48,0.56 0.27,2.05 0.63,4.16 0.8,6.28 0.04,0.56 -0.47,1.16 -0.73,1.75 -0.48,-0.45 -1.25,-0.82 -1.37,-1.35 -0.47,-2 -0.72,-4.05 -1.06,-6.11 -0.39,-0.03 -0.84,-0.05 -1.29,-0.07 z"
   id="path18" />
	<path
   class="st8"
   d="m 764.87,311.03 c 0.22,0.56 0.28,1.39 0.68,1.64 0.79,0.48 1.78,0.62 2.69,0.91 -1.39,-0.1 -2.79,-0.19 -4.07,-0.28 -0.46,0.58 -0.88,1.1 -1.29,1.63 -0.11,-1.49 -0.85,-1.23 -1.73,-0.63 -0.66,-0.35 -1.33,-1 -1.99,-1 -1.71,0 -3.42,0.29 -5.13,0.46 2.74,-0.53 5.48,-1.07 8.37,-1.63 -0.16,-0.25 -0.45,-0.71 -0.73,-1.16 1.06,0.01 2.13,0.03 3.2,0.06 z"
   id="path20" />
	<path
   class="st9"
   d="m 570.74,375.4 c 0.35,0.66 0.69,1.32 1.04,1.98 -0.7,1.51 -1.41,3.01 -2.11,4.52 -0.72,-0.12 -1.45,-0.25 -2.17,-0.37 1.08,-2.05 2.16,-4.09 3.24,-6.13 z"
   id="path22" />
	<path
   class="st8"
   d="m 754.51,311.54 c -3.61,1.27 -7.23,2.53 -10.84,3.8 3.62,-1.27 7.23,-2.53 10.84,-3.8 z"
   id="path24" />
	<path
   class="st9"
   d="m 552.09,378.67 c -0.88,-0.19 -1.75,-0.39 -2.63,-0.58 0.86,-1.91 1.72,-3.82 2.58,-5.72 0.24,1.01 0.49,2.01 0.73,3.02 -0.23,1.09 -0.45,2.19 -0.68,3.28 z"
   id="path26" />
	<path
   class="st6"
   d="m 844.22,382.65 c 3.48,-0.01 6.96,-0.01 10.44,-0.02 -3.48,0.01 -6.96,0.01 -10.44,0.02 z"
   id="path28" />
	<path
   class="st8"
   d="m 795.94,337.68 c -1.23,-3.27 -2.46,-6.55 -3.68,-9.82 1.22,3.28 2.45,6.55 3.68,9.82 z"
   id="path30" />
	<path
   class="st6"
   d="m 889.26,338.24 c -0.69,-2.59 -1.37,-5.18 -2.06,-7.77 0.68,2.59 1.37,5.18 2.06,7.77 z"
   id="path32" />
	<path
   class="st8"
   d="m 764.95,384.08 c 2.2,-0.69 4.41,-1.37 6.61,-2.06 -2.21,0.69 -4.41,1.37 -6.61,2.06 z"
   id="path34" />
	<path
   class="st6"
   d="m 814.86,345.55 c 0.02,2.04 0.04,4.08 0.06,6.12 -0.02,-2.04 -0.04,-4.08 -0.06,-6.12 z"
   id="path36" />
	<path
   class="st6"
   d="m 889.52,346.26 c -0.02,-2.04 -0.04,-4.08 -0.06,-6.12 0.02,2.04 0.04,4.08 0.06,6.12 z"
   id="path38" />
	<path
   class="st9"
   d="m 553.28,321.65 c 0.54,-0.46 1.08,-0.92 1.62,-1.37 0.57,0.53 1.15,1.07 1.72,1.6 -0.43,0.45 -0.85,0.9 -1.28,1.34 -0.69,-0.53 -1.38,-1.05 -2.06,-1.57 z"
   id="path40" />
	<path
   class="st6"
   d="m 884.9,361.68 c 0.78,-1.63 1.56,-3.27 2.34,-4.9 -0.78,1.63 -1.56,3.26 -2.34,4.9 z"
   id="path42" />
	<path
   class="st6"
   d="m 815.66,356.3 c 0.5,1.68 1.01,3.36 1.51,5.04 -0.5,-1.68 -1.01,-3.36 -1.51,-5.04 z"
   id="path44" />
	<path
   class="st8"
   d="m 727.24,331.2 c -0.73,1.46 -1.47,2.93 -2.2,4.39 0.74,-1.46 1.47,-2.92 2.2,-4.39 z"
   id="path46" />
	<path
   class="st8"
   d="m 722.13,348.41 c 0.01,1.6 0.03,3.2 0.04,4.79 -0.01,-1.6 -0.03,-3.19 -0.04,-4.79 z"
   id="path48" />
	<path
   class="st8"
   d="m 754.12,384.83 c 1.2,0.02 2.39,0.03 3.59,0.05 -1.2,-0.02 -2.39,-0.04 -3.59,-0.05 z"
   id="path50" />
	<path
   class="st6"
   d="m 818.27,332.68 c -0.54,1.33 -1.07,2.66 -1.61,3.99 0.53,-1.33 1.07,-2.66 1.61,-3.99 z"
   id="path52" />
	<path
   class="st8"
   d="m 736.57,320.09 c -0.87,0.79 -1.74,1.58 -2.61,2.37 0.87,-0.79 1.74,-1.58 2.61,-2.37 z"
   id="path54" />
	<path
   class="st8"
   d="m 783.97,374.04 c 0.82,-0.85 1.64,-1.7 2.46,-2.54 -0.82,0.85 -1.64,1.7 -2.46,2.54 z"
   id="path56" />
	<path
   class="st6"
   d="m 856.03,382.44 c 1.35,-0.31 2.7,-0.62 4.05,-0.92 -1.35,0.3 -2.7,0.61 -4.05,0.92 z"
   id="path58" />
	<path
   class="st8"
   d="m 723.55,360.69 c 0.48,1.29 0.95,2.58 1.43,3.88 -0.48,-1.3 -0.96,-2.59 -1.43,-3.88 z"
   id="path60" />
	<path
   class="st6"
   d="m 820.53,328.46 c -0.6,1.1 -1.19,2.19 -1.79,3.29 0.6,-1.09 1.19,-2.19 1.79,-3.29 z"
   id="path62" />
	<path
   class="st6"
   d="m 887.79,354.91 c 0.31,-1.17 0.62,-2.35 0.93,-3.52 -0.31,1.17 -0.62,2.34 -0.93,3.52 z"
   id="path64" />
	<path
   class="st6"
   d="m 822.74,325.25 c -0.62,0.9 -1.24,1.79 -1.86,2.69 0.62,-0.9 1.24,-1.8 1.86,-2.69 z"
   id="path66" />
	<path
   class="st6"
   d="m 815.43,341.22 c -0.12,1.02 -0.24,2.03 -0.36,3.05 0.13,-1.02 0.24,-2.03 0.36,-3.05 z"
   id="path68" />
	<path
   class="st8"
   d="m 793.88,359.55 c 0.36,-0.93 0.72,-1.86 1.09,-2.78 -0.37,0.93 -0.73,1.86 -1.09,2.78 z"
   id="path70" />
	<path
   class="st8"
   d="m 758.33,310.99 c -0.97,0.12 -1.94,0.24 -2.91,0.36 0.97,-0.12 1.94,-0.24 2.91,-0.36 z"
   id="path72" />
	<path
   class="st8"
   d="m 724.49,337.16 c -0.34,0.9 -0.67,1.81 -1.01,2.71 0.34,-0.91 0.68,-1.81 1.01,-2.71 z"
   id="path74" />
	<path
   class="st6"
   d="m 824.91,322.57 c -0.58,0.7 -1.16,1.4 -1.74,2.1 0.58,-0.69 1.16,-1.39 1.74,-2.1 z"
   id="path76" />
	<path
   class="st6"
   d="m 869.19,312.02 c -0.9,-0.37 -1.8,-0.73 -2.7,-1.1 0.89,0.37 1.79,0.73 2.7,1.1 z"
   id="path78" />
	<path
   class="st8"
   d="m 796.51,340.96 c -0.13,-0.75 -0.26,-1.5 -0.39,-2.25 0.13,0.75 0.26,1.5 0.39,2.25 z"
   id="path80" />
	<path
   class="st8"
   d="m 774.82,313.08 c -0.74,-0.3 -1.48,-0.6 -2.22,-0.9 0.74,0.3 1.48,0.6 2.22,0.9 z"
   id="path82" />
	<path
   class="st6"
   d="m 886.57,329.02 c -0.36,-0.75 -0.72,-1.5 -1.08,-2.25 0.37,0.76 0.72,1.51 1.08,2.25 z"
   id="path84" />
	<path
   class="st6"
   d="m 817.81,362.8 c 0.36,0.74 0.72,1.47 1.08,2.21 -0.36,-0.74 -0.72,-1.48 -1.08,-2.21 z"
   id="path86" />
	<path
   class="st6"
   d="m 829.9,317.82 c -0.53,0.46 -1.06,0.92 -1.59,1.38 0.53,-0.46 1.06,-0.92 1.59,-1.38 z"
   id="path88" />
	<path
   class="st6"
   d="m 823.41,371.51 c 0.5,0.52 1,1.03 1.5,1.55 -0.5,-0.52 -1,-1.03 -1.5,-1.55 z"
   id="path90" />
	<path
   class="st6"
   d="m 873.42,374.96 c 0.53,-0.41 1.05,-0.83 1.58,-1.24 -0.53,0.41 -1.05,0.82 -1.58,1.24 z"
   id="path92" />
	<path
   class="st8"
   d="m 733.28,323.14 c -0.47,0.5 -0.94,1.01 -1.41,1.51 0.46,-0.5 0.94,-1 1.41,-1.51 z"
   id="path94" />
	<path
   class="st6"
   d="m 839.08,381.39 c 0.54,0.17 1.09,0.34 1.63,0.51 -0.54,-0.17 -1.09,-0.34 -1.63,-0.51 z"
   id="path96" />
	<path
   class="st6"
   d="m 815.13,353.57 c 0.12,0.61 0.24,1.23 0.36,1.84 -0.12,-0.61 -0.24,-1.23 -0.36,-1.84 z"
   id="path98" />
	<path
   class="st6"
   d="m 834.74,379.73 c 0.55,0.28 1.09,0.55 1.64,0.83 -0.54,-0.28 -1.09,-0.55 -1.64,-0.83 z"
   id="path100" />
	<path
   class="st6"
   d="m 864.81,310.39 c -0.56,-0.14 -1.13,-0.29 -1.69,-0.43 0.56,0.14 1.13,0.28 1.69,0.43 z"
   id="path102" />
	<path
   class="st9"
   d="m 561.44,309.4 c -0.17,-0.57 -0.34,-1.14 -0.52,-1.7 0.17,0.57 0.35,1.13 0.52,1.7 z"
   id="path104" />
	<path
   class="st6"
   d="m 832.03,316.31 c -0.39,0.26 -0.79,0.53 -1.18,0.79 0.4,-0.26 0.79,-0.52 1.18,-0.79 z"
   id="path106" />
	<path
   class="st8"
   d="m 780.7,315.88 c -0.37,-0.2 -0.74,-0.4 -1.11,-0.6 0.37,0.2 0.74,0.4 1.11,0.6 z"
   id="path108" />
	<path
   class="st6"
   d="m 871.79,376.1 c 0.36,-0.25 0.72,-0.5 1.08,-0.74 -0.36,0.25 -0.72,0.49 -1.08,0.74 z"
   id="path110" />
	<path
   class="st8"
   d="m 722.43,355.78 c 0.06,0.43 0.13,0.86 0.19,1.3 -0.06,-0.44 -0.12,-0.87 -0.19,-1.3 z"
   id="path112" />
	<path
   class="st6"
   d="m 883.28,364.41 c 0.21,-0.36 0.42,-0.72 0.63,-1.08 -0.2,0.37 -0.42,0.72 -0.63,1.08 z"
   id="path114" />
	<path
   class="st8"
   d="m 769.83,311.5 c -0.33,-0.06 -0.66,-0.11 -0.99,-0.17 0.33,0.06 0.66,0.12 0.99,0.17 z"
   id="path116" />
	<path
   class="st8"
   d="m 795.58,354.19 c 0.12,-0.38 0.24,-0.76 0.35,-1.14 -0.12,0.38 -0.23,0.76 -0.35,1.14 z"
   id="path118" />
	<path
   class="st8"
   d="m 796.26,351.07 c 0.08,-0.43 0.17,-0.86 0.25,-1.3 -0.09,0.43 -0.17,0.87 -0.25,1.3 z"
   id="path120" />
	<path
   class="st6"
   d="m 882.18,366.03 c 0.24,-0.35 0.48,-0.71 0.72,-1.06 -0.24,0.35 -0.48,0.71 -0.72,1.06 z"
   id="path122" />
	<path
   class="st6"
   d="m 833.67,315.24 c -0.35,0.22 -0.7,0.45 -1.06,0.67 0.36,-0.22 0.71,-0.44 1.06,-0.67 z"
   id="path124" />
	<path
   class="st6"
   d="m 871.78,313.18 c -0.36,-0.19 -0.72,-0.39 -1.08,-0.58 0.35,0.19 0.72,0.39 1.08,0.58 z"
   id="path126" />
	<path
   class="st6"
   d="m 819.81,366.61 c 0.24,0.37 0.48,0.75 0.71,1.12 -0.23,-0.37 -0.47,-0.75 -0.71,-1.12 z"
   id="path128" />
	<path
   class="st8"
   d="m 758.99,384.93 c 0.37,-0.06 0.75,-0.11 1.12,-0.17 -0.38,0.05 -0.75,0.11 -1.12,0.17 z"
   id="path130" />
	<path
   class="st6"
   d="m 888.94,350.58 c 0.1,-0.46 0.2,-0.91 0.3,-1.37 -0.1,0.46 -0.2,0.91 -0.3,1.37 z"
   id="path132" />
	<path
   class="st8"
   d="m 762.23,384.58 c 0.44,-0.07 0.88,-0.14 1.31,-0.21 -0.44,0.07 -0.87,0.14 -1.31,0.21 z"
   id="path134" />
	<path
   class="st8"
   d="m 726.57,367.69 c 0.22,0.38 0.44,0.76 0.66,1.13 -0.22,-0.37 -0.44,-0.75 -0.66,-1.13 z"
   id="path136" />
	<path
   class="st8"
   d="m 788.35,369.25 c 0.26,-0.34 0.52,-0.68 0.78,-1.02 -0.26,0.34 -0.52,0.68 -0.78,1.02 z"
   id="path138" />
	<path
   class="st6"
   d="m 820.89,368.25 c 0.25,0.35 0.5,0.71 0.75,1.06 -0.25,-0.35 -0.5,-0.71 -0.75,-1.06 z"
   id="path140" />
	<path
   class="st8"
   d="m 750.46,384.37 c 0.44,0.08 0.88,0.17 1.32,0.25 -0.44,-0.09 -0.88,-0.17 -1.32,-0.25 z"
   id="path142" />
	<path
   class="st8"
   d="m 742.04,316.26 c -0.38,0.23 -0.77,0.47 -1.15,0.7 0.38,-0.23 0.77,-0.46 1.15,-0.7 z"
   id="path144" />
	<path
   class="st8"
   d="m 744.09,382.56 c 0.41,0.18 0.81,0.37 1.22,0.55 -0.4,-0.18 -0.81,-0.36 -1.22,-0.55 z"
   id="path146" />
	<path
   class="st8"
   d="m 722.65,343.47 c -0.08,0.44 -0.17,0.88 -0.25,1.31 0.08,-0.44 0.16,-0.87 0.25,-1.31 z"
   id="path148" />
	<path
   class="st6"
   d="m 822.47,370.43 c 0.28,0.32 0.56,0.64 0.85,0.96 -0.28,-0.32 -0.56,-0.64 -0.85,-0.96 z"
   id="path150" />
	<path
   class="st8"
   d="m 723.25,340.8 c -0.1,0.42 -0.2,0.83 -0.31,1.25 0.1,-0.42 0.2,-0.83 0.31,-1.25 z"
   id="path152" />
	<path
   class="st8"
   d="m 740.4,317.28 c -0.37,0.26 -0.74,0.51 -1.1,0.77 0.37,-0.25 0.74,-0.51 1.1,-0.77 z"
   id="path154" />
	<path
   class="st6"
   d="m 878.72,318.11 c -0.31,-0.28 -0.61,-0.55 -0.92,-0.83 0.3,0.28 0.61,0.55 0.92,0.83 z"
   id="path156" />
	<path
   class="st8"
   d="m 728.66,370.97 c 0.27,0.34 0.53,0.68 0.8,1.02 -0.27,-0.35 -0.53,-0.68 -0.8,-1.02 z"
   id="path158" />
	<path
   class="st8"
   d="m 773.06,381.36 c 0.36,-0.17 0.72,-0.34 1.08,-0.51 -0.37,0.17 -0.72,0.34 -1.08,0.51 z"
   id="path160" />
	<path
   class="st8"
   d="m 778.65,314.69 c -0.41,-0.19 -0.82,-0.39 -1.24,-0.58 0.42,0.2 0.83,0.39 1.24,0.58 z"
   id="path162" />
	<path
   class="st8"
   d="m 728.91,328.54 c -0.23,0.35 -0.46,0.71 -0.7,1.06 0.23,-0.35 0.47,-0.71 0.7,-1.06 z"
   id="path164" />
	<path
   class="st6"
   d="m 825.59,373.72 c 0.32,0.3 0.64,0.61 0.97,0.91 -0.32,-0.3 -0.65,-0.61 -0.97,-0.91 z"
   id="path166" />
	<path
   class="st8"
   d="m 730.02,326.96 c -0.23,0.33 -0.46,0.67 -0.69,1 0.24,-0.34 0.46,-0.67 0.69,-1 z"
   id="path168" />
	<path
   class="st8"
   d="m 791.67,326.87 c -0.2,-0.31 -0.4,-0.63 -0.61,-0.94 0.21,0.31 0.41,0.63 0.61,0.94 z"
   id="path170" />
	<path
   class="st8"
   d="m 740.27,380.94 c 0.41,0.18 0.82,0.37 1.24,0.55 -0.42,-0.18 -0.83,-0.37 -1.24,-0.55 z"
   id="path172" />
	<path
   class="st8"
   d="m 738.76,318.45 c -0.34,0.25 -0.68,0.49 -1.02,0.74 0.33,-0.25 0.68,-0.5 1.02,-0.74 z"
   id="path174" />
	<path
   class="st6"
   d="m 883.5,323.57 c -0.26,-0.36 -0.52,-0.71 -0.79,-1.07 0.27,0.36 0.53,0.72 0.79,1.07 z"
   id="path176" />
	<path
   class="st6"
   d="m 870.16,377.16 c 0.37,-0.23 0.75,-0.46 1.12,-0.69 -0.38,0.22 -0.75,0.45 -1.12,0.69 z"
   id="path178" />
	<path
   class="st8"
   d="m 735,377.55 c 0.36,0.28 0.72,0.56 1.08,0.84 -0.37,-0.28 -0.72,-0.56 -1.08,-0.84 z"
   id="path180" />
	<path
   class="st6"
   d="m 863.61,380.36 c 0.43,-0.17 0.86,-0.35 1.3,-0.52 -0.43,0.18 -0.87,0.35 -1.3,0.52 z"
   id="path182" />
	<path
   class="st6"
   d="m 830.51,377.51 c 0.33,0.2 0.65,0.41 0.98,0.61 -0.33,-0.21 -0.66,-0.41 -0.98,-0.61 z"
   id="path184" />
	<path
   class="st6"
   d="m 881.87,321.4 c -0.27,-0.31 -0.53,-0.62 -0.8,-0.93 0.27,0.31 0.53,0.62 0.8,0.93 z"
   id="path186" />
	<path
   class="st6"
   d="m 867.44,378.62 c 0.36,-0.17 0.72,-0.35 1.08,-0.52 -0.36,0.17 -0.72,0.35 -1.08,0.52 z"
   id="path188" />
	<path
   class="st8"
   d="m 738.19,379.75 c 0.38,0.21 0.75,0.41 1.13,0.62 -0.38,-0.2 -0.76,-0.41 -1.13,-0.62 z"
   id="path190" />
	<path
   class="st8"
   d="m 776.86,379.36 c 0.37,-0.22 0.74,-0.45 1.1,-0.67 -0.36,0.22 -0.73,0.44 -1.1,0.67 z"
   id="path192" />
	<path
   class="st6"
   d="m 832.55,378.65 c 0.37,0.21 0.74,0.43 1.11,0.64 -0.36,-0.21 -0.74,-0.43 -1.11,-0.64 z"
   id="path194" />
	<path
   class="st8"
   d="m 737.13,379.09 c 0.16,0.09 0.33,0.19 0.49,0.28 -0.16,-0.09 -0.33,-0.19 -0.49,-0.28 z"
   id="path196" />
	<polygon
   class="st8"
   points="736.43,378.6 736.4,378.61 736.39,378.69 "
   id="polygon198" />
	<path
   class="st6"
   d="m 815.69,339.78 c 0,0 0,-0.01 0,-0.01 -0.05,-0.05 -0.1,-0.1 -0.14,-0.15 0.05,0.05 0.1,0.1 0.14,0.16 z"
   id="path200" />
	<polygon
   class="st6"
   points="830.31,317.5 830.18,317.59 830.18,317.41 "
   id="polygon202" />
	<path
   class="st6"
   d="m 875.41,315.41 c -0.16,0.04 -0.25,-0.02 -0.28,-0.17 0,0 0.21,-0.03 0.21,-0.03 z"
   id="path204" />
	<path
   class="st10"
   d="m 559.76,308.98 c -2.17,3.04 -4.03,5.94 -6.19,8.57 -1.6,1.95 -3.56,3.61 -5.43,5.33 -8.73,8.07 -17.52,16.07 -26.21,24.17 -7.23,6.74 -14.39,13.55 -21.48,20.43 -1.29,1.25 -2.1,3 -3.13,4.51 1.6,0.68 3.14,1.69 4.81,1.98 6.49,1.13 13,2.29 19.55,2.98 13.95,1.46 27.83,3.24 41.56,6.21 5.13,1.11 10.41,1.53 15.78,2.29 -1.26,5.23 -3.64,10.45 -6.65,15.4 -8.4,13.81 -20.42,22.73 -36.39,25.59 -13.82,2.48 -26.85,-0.56 -38.72,-7.9 -19.51,-12.08 -30.75,-29.91 -35.09,-52.22 -3.55,-18.19 -1.07,-35.5 8.78,-51.37 8.81,-14.19 21.56,-22.95 38.2,-25.02 15.04,-1.88 28.74,2.39 40.98,11.23 3.24,2.32 6.2,5.01 9.63,7.82 z m -38.83,15.43 c -0.47,-1.51 -0.81,-3.09 -1.44,-4.53 -3.12,-7.15 -9.54,-9.03 -16.43,-10 -0.81,-0.11 -1.73,0.33 -2.56,0.63 -7.01,2.59 -10.29,16.2 -6.61,22.36 1.68,2.81 3.54,5.22 6.78,6.27 9.05,2.95 19.86,-4.98 20.26,-14.73 z"
   id="path206" />
	<path
   class="st11"
   d="m 569.67,381.89 c 0.7,-1.51 1.41,-3.01 2.11,-4.52 2.06,-3.82 4.12,-7.64 6.18,-11.46 0.37,0.06 0.75,0.12 1.12,0.18 0.44,5.52 0.87,11.05 1.36,17.22 -4.1,-0.53 -7.44,-0.98 -10.77,-1.42 z"
   id="path208" />
	<path
   class="st12"
   d="m 552.09,378.67 c 0.23,-1.1 0.46,-2.19 0.69,-3.29 1.54,-3.82 3.08,-7.64 4.62,-11.47 0.21,-0.01 0.41,-0.02 0.62,-0.03 1.01,5.35 2.02,10.7 3.09,16.38 -3.27,-0.57 -6.15,-1.08 -9.02,-1.59 z"
   id="path210" />
	<path
   class="st12"
   d="m 532.21,375.78 c 2.2,-3.77 4.2,-7.21 6.56,-11.26 0.97,4.52 1.77,8.28 2.65,12.37 -3.13,-0.38 -5.92,-0.71 -9.21,-1.11 z"
   id="path212" />
	<path
   class="st13"
   d="m 556.62,321.87 c -0.57,-0.53 -1.15,-1.07 -1.72,-1.6 1.5,-1.99 3,-3.99 4.6,-6.12 1.26,4.77 2.45,9.3 3.64,13.82 -0.12,0.1 -0.24,0.21 -0.36,0.31 -2.06,-2.13 -4.11,-4.27 -6.16,-6.41 z"
   id="path214" />
	<path
   class="st12"
   d="m 548.56,325.74 c 1.13,4.52 2.12,8.5 3.23,12.94 -2.98,-3.14 -5.61,-5.92 -8.37,-8.84 1.42,-1.12 3.14,-2.5 5.14,-4.1 z"
   id="path216" />
	<path
   class="st13"
   d="m 538.37,348.74 c -2.89,-2.59 -5.15,-4.62 -7.51,-6.73 1.53,-1.44 2.87,-2.7 4.49,-4.22 1.01,3.66 1.9,6.89 3.02,10.95 z"
   id="path218" />
	<path
   class="st13"
   d="m 525.36,358 c -1.87,-1.93 -3.75,-3.86 -5.72,-5.9 0.92,-0.74 1.82,-1.46 2.94,-2.36 1.05,2.74 2.06,5.36 3.06,7.98 -0.09,0.09 -0.18,0.19 -0.28,0.28 z"
   id="path220" />
	<path
   class="st13"
   d="m 525.64,357.72 c 0.06,0.21 0.12,0.43 0.18,0.64 -0.15,-0.12 -0.3,-0.24 -0.46,-0.36 0.1,-0.09 0.19,-0.19 0.28,-0.28 z"
   id="path222" />
	<path
   class="st14"
   d="m 360.02,371.59 c 8.82,-0.46 17.68,-0.94 26.54,-1.37 6.23,-0.3 12.47,-0.5 18.69,-0.87 0.82,-0.05 1.59,-0.8 2.39,-1.22 -0.55,-0.93 -0.88,-2.19 -1.69,-2.74 -4.59,-3.14 -9.37,-6 -13.92,-9.2 -1.47,-1.04 -2.47,-2.78 -3.62,-4.25 -1.29,-1.66 -2.49,-3.37 -3.96,-5.37 20.11,3.52 40.13,7.02 60.15,10.52 0.18,0.3 0.37,0.59 0.55,0.89 -7.49,10.06 -14.73,20.26 -20.53,31.39 -5.82,11.17 -11.9,22.22 -17.86,33.32 -0.26,-0.08 -0.51,-0.17 -0.77,-0.25 0.2,-1.97 0.4,-3.93 0.59,-5.9 0.72,-7.12 1.42,-14.23 2.15,-21.35 0.26,-2.5 0.64,-4.98 0.83,-7.48 0.2,-2.7 -1.51,-3.92 -4.01,-2.84 -7.42,3.18 -15.17,5.05 -23.08,6.59 -5.57,1.09 -10.99,2.96 -16.46,4.53 -3.03,0.87 -6.02,1.86 -9.05,2.74 -1.79,0.52 -2.38,-0.46 -2.11,-2.05 0.9,-5.25 1.8,-10.5 2.84,-15.73 0.63,-3.08 1.51,-6.1 2.33,-9.36 z"
   id="path224" />
	<path
   class="st15"
   d="m 656.91,318.09 c 0.45,0.02 0.9,0.04 1.29,0.06 0.34,2.06 0.59,4.11 1.06,6.11 0.12,0.53 0.9,0.9 1.37,1.35 0.26,-0.58 0.77,-1.19 0.73,-1.75 -0.17,-2.12 -0.52,-4.23 -0.8,-6.28 1.39,-0.22 2.43,-0.39 3.48,-0.56 2.42,0.14 4.85,0.29 7.67,0.46 0,2.58 -0.05,4.92 0.04,7.25 0.02,0.61 0.49,1.2 0.75,1.8 0.45,-0.56 1.23,-1.1 1.28,-1.69 0.16,-2.16 0.06,-4.33 0.06,-7.18 3.84,1.75 7.37,3.35 10.99,5 -1.1,1.93 -2,3.35 -2.73,4.86 -0.2,0.42 0.14,1.09 0.23,1.65 0.53,-0.2 1.28,-0.25 1.56,-0.64 0.89,-1.23 1.6,-2.58 2.79,-4.57 2.91,3.66 5.55,6.98 8.41,10.57 -2.57,1.03 -4.51,1.73 -6.37,2.61 -0.5,0.24 -0.74,1.01 -1.11,1.53 0.62,0.15 1.33,0.58 1.85,0.41 1.97,-0.65 3.87,-1.5 6.3,-2.48 0.87,3.54 1.74,7.05 2.58,10.46 -3.33,0.82 -6.28,1.54 -9.22,2.26 0.06,0.36 0.13,0.72 0.19,1.09 2.92,1.8 5.8,-1.4 8.96,-0.46 -0.16,6.4 -1.5,12.46 -4.79,18.03 -2.48,-1.41 -4.93,-2.88 -7.47,-4.16 -0.51,-0.26 -1.37,0.19 -2.07,0.32 0.4,0.6 0.67,1.48 1.23,1.76 2.54,1.23 5.17,2.28 7.76,3.4 -3.06,4.64 -6.6,8.82 -11.31,11.94 -1.75,-2.85 -3.39,-5.65 -5.2,-8.32 -0.39,-0.57 -1.42,-0.71 -2.15,-1.05 0.06,0.74 -0.11,1.61 0.23,2.18 1.66,2.79 3.45,5.5 5.33,8.46 -3.99,2.16 -8.09,4.33 -12.93,4.46 -0.68,-3.13 -1.3,-6.27 -2.11,-9.36 -0.15,-0.59 -1.06,-0.99 -1.61,-1.47 -0.15,0.78 -0.57,1.62 -0.41,2.32 0.68,2.99 1.53,5.93 2.32,8.89 0,0 -0.01,0.01 -0.01,0.01 -0.55,0.18 -1.1,0.36 -1.66,0.53 -4.51,-0.74 -9.02,-1.47 -13.52,-2.21 1.05,-3.02 2.13,-6.03 3.09,-9.07 0.14,-0.43 -0.37,-1.06 -0.58,-1.6 -0.53,0.36 -1.4,0.63 -1.52,1.1 -0.81,3 -1.47,6.04 -2.17,9.07 -3.45,-2.38 -6.9,-4.76 -10.35,-7.14 1.21,-1.4 2.51,-2.74 3.59,-4.24 0.5,-0.69 0.57,-1.68 0.83,-2.53 -0.81,0.33 -1.78,0.48 -2.41,1.02 -1.3,1.1 -2.43,2.41 -3.63,3.63 -2.71,-2.99 -4.49,-6.46 -5.73,-10.59 1.48,-0.41 2.79,-0.68 4,-1.17 0.45,-0.18 0.66,-0.93 0.98,-1.41 -0.51,-0.23 -1.04,-0.7 -1.52,-0.65 -1.34,0.14 -2.66,0.49 -4.64,0.9 0,-4.66 0,-9.19 0,-13.96 1.12,0.12 2.17,0.25 3.22,0.35 1.08,0.1 2.26,0.49 3.21,0.18 1.4,-0.46 2.63,-1.42 3.93,-2.17 -1.28,-0.07 -2.56,-0.12 -3.83,-0.21 -1.96,-0.13 -3.91,-0.28 -6.66,-0.48 2.22,-4.97 4.21,-9.44 6.29,-14.11 2.41,1.37 4.31,2.55 6.31,3.53 0.57,0.28 1.42,-0.02 2.14,-0.06 -0.36,-0.63 -0.57,-1.47 -1.11,-1.84 -1.63,-1.13 -3.39,-2.08 -5.6,-3.41 2.75,-2.6 5.32,-5.02 8.02,-7.56 1.49,1.91 2.68,3.59 4.06,5.1 0.5,0.55 1.46,0.67 2.21,0.99 -0.18,-0.86 -0.13,-1.87 -0.57,-2.56 -0.97,-1.51 -2.19,-2.87 -3.54,-4.58 1.48,-0.91 2.77,-1.71 4.07,-2.51 0.56,-0.17 1.12,-0.33 1.68,-0.5 0.18,0.03 0.34,-0.01 0.48,-0.13 0.91,-0.33 1.82,-0.66 2.73,-0.99 z m 2.36,26.35 c -0.09,-0.09 -0.18,-0.17 -0.27,-0.26 0.42,-1.55 1.07,-3.09 1.21,-4.67 0.24,-2.85 -1.23,-3.83 -3.6,-2.22 -2.13,1.45 -3.92,3.44 -5.68,5.36 -0.39,0.43 0,1.58 0.04,2.4 2.44,-0.24 1.9,1.74 2.26,3.05 1.3,4.64 2.51,9.31 3.96,13.9 0.2,0.64 1.52,1 2.39,1.27 0.16,0.05 0.71,-0.93 0.97,-1.48 0.43,-0.93 0.67,-1.95 1.16,-2.84 1.24,-2.21 2.85,-4.24 3.82,-6.55 2.33,-5.59 -0.33,-8.86 -6.26,-7.96 z m 12.67,-7.37 c 2.12,-0.98 4.15,-1.74 5.98,-2.83 0.74,-0.45 1.06,-1.62 1.56,-2.46 -0.87,-0.02 -1.88,-0.33 -2.59,0 -2.13,0.99 -4.21,2.12 -6.18,3.39 -1.82,1.17 -3.55,2.52 -5.15,3.96 -0.4,0.36 -0.19,1.41 -0.26,2.15 0.63,-0.16 1.37,-0.18 1.88,-0.53 0.87,-0.59 1.59,-1.39 2.55,-2.26 0.88,2.13 1.59,3.8 -0.73,5.16 -0.53,0.31 -0.69,1.27 -1.01,1.93 0.7,-0.04 1.41,-0.04 2.11,-0.13 0.32,-0.04 0.62,-0.26 1.12,-0.48 1.12,3.84 2.15,7.57 3.33,11.24 0.22,0.7 1.01,1.21 1.54,1.81 0.32,-0.79 0.89,-1.58 0.91,-2.38 0.02,-0.86 -0.47,-1.73 -0.74,-2.59 -1,-3.16 -2.01,-6.32 -3.05,-9.61 2.39,-1.2 4.54,-2.17 6.56,-3.36 0.87,-0.52 1.48,-1.49 2.2,-2.26 -1.02,0.01 -2.16,-0.26 -3.05,0.09 -2.05,0.81 -3.97,1.93 -5.98,2.94 -0.34,-1.24 -0.61,-2.29 -1,-3.78 z"
   id="path226" />
	<path
   class="st16"
   d="m 665.09,387.36 c -0.79,-2.96 -1.64,-5.91 -2.32,-8.89 -0.16,-0.71 0.26,-1.54 0.41,-2.32 0.56,0.49 1.46,0.88 1.61,1.47 0.81,3.09 1.43,6.24 2.11,9.36 -0.6,0.12 -1.2,0.25 -1.81,0.38 z"
   id="path228" />
	<path
   class="st7"
   d="m 648.72,385.18 c 0.71,-3.03 1.36,-6.07 2.17,-9.07 0.13,-0.47 1,-0.74 1.52,-1.1 0.21,0.54 0.71,1.17 0.58,1.6 -0.96,3.05 -2.04,6.05 -3.09,9.07 -0.39,-0.16 -0.78,-0.33 -1.18,-0.5 z"
   id="path230" />
	<path
   class="st17"
   d="m 692.92,369.3 c -2.59,-1.12 -5.22,-2.17 -7.76,-3.4 -0.56,-0.27 -0.83,-1.15 -1.23,-1.76 0.7,-0.12 1.57,-0.57 2.07,-0.32 2.54,1.29 4.99,2.76 7.47,4.16 -0.18,0.45 -0.36,0.88 -0.55,1.32 z"
   id="path232" />
	<path
   class="st18"
   d="m 636.75,375.92 c 1.2,-1.22 2.32,-2.53 3.63,-3.63 0.64,-0.54 1.6,-0.69 2.41,-1.02 -0.26,0.85 -0.34,1.85 -0.83,2.53 -1.08,1.5 -2.38,2.84 -3.59,4.24 -0.54,-0.7 -1.08,-1.41 -1.62,-2.12 z"
   id="path234" />
	<path
   class="st7"
   d="m 656.9,318.09 c -0.91,0.33 -1.82,0.66 -2.73,0.99 0.91,-0.33 1.82,-0.66 2.73,-0.99 z"
   id="path236" />
	<path
   class="st7"
   d="m 653.68,319.21 c -0.56,0.17 -1.12,0.33 -1.68,0.5 0.57,-0.17 1.13,-0.34 1.68,-0.5 z"
   id="path238" />
	<path
   class="st16"
   d="m 663.43,387.9 c 0.55,-0.18 1.1,-0.36 1.66,-0.53 -0.56,0.17 -1.11,0.35 -1.66,0.53 z"
   id="path240" />
	<path
   class="st19"
   d="m 903.88,356.49 c 0.7,-5.77 1.32,-10.93 2.04,-16.81 4.04,0 8.71,-0.09 13.38,0.02 6.97,0.17 13.94,0.49 20.92,0.71 1.71,0.05 2.21,-0.51 1.42,-2.34 -3.87,-9.01 -7.59,-18.09 -11.34,-27.16 -0.16,-0.38 -0.09,-0.85 -0.17,-1.83 3.45,2.89 6.81,5.17 9.5,8.08 8.59,9.28 18.81,16.59 28.61,24.43 6.91,5.53 6.67,5.4 -0.43,10.67 -10.5,7.78 -20.73,15.92 -31.08,23.91 -0.27,0.2 -0.53,0.41 -1.23,0.37 1.33,-2.89 2.96,-5.68 3.92,-8.69 1.65,-5.14 2.94,-10.41 4.19,-15.66 0.09,-0.38 -1.37,-1.64 -2.05,-1.6 -5.77,0.34 -11.58,0.56 -17.28,1.46 -5.25,0.83 -10.36,2.48 -15.55,3.7 -1.45,0.33 -2.96,0.45 -4.85,0.74 z"
   id="path242" />
	<path
   class="st20"
   d="m 754.02,313.74 c 1.71,-0.17 3.42,-0.46 5.13,-0.46 0.66,0 1.33,0.65 1.99,1 0,0 -0.01,0.05 -0.01,0.05 -0.11,1.86 -0.3,3.72 -0.27,5.58 0.01,0.41 0.81,0.8 1.24,1.2 0.2,-0.46 0.4,-0.91 0.61,-1.37 0.05,-1.61 0.11,-3.22 0.16,-4.83 0.42,-0.52 0.83,-1.04 1.29,-1.63 1.29,0.09 2.68,0.19 4.07,0.28 0.35,0.05 0.7,0.09 1.05,0.14 0.88,0.21 1.77,0.43 2.65,0.64 0.27,0.13 0.54,0.25 0.8,0.38 0.46,0.23 0.93,0.47 1.39,0.7 0.01,0.18 0.06,0.34 0.13,0.5 -0.3,1.81 -0.61,3.62 -0.91,5.44 -0.05,0.19 -0.1,0.37 -0.15,0.56 0.1,0.82 0.2,1.65 0.29,2.47 0.54,-0.67 1.08,-1.34 1.62,-2.01 0,0 0.05,-0.15 0.05,-0.15 0.31,-1.76 0.63,-3.51 0.94,-5.27 0.17,-0.19 0.34,-0.39 0.51,-0.58 0.28,0.1 0.57,0.2 0.85,0.3 2.2,1.55 4.39,3.1 6.59,4.65 0.36,0.35 0.71,0.69 1.07,1.04 0,0 0.05,0.05 0.05,0.05 -0.47,1.04 -0.96,2.08 -1.41,3.13 -0.49,1.13 -0.96,2.27 -1.44,3.41 1.08,-0.56 2.18,-1.08 3.22,-1.69 0.81,-0.48 1.55,-1.08 2.32,-1.62 0,0 0.05,0.05 0.05,0.05 0.16,0.18 0.31,0.37 0.47,0.55 1.69,3.35 3.38,6.71 5.32,10.55 -2.37,0.4 -3.97,0.55 -5.5,0.98 -0.91,0.26 -1.7,0.96 -2.55,1.46 0.91,0.26 1.83,0.77 2.72,0.73 1.7,-0.08 3.39,-0.47 5.52,-0.8 0,3.67 0,7.12 0,10.64 -2.35,0 -4.51,-0.11 -6.65,0.06 -0.8,0.06 -1.54,0.79 -2.31,1.22 0.83,0.38 1.63,1.03 2.49,1.1 1.93,0.17 3.88,0.05 6.19,0.05 -1.54,6.65 -4.17,12.2 -8.47,16.93 -2.21,-1.96 -4.39,-3.97 -6.67,-5.85 -0.34,-0.28 -1.13,-0.02 -1.71,-0.01 0.1,0.63 -0.04,1.59 0.32,1.85 2.39,1.71 4.89,3.28 7.36,4.89 -0.14,0.24 -0.28,0.49 -0.42,0.73 -0.28,0.27 -0.56,0.54 -0.84,0.8 -3.3,2.34 -6.58,4.72 -9.93,6.98 -0.79,0.53 -1.85,0.65 -2.79,0.95 -1.04,-3.23 -2.04,-6.48 -3.19,-9.66 -0.16,-0.43 -1.12,-0.58 -1.71,-0.85 -0.15,0.63 -0.6,1.38 -0.41,1.88 1.14,2.99 2.42,5.92 3.65,8.87 -0.21,0.36 -0.42,0.71 -0.63,1.07 -0.68,0.2 -1.36,0.41 -2.03,0.61 -0.77,0.18 -1.54,0.36 -2.31,0.54 -1.09,0.17 -2.18,0.33 -3.27,0.5 -1.65,0 -3.3,0 -4.95,0 -0.1,-3.06 -0.09,-6.14 -0.36,-9.19 -0.07,-0.84 -0.98,-1.61 -1.51,-2.41 -0.29,0.85 -0.83,1.7 -0.82,2.55 0.04,2.83 0.28,5.66 0.44,8.57 -1.45,0 -2.52,0 -3.59,0 -0.81,-0.19 -1.62,-0.38 -2.43,-0.57 -0.5,-0.21 -1,-0.41 -1.5,-0.62 0,0 0.01,0.01 0.01,0.01 -0.17,-0.07 -0.33,-0.14 -0.5,-0.21 -1.87,-0.83 -3.74,-1.66 -5.61,-2.48 -0.16,-0.17 -0.32,-0.35 -0.48,-0.52 0,0 -0.02,-0.02 -0.02,-0.02 1.35,-2.45 2.78,-4.86 4.01,-7.37 0.38,-0.77 0.26,-1.79 0.37,-2.7 -0.83,0.49 -1.8,0.85 -2.44,1.51 -0.74,0.76 -1.23,1.79 -1.76,2.74 -0.81,1.45 -1.56,2.93 -2.33,4.4 -2.24,-2.36 -4.53,-4.68 -6.69,-7.11 -0.55,-0.62 -0.69,-1.59 -1.02,-2.41 1.68,-1.04 3.39,-2.03 5,-3.17 0.38,-0.27 0.38,-1.07 0.56,-1.62 -0.64,-0.03 -1.44,-0.33 -1.9,-0.05 -1.62,0.98 -3.12,2.16 -4.67,3.26 -0.54,-0.82 -1.3,-1.58 -1.58,-2.49 -0.87,-2.81 -1.55,-5.68 -2.41,-8.9 1.75,-0.13 2.93,-0.09 4.03,-0.34 0.58,-0.13 1.05,-0.79 1.57,-1.2 -0.52,-0.38 -1.01,-0.99 -1.57,-1.08 -1.15,-0.17 -2.33,-0.05 -4.31,-0.05 0.79,-4.61 1.53,-8.97 2.36,-13.8 1.96,0.72 3.24,1.37 4.61,1.63 1.57,0.3 3.22,0.36 4.82,0.27 0.5,-0.03 0.97,-0.84 1.45,-1.3 -0.55,-0.32 -1.07,-0.82 -1.67,-0.94 -2.5,-0.52 -5.02,-0.92 -7.53,-1.36 -0.13,-0.36 -0.26,-0.72 -0.4,-1.08 2.87,-3.85 5.74,-7.71 8.73,-11.74 1.94,1.77 3.26,3.14 4.77,4.28 0.67,0.51 1.71,0.54 2.57,0.8 -0.3,-0.82 -0.41,-1.82 -0.95,-2.43 -1.18,-1.34 -2.57,-2.48 -4.31,-4.11 3.25,-1.99 6.13,-3.75 9.25,-5.65 1.1,2.19 1.92,4.08 2.98,5.82 0.38,0.62 1.32,0.89 2.01,1.32 0.04,-0.8 0.34,-1.7 0.08,-2.39 -0.66,-1.75 -1.56,-3.4 -2.46,-5.3 1.43,-0.52 2.53,-0.9 3.62,-1.28 z m 2.62,24.99 c 0.75,-1.57 1.65,-2.96 2.09,-4.48 0.7,-2.39 -0.51,-3.71 -2.84,-2.9 -2.18,0.76 -4.24,2.01 -6.15,3.34 -1.36,0.94 -3.05,2.3 -0.23,3.76 0.33,0.17 0.48,0.94 0.51,1.45 0.3,5.21 0.49,10.43 0.91,15.63 0.06,0.71 1.09,1.46 1.84,1.93 0.18,0.11 1.08,-0.74 1.52,-1.26 0.67,-0.8 1.17,-1.76 1.85,-2.55 1.81,-2.13 4,-4.01 5.46,-6.36 2.65,-4.26 0.96,-7.53 -3.93,-8.3 -0.33,-0.06 -0.65,-0.17 -1.03,-0.26 z m 14.5,-0.53 c -0.77,-3.5 -0.78,-3.52 2.41,-4.39 1.22,-0.33 2.55,-0.35 3.67,-0.87 0.76,-0.35 1.24,-1.32 1.84,-2.01 -0.84,-0.24 -1.78,-0.86 -2.49,-0.66 -3.23,0.89 -6.42,1.94 -9.56,3.1 -1.25,0.46 -2.41,1.25 -3.48,2.08 -0.34,0.26 -0.21,1.11 -0.3,1.69 0.57,0.07 1.21,0.34 1.69,0.16 1.03,-0.39 1.98,-1.01 3.08,-1.61 0.58,2.24 0.51,3.74 -1.65,4.55 -0.58,0.22 -0.91,1.12 -1.35,1.71 0.71,0.12 1.41,0.27 2.12,0.37 0.31,0.04 0.64,0.01 0.99,0.01 0.34,3.72 0.59,7.24 1.02,10.73 0.12,0.98 0.77,1.89 1.17,2.84 0.45,-1.02 1.3,-2.04 1.27,-3.05 -0.1,-3.25 -0.48,-6.5 -0.83,-9.74 -0.17,-1.53 0.36,-2.38 1.9,-2.7 1.86,-0.39 3.74,-0.78 5.53,-1.41 0.78,-0.27 1.35,-1.14 2.02,-1.74 -0.83,-0.23 -1.72,-0.77 -2.49,-0.64 -2.2,0.38 -4.37,1.03 -6.56,1.58 z"
   id="path244" />
	<path
   class="st7"
   d="m 749.77,381.98 c 1.07,0 2.14,0 3.59,0 -0.17,-2.9 -0.4,-5.73 -0.44,-8.57 -0.01,-0.85 0.53,-1.7 0.82,-2.55 0.52,0.8 1.43,1.57 1.51,2.41 0.27,3.05 0.27,6.12 0.36,9.19 -1.93,0 -3.86,0 -5.79,-0.01 -0.08,0 -0.15,-0.06 -0.23,-0.09 0.05,-0.12 0.11,-0.25 0.18,-0.38 z"
   id="path246" />
	<path
   class="st18"
   d="m 768.81,379.73 c -1.23,-2.95 -2.52,-5.88 -3.65,-8.87 -0.19,-0.5 0.26,-1.25 0.41,-1.88 0.59,0.28 1.55,0.42 1.71,0.85 1.15,3.19 2.14,6.43 3.19,9.66 0.09,0.25 0.17,0.49 0.26,0.74 -0.65,-0.16 -1.29,-0.33 -1.92,-0.5 z"
   id="path248" />
	<path
   class="st21"
   d="m 737.08,376.14 c 0.77,-1.47 1.52,-2.95 2.33,-4.4 0.53,-0.95 1.02,-1.97 1.76,-2.74 0.65,-0.67 1.62,-1.02 2.44,-1.51 -0.11,0.91 0.02,1.93 -0.37,2.7 -1.24,2.5 -2.66,4.92 -4.01,7.37 -0.71,-0.47 -1.43,-0.95 -2.15,-1.42 z"
   id="path250" />
	<path
   class="st18"
   d="m 784.44,370.03 c -2.47,-1.61 -4.97,-3.18 -7.36,-4.89 -0.36,-0.26 -0.23,-1.22 -0.32,-1.85 0.58,-0.01 1.37,-0.27 1.71,0.01 2.28,1.89 4.46,3.89 6.67,5.85 -0.24,0.3 -0.47,0.59 -0.7,0.88 z"
   id="path252" />
	<path
   class="st21"
   d="m 728.37,365.03 c 1.55,-1.1 3.05,-2.28 4.67,-3.26 0.45,-0.28 1.25,0.02 1.9,0.05 -0.18,0.55 -0.18,1.35 -0.56,1.62 -1.61,1.14 -3.32,2.13 -5,3.17 -0.34,-0.52 -0.67,-1.05 -1.01,-1.58 z"
   id="path254" />
	<path
   class="st21"
   d="m 787.86,325.64 c -0.77,0.55 -1.51,1.15 -2.32,1.62 -1.04,0.62 -2.14,1.13 -3.22,1.69 0.48,-1.14 0.95,-2.28 1.44,-3.41 0.46,-1.05 0.94,-2.09 1.41,-3.13 0.89,1.09 1.79,2.16 2.69,3.23 z"
   id="path256" />
	<path
   class="st21"
   d="m 775.12,322.4 c -0.54,0.67 -1.08,1.34 -1.62,2.01 -0.1,-0.82 -0.2,-1.65 -0.29,-2.47 0.63,0.15 1.27,0.3 1.91,0.46 z"
   id="path258" />
	<path
   class="st21"
   d="m 773.35,321.38 c 0.3,-1.81 0.61,-3.62 0.91,-5.44 -0.3,1.81 -0.6,3.63 -0.91,5.44 z"
   id="path260" />
	<path
   class="st21"
   d="m 776.11,316.97 c -0.31,1.76 -0.62,3.51 -0.94,5.27 0.32,-1.75 0.63,-3.51 0.94,-5.27 z"
   id="path262" />
	<path
   class="st7"
   d="m 760.55,382.46 c 1.09,-0.17 2.18,-0.33 3.27,-0.5 0.33,0 0.67,0 1,0 0.01,0.17 0.02,0.33 0.04,0.5 -1.44,0 -2.87,0 -4.31,0 z"
   id="path264" />
	<path
   class="st21"
   d="m 771.94,314.36 c -0.88,-0.21 -1.77,-0.43 -2.65,-0.64 0.89,0.21 1.77,0.42 2.65,0.64 z"
   id="path266" />
	<path
   class="st18"
   d="m 783.18,371.57 c 0.28,-0.27 0.56,-0.54 0.84,-0.8 -0.28,0.26 -0.56,0.53 -0.84,0.8 z"
   id="path268" />
	<path
   class="st18"
   d="m 766.14,381.41 c 0.68,-0.2 1.36,-0.41 2.03,-0.61 -0.67,0.21 -1.35,0.41 -2.03,0.61 z"
   id="path270" />
	<path
   class="st21"
   d="m 785.12,322.38 c -0.36,-0.35 -0.71,-0.69 -1.07,-1.04 0.36,0.35 0.72,0.69 1.07,1.04 z"
   id="path272" />
	<path
   class="st7"
   d="m 745.83,380.79 c 0.5,0.21 1,0.41 1.5,0.62 -0.5,-0.21 -1,-0.41 -1.5,-0.62 z"
   id="path274" />
	<path
   class="st21"
   d="m 777.47,316.69 c -0.28,-0.1 -0.57,-0.2 -0.85,-0.3 0.28,0.1 0.57,0.2 0.85,0.3 z"
   id="path276" />
	<path
   class="st21"
   d="m 774.14,315.44 c -0.46,-0.23 -0.93,-0.47 -1.39,-0.7 0.46,0.23 0.92,0.47 1.39,0.7 z"
   id="path278" />
	<path
   class="st21"
   d="m 739.26,377.58 c 0.16,0.17 0.32,0.35 0.48,0.52 -0.16,-0.17 -0.32,-0.35 -0.48,-0.52 z"
   id="path280" />
	<path
   class="st7"
   d="m 745.35,380.58 c 0.17,0.07 0.33,0.14 0.5,0.21 -0.17,-0.07 -0.33,-0.14 -0.5,-0.21 z"
   id="path282" />
	<path
   class="st21"
   d="m 788.38,326.24 c -0.16,-0.18 -0.31,-0.37 -0.47,-0.55 0.16,0.18 0.31,0.37 0.47,0.55 z"
   id="path284" />
	<path
   class="st22"
   d="m 844.86,313.21 c 3.17,-1.89 6.65,-1.7 10.32,-1.85 -0.11,2.21 -0.29,4.07 -0.24,5.93 0.02,0.67 0.6,1.33 0.93,2 0.48,-0.63 1.25,-1.21 1.4,-1.91 0.41,-1.91 0.55,-3.87 0.8,-5.85 2.26,0.38 4.2,0.7 6.13,1.03 0,0 0.07,0.02 0.07,0.02 0.33,0.15 0.66,0.31 1,0.46 0.7,0.24 1.4,0.48 2.09,0.73 0.22,0.09 0.44,0.17 0.66,0.26 0.02,0.13 0.09,0.18 0.22,0.17 -0.09,1.11 -0.17,2.23 -0.25,3.34 0,0 0,0.01 0,0.01 -0.41,1.28 -0.91,2.54 -1.17,3.85 -0.11,0.57 0.29,1.23 0.45,1.85 0.53,-0.46 1.05,-0.91 1.58,-1.37 0.1,-0.31 0.2,-0.62 0.3,-0.93 0.28,-1.13 0.56,-2.25 0.85,-3.38 0.06,-0.38 0.11,-0.75 0.17,-1.13 0.25,-0.35 0.49,-0.7 0.74,-1.05 2.89,2.35 5.78,4.7 8.67,7.04 -1.41,1.74 -2.81,3.48 -4.22,5.23 0.22,0.31 0.43,0.61 0.65,0.92 0.83,-0.38 1.71,-0.67 2.47,-1.15 1.1,-0.69 2.12,-1.52 3.17,-2.3 1.74,3.62 3.48,7.24 5.46,11.37 -2.67,0.33 -4.53,0.45 -6.33,0.84 -0.73,0.16 -1.34,0.88 -2,1.35 0.73,0.31 1.47,0.89 2.19,0.86 1.87,-0.06 3.73,-0.39 6.39,-0.7 -0.28,3.91 -0.55,7.53 -0.81,11.16 -2.42,-0.27 -4.83,-0.62 -7.26,-0.74 -0.59,-0.03 -1.22,0.71 -1.83,1.1 0.59,0.44 1.15,1.19 1.78,1.26 2.07,0.23 4.17,0.21 6.25,0.29 -1.01,3.12 -1.91,6.28 -3.09,9.34 -0.57,1.47 -1.65,2.74 -2.5,4.1 -0.18,0.23 -0.35,0.47 -0.53,0.7 -0.16,0.19 -0.32,0.38 -0.47,0.57 -0.17,0.2 -0.34,0.39 -0.51,0.59 0,0 -0.02,0.02 -0.02,0.02 -0.17,0.18 -0.33,0.36 -0.5,0.54 0,0 -0.03,0.04 -0.03,0.04 -0.53,-0.22 -1.16,-0.32 -1.59,-0.67 -1.67,-1.38 -3.2,-2.94 -4.93,-4.23 -0.64,-0.48 -1.69,-0.42 -2.56,-0.6 0.29,0.83 0.34,1.9 0.91,2.43 1.93,1.85 4.03,3.51 6.07,5.24 0,0 -0.07,0.07 -0.07,0.07 -0.17,0.15 -0.34,0.31 -0.5,0.46 0,0 -0.05,0.04 -0.05,0.04 -0.17,0.16 -0.34,0.33 -0.52,0.49 0,0 -0.03,0.03 -0.03,0.03 -0.19,0.16 -0.37,0.33 -0.56,0.49 -3.11,1.98 -6.21,3.97 -9.32,5.95 -0.53,0.2 -1.07,0.39 -1.6,0.59 -0.43,0.04 -0.85,0.08 -1.28,0.12 -0.81,-3.04 -1.54,-6.11 -2.47,-9.11 -0.22,-0.7 -1.12,-1.18 -1.7,-1.76 -0.22,0.84 -0.77,1.76 -0.59,2.5 0.8,3.14 1.83,6.23 2.77,9.34 -0.36,0.13 -0.72,0.26 -1.08,0.38 -1.26,0.24 -2.52,0.49 -3.78,0.73 -2.05,0.13 -4.1,0.25 -6.15,0.38 -0.52,-0.03 -1.04,-0.06 -1.56,-0.09 -0.11,-0.15 -0.26,-0.22 -0.45,-0.22 0.06,-2.97 0.25,-5.94 0.12,-8.89 -0.04,-0.94 -0.91,-1.84 -1.41,-2.76 -0.34,0.92 -0.93,1.82 -0.97,2.75 -0.13,2.74 -0.05,5.5 -0.05,8.47 -1.46,-0.12 -2.61,-0.22 -3.75,-0.32 -3.31,-1.59 -6.63,-3.17 -9.94,-4.76 1.48,-2.48 3.02,-4.93 4.39,-7.47 0.36,-0.67 0.2,-1.63 0.28,-2.45 -0.73,0.34 -1.68,0.49 -2.14,1.05 -1.03,1.25 -1.82,2.7 -2.7,4.07 -0.69,1.06 -1.37,2.13 -2.05,3.2 -2.38,-2.76 -4.75,-5.51 -7.13,-8.27 0.44,-0.68 0.75,-1.51 1.35,-2 1.04,-0.85 2.35,-1.38 3.38,-2.25 0.52,-0.43 0.66,-1.31 0.98,-1.98 -0.72,0.03 -1.55,-0.17 -2.15,0.12 -1.7,0.83 -3.31,1.86 -4.96,2.8 -1.08,-3.6 -2.16,-7.21 -3.39,-11.31 1.98,-0.11 3.22,-0.06 4.4,-0.3 0.59,-0.12 1.08,-0.75 1.61,-1.15 -0.51,-0.4 -0.97,-1.02 -1.54,-1.14 -1.13,-0.24 -2.32,-0.2 -4.3,-0.33 0.97,-4.48 1.91,-8.79 2.93,-13.5 1.56,0.59 2.51,1.05 3.51,1.3 1.73,0.43 3.49,0.89 5.26,1.02 0.67,0.05 1.41,-0.8 2.12,-1.23 -0.7,-0.36 -1.37,-0.86 -2.12,-1.07 -2.29,-0.64 -4.62,-1.18 -6.93,-1.76 -0.13,-0.34 -0.27,-0.68 -0.4,-1.02 3.02,-3.73 6.03,-7.47 9.5,-11.77 1.89,2.12 3.26,3.8 4.8,5.3 0.44,0.43 1.38,0.35 2.1,0.5 -0.15,-0.71 -0.05,-1.66 -0.48,-2.08 -1.42,-1.37 -3.03,-2.55 -4.56,-3.81 0.14,-0.37 0.27,-0.74 0.41,-1.12 3.03,-1.62 6.05,-3.24 9.25,-4.95 0.92,2.2 1.54,4 2.43,5.64 0.39,0.73 1.36,1.14 2.07,1.7 0.05,-0.88 0.35,-1.84 0.11,-2.63 -0.51,-1.63 -1.3,-3.18 -1.97,-4.77 z m 5.16,23.14 c 0.55,-0.98 1.55,-2.3 2.08,-3.8 0.92,-2.63 -0.32,-3.98 -3.01,-3.1 -2.2,0.73 -4.27,1.95 -6.24,3.19 -1.39,0.87 -2.5,2.12 -0.23,3.48 0.34,0.2 0.51,0.93 0.52,1.42 0.09,5.23 0.07,10.46 0.27,15.68 0.03,0.74 0.98,1.54 1.68,2.07 0.16,0.13 1.15,-0.63 1.6,-1.12 0.71,-0.77 1.22,-1.73 1.94,-2.48 1.7,-1.76 3.6,-3.34 5.18,-5.19 1.73,-2.03 2.8,-4.69 1.31,-7.02 -0.95,-1.46 -3.25,-2.05 -5.1,-3.13 z m 11.58,4.55 c 0,3.74 -0.08,7.26 0.05,10.77 0.04,0.97 0.73,1.92 1.11,2.88 0.48,-0.92 1.36,-1.84 1.37,-2.76 0.04,-3.07 -0.13,-6.16 -0.43,-9.22 -0.22,-2.3 0.69,-3.32 2.9,-3.59 1.79,-0.22 3.59,-0.56 5.33,-1.06 0.61,-0.18 1.03,-1.01 1.53,-1.54 -0.65,-0.3 -1.35,-0.93 -1.95,-0.85 -2.41,0.34 -4.78,0.9 -7.17,1.38 -0.92,-2.6 -0.14,-4.02 2.61,-4.3 1.34,-0.13 2.75,-0.26 3.96,-0.76 0.71,-0.3 1.12,-1.34 1.66,-2.04 -0.79,-0.22 -1.65,-0.75 -2.36,-0.59 -2.83,0.61 -5.64,1.35 -8.41,2.22 -1.54,0.48 -3.05,1.18 -4.44,2.01 -0.51,0.31 -0.62,1.29 -0.91,1.97 0.71,0.04 1.47,0.26 2.12,0.08 0.9,-0.25 1.73,-0.8 2.73,-1.29 0.53,2.32 0.38,3.88 -1.97,4.58 -0.59,0.18 -0.95,1.1 -1.41,1.67 0.71,0.15 1.42,0.3 2.14,0.43 0.29,0.04 0.55,0.01 1.54,0.01 z"
   id="path286" />
	<path
   class="st18"
   d="m 859.82,379.17 c -0.94,-3.11 -1.97,-6.19 -2.77,-9.34 -0.19,-0.73 0.37,-1.66 0.59,-2.5 0.59,0.58 1.49,1.06 1.7,1.76 0.93,3 1.67,6.07 2.47,9.11 -0.66,0.33 -1.33,0.65 -1.99,0.97 z"
   id="path288" />
	<path
   class="st21"
   d="m 875.75,369.95 c -2.04,-1.73 -4.14,-3.39 -6.07,-5.24 -0.56,-0.54 -0.62,-1.61 -0.91,-2.43 0.86,0.18 1.91,0.12 2.56,0.6 1.73,1.29 3.26,2.84 4.93,4.23 0.42,0.35 1.05,0.45 1.59,0.67 -0.71,0.72 -1.41,1.45 -2.1,2.17 z"
   id="path290" />
	<path
   class="st18"
   d="m 828.57,373.24 c 0.68,-1.07 1.37,-2.13 2.05,-3.2 0.88,-1.37 1.67,-2.82 2.7,-4.07 0.46,-0.56 1.41,-0.71 2.14,-1.05 -0.08,0.83 0.09,1.78 -0.28,2.45 -1.37,2.54 -2.91,4.99 -4.39,7.47 -0.74,-0.53 -1.48,-1.06 -2.22,-1.6 z"
   id="path292" />
	<path
   class="st18"
   d="m 840.73,379.61 c 1.14,0.1 2.29,0.19 3.75,0.32 0,-2.97 -0.08,-5.72 0.05,-8.47 0.04,-0.93 0.63,-1.83 0.97,-2.75 0.49,0.92 1.37,1.82 1.41,2.76 0.13,2.96 -0.05,5.93 -0.12,8.89 -2.02,-0.25 -4.04,-0.5 -6.06,-0.75 z m 4.75,-2.06 c 0.15,-0.02 0.3,-0.04 0.44,-0.06 0,-2.24 0,-4.47 0,-6.71 -0.15,0.01 -0.3,0.02 -0.44,0.03 0,2.25 0,4.49 0,6.74 z"
   id="path294" />
	<path
   class="st18"
   d="m 885.49,351.89 c -2.09,-0.08 -4.18,-0.06 -6.25,-0.29 -0.63,-0.07 -1.19,-0.82 -1.78,-1.26 0.61,-0.39 1.24,-1.13 1.83,-1.1 2.43,0.12 4.84,0.47 7.26,0.74 -0.36,0.65 -0.71,1.28 -1.06,1.91 z"
   id="path296" />
	<path
   class="st21"
   d="m 820.03,361.68 c 1.65,-0.95 3.25,-1.97 4.96,-2.8 0.59,-0.29 1.42,-0.1 2.15,-0.12 -0.31,0.67 -0.46,1.55 -0.98,1.98 -1.03,0.86 -2.33,1.4 -3.38,2.25 -0.6,0.48 -0.91,1.32 -1.35,2 -0.46,-1.11 -0.93,-2.21 -1.4,-3.31 z"
   id="path298" />
	<path
   class="st21"
   d="m 881.65,325.13 c -1.05,0.77 -2.07,1.6 -3.17,2.3 -0.76,0.48 -1.64,0.78 -2.47,1.15 -0.22,-0.31 -0.43,-0.61 -0.65,-0.92 1.41,-1.74 2.81,-3.49 4.22,-5.23 0.69,0.9 1.38,1.8 2.07,2.7 z"
   id="path300" />
	<path
   class="st21"
   d="m 868.85,321.88 c -0.53,0.46 -1.05,0.91 -1.58,1.37 -0.17,-0.62 -0.56,-1.29 -0.45,-1.85 0.26,-1.31 0.76,-2.57 1.17,-3.85 -0.08,1.06 -0.26,2.12 -0.17,3.16 0.03,0.42 0.67,0.78 1.03,1.17 z"
   id="path302" />
	<path
   class="st21"
   d="m 870,317.57 c -0.28,1.13 -0.56,2.25 -0.85,3.38 0.29,-1.13 0.57,-2.25 0.85,-3.38 z"
   id="path304" />
	<path
   class="st18"
   d="m 854.95,380.29 c 1.26,-0.24 2.52,-0.49 3.78,-0.73 -1.26,0.24 -2.52,0.49 -3.78,0.73 z"
   id="path306" />
	<path
   class="st21"
   d="m 867.99,317.54 c 0.08,-1.11 0.17,-2.23 0.25,-3.34 -0.08,1.11 -0.16,2.22 -0.25,3.34 z"
   id="path308" />
	<path
   class="st18"
   d="m 847.24,380.59 c 0.52,0.03 1.04,0.06 1.56,0.09 -0.52,-0.03 -1.04,-0.06 -1.56,-0.09 z"
   id="path310" />
	<path
   class="st21"
   d="m 870.91,315.39 c -0.25,0.35 -0.49,0.7 -0.74,1.05 0.13,-0.48 0.26,-0.96 0.4,-1.45 0.11,0.14 0.23,0.27 0.34,0.4 z"
   id="path312" />
	<path
   class="st18"
   d="m 863.09,378.09 c 0.53,-0.2 1.07,-0.39 1.6,-0.59 -0.53,0.2 -1.06,0.4 -1.6,0.59 z"
   id="path314" />
	<path
   class="st6"
   d="m 865.27,313.04 c -0.33,-0.15 -0.66,-0.31 -1,-0.46 0.34,0.15 0.67,0.31 1,0.46 z"
   id="path316" />
	<path
   class="st21"
   d="m 868.03,314.03 c -0.22,-0.09 -0.44,-0.17 -0.66,-0.26 0.22,0.09 0.44,0.17 0.66,0.26 z"
   id="path318" />
	<path
   class="st21"
   d="m 874.01,371.55 c 0.19,-0.16 0.37,-0.33 0.56,-0.49 -0.18,0.16 -0.37,0.33 -0.56,0.49 z"
   id="path320" />
	<path
   class="st21"
   d="m 874.6,371.02 c 0.17,-0.16 0.34,-0.33 0.52,-0.49 -0.17,0.16 -0.35,0.33 -0.52,0.49 z"
   id="path322" />
	<path
   class="st21"
   d="m 875.17,370.49 c 0.17,-0.15 0.34,-0.31 0.5,-0.46 -0.16,0.15 -0.33,0.3 -0.5,0.46 z"
   id="path324" />
	<path
   class="st21"
   d="m 877.87,367.74 c 0.17,-0.18 0.33,-0.36 0.5,-0.54 -0.17,0.19 -0.33,0.36 -0.5,0.54 z"
   id="path326" />
	<path
   class="st21"
   d="m 878.39,367.19 c 0.17,-0.2 0.34,-0.39 0.51,-0.59 -0.18,0.2 -0.35,0.39 -0.51,0.59 z"
   id="path328" />
	<path
   class="st21"
   d="m 879.37,366.04 c 0.18,-0.23 0.35,-0.47 0.53,-0.7 -0.18,0.23 -0.36,0.46 -0.53,0.7 z"
   id="path330" />
	<path
   class="st16"
   d="m 762.87,314.92 c -0.05,1.61 -0.11,3.22 -0.16,4.83 -0.5,-0.56 -1.31,-1.05 -1.44,-1.69 -0.25,-1.2 -0.11,-2.48 -0.14,-3.72 0,0 0.01,-0.05 0.01,-0.05 0.88,-0.6 1.63,-0.87 1.73,0.63 z"
   id="path332" />
	<path
   class="st23"
   d="m 520.93,324.41 c -0.4,9.75 -11.21,17.68 -20.26,14.73 -3.24,-1.06 -5.11,-3.47 -6.78,-6.27 -3.68,-6.16 -0.39,-19.77 6.61,-22.36 0.82,-0.3 1.75,-0.74 2.56,-0.63 6.89,0.98 13.31,2.85 16.43,10 0.62,1.44 0.96,3.02 1.44,4.53 z m -26.8,1.11 c 0.24,0.09 0.47,0.17 0.71,0.26 -0.02,7.48 3.85,11.52 11.21,11.43 5.51,-0.07 8.49,-3.83 10.87,-8.13 2.02,-3.64 1.25,-7.86 -1.35,-11.07 -2.7,-3.32 -6.52,-4.3 -10.31,-5.36 -3.22,-0.9 -6.15,0.17 -7.54,3.11 -1.49,3.11 -2.42,6.49 -3.59,9.76 z"
   id="path334" />
	<path
   class="st24"
   d="m 659.27,344.44 c 5.93,-0.9 8.59,2.37 6.25,7.95 -0.97,2.31 -2.58,4.34 -3.82,6.55 -0.5,0.89 -0.73,1.91 -1.16,2.84 -0.26,0.56 -0.81,1.53 -0.97,1.48 -0.87,-0.27 -2.19,-0.63 -2.39,-1.27 -1.45,-4.59 -2.66,-9.26 -3.96,-13.9 -0.36,-1.3 0.18,-3.29 -2.26,-3.05 -0.03,-0.82 -0.43,-1.97 -0.04,-2.4 1.75,-1.92 3.55,-3.91 5.68,-5.36 2.37,-1.61 3.85,-0.63 3.6,2.22 -0.13,1.58 -0.79,3.11 -1.21,4.67 -0.09,0.16 -0.18,0.32 -0.27,0.48 0.19,-0.07 0.37,-0.14 0.55,-0.21 z m -0.49,13.4 c 0.29,0.09 0.59,0.18 0.88,0.27 1.36,-2.69 2.95,-5.29 4.01,-8.09 0.88,-2.33 -0.71,-4.03 -2.78,-3.45 -3.13,0.87 -4.68,3.67 -3.69,6.72 0.49,1.52 1.05,3.03 1.58,4.55 z m -0.55,-18.59 c -4.04,1.8 -4.45,2.84 -2.56,5.99 0.83,-1.96 1.63,-3.82 2.56,-5.99 z"
   id="path336" />
	<path
   class="st25"
   d="m 671.94,337.07 c 0.39,1.49 0.66,2.54 0.98,3.78 2.01,-1.01 3.94,-2.13 5.98,-2.94 0.89,-0.35 2.03,-0.08 3.05,-0.09 -0.73,0.77 -1.33,1.74 -2.2,2.26 -2.02,1.19 -4.17,2.15 -6.56,3.36 1.05,3.29 2.05,6.45 3.05,9.61 0.27,0.86 0.76,1.73 0.74,2.59 -0.02,0.8 -0.58,1.59 -0.91,2.38 -0.53,-0.6 -1.32,-1.11 -1.54,-1.81 -1.17,-3.68 -2.21,-7.4 -3.33,-11.24 -0.5,0.22 -0.8,0.44 -1.12,0.48 -0.7,0.09 -1.41,0.09 -2.11,0.13 0.33,-0.66 0.48,-1.62 1.01,-1.93 2.32,-1.36 1.61,-3.03 0.73,-5.16 -0.96,0.87 -1.68,1.67 -2.55,2.26 -0.51,0.35 -1.24,0.36 -1.88,0.53 0.07,-0.73 -0.14,-1.78 0.26,-2.15 1.61,-1.45 3.33,-2.79 5.15,-3.96 1.97,-1.27 4.05,-2.41 6.18,-3.39 0.71,-0.33 1.72,-0.02 2.59,0 -0.51,0.84 -0.82,2.01 -1.56,2.46 -1.81,1.09 -3.84,1.85 -5.96,2.83 z"
   id="path338" />
	<path
   class="st16"
   d="m 756.64,338.73 c 0.38,0.1 0.7,0.2 1.03,0.26 4.89,0.76 6.58,4.03 3.93,8.3 -1.46,2.34 -3.65,4.23 -5.46,6.36 -0.68,0.8 -1.17,1.75 -1.85,2.55 -0.44,0.52 -1.34,1.37 -1.52,1.26 -0.75,-0.47 -1.78,-1.22 -1.84,-1.93 -0.42,-5.2 -0.61,-10.42 -0.91,-15.63 -0.03,-0.5 -0.17,-1.27 -0.51,-1.45 -2.82,-1.47 -1.13,-2.82 0.23,-3.76 1.91,-1.32 3.97,-2.58 6.15,-3.34 2.33,-0.81 3.54,0.5 2.84,2.9 -0.45,1.51 -1.34,2.91 -2.09,4.48 z m -3.31,13.17 c 0.34,0.11 0.69,0.22 1.03,0.33 1.78,-2.2 3.77,-4.27 5.22,-6.66 0.54,-0.89 0.29,-3.02 -0.44,-3.74 -1.36,-1.34 -6.47,1.23 -6.46,3.18 0.02,2.29 0.42,4.59 0.65,6.89 z m -0.5,-12.58 c 1.47,-2.06 2.58,-3.62 3.91,-5.48 -4.05,0.52 -4.63,1.31 -3.91,5.48 z"
   id="path340" />
	<path
   class="st17"
   d="m 771.14,338.2 c 2.19,-0.55 4.36,-1.2 6.57,-1.59 0.77,-0.13 1.65,0.41 2.49,0.64 -0.67,0.6 -1.24,1.46 -2.02,1.74 -1.79,0.63 -3.67,1.02 -5.53,1.41 -1.54,0.32 -2.06,1.17 -1.9,2.7 0.35,3.24 0.73,6.49 0.83,9.74 0.03,1 -0.82,2.03 -1.27,3.05 -0.4,-0.94 -1.05,-1.86 -1.17,-2.84 -0.43,-3.5 -0.68,-7.01 -1.02,-10.73 -0.36,0 -0.68,0.04 -0.99,-0.01 -0.71,-0.1 -1.41,-0.24 -2.12,-0.37 0.44,-0.59 0.77,-1.49 1.35,-1.71 2.17,-0.81 2.23,-2.32 1.65,-4.55 -1.1,0.59 -2.05,1.22 -3.08,1.61 -0.47,0.18 -1.12,-0.1 -1.69,-0.16 0.09,-0.58 -0.03,-1.43 0.3,-1.69 1.06,-0.82 2.22,-1.62 3.48,-2.08 3.14,-1.16 6.33,-2.21 9.56,-3.1 0.71,-0.2 1.65,0.42 2.49,0.66 -0.6,0.69 -1.08,1.66 -1.84,2.01 -1.12,0.52 -2.46,0.54 -3.67,0.87 -3.2,0.88 -3.19,0.9 -2.42,4.4 z"
   id="path342" />
	<path
   class="st8"
   d="m 761.14,314.34 c 0.02,1.24 -0.11,2.52 0.14,3.72 0.13,0.64 0.94,1.13 1.44,1.69 -0.2,0.46 -0.4,0.91 -0.61,1.37 -0.43,-0.4 -1.23,-0.79 -1.24,-1.2 -0.03,-1.86 0.16,-3.72 0.27,-5.58 z"
   id="path344" />
	<path
   class="st16"
   d="m 850.02,336.35 c 1.85,1.08 4.15,1.67 5.09,3.14 1.5,2.33 0.43,4.99 -1.31,7.02 -1.58,1.85 -3.48,3.43 -5.18,5.19 -0.72,0.75 -1.23,1.71 -1.94,2.48 -0.45,0.49 -1.44,1.25 -1.6,1.12 -0.7,-0.54 -1.65,-1.34 -1.68,-2.07 -0.2,-5.22 -0.18,-10.45 -0.27,-15.68 -0.01,-0.49 -0.18,-1.22 -0.52,-1.42 -2.27,-1.36 -1.16,-2.6 0.23,-3.48 1.97,-1.25 4.05,-2.46 6.24,-3.19 2.69,-0.89 3.93,0.46 3.01,3.1 -0.52,1.48 -1.52,2.81 -2.07,3.79 z m -4.12,13.45 c 0.31,0.16 0.62,0.33 0.93,0.49 1.95,-2.2 4.09,-4.27 5.76,-6.67 0.56,-0.8 0.43,-2.86 -0.23,-3.59 -1.38,-1.53 -6.64,0.89 -6.73,3.03 -0.09,2.25 0.17,4.5 0.27,6.74 z m 0.1,-12.65 c 1.49,-1.85 2.74,-3.4 4.17,-5.19 -4.01,0.13 -4.76,1.04 -4.17,5.19 z"
   id="path346" />
	<path
   class="st17"
   d="m 861.6,340.9 c -0.99,0 -1.25,0.04 -1.51,-0.01 -0.72,-0.13 -1.43,-0.28 -2.14,-0.43 0.46,-0.58 0.83,-1.5 1.41,-1.67 2.35,-0.71 2.49,-2.26 1.97,-4.58 -1.01,0.49 -1.83,1.04 -2.73,1.29 -0.65,0.18 -1.41,-0.04 -2.12,-0.08 0.29,-0.68 0.39,-1.66 0.91,-1.97 1.38,-0.83 2.89,-1.53 4.44,-2.01 2.77,-0.86 5.58,-1.6 8.41,-2.22 0.71,-0.15 1.57,0.38 2.36,0.59 -0.54,0.71 -0.95,1.74 -1.66,2.04 -1.22,0.51 -2.62,0.63 -3.96,0.76 -2.76,0.28 -3.53,1.7 -2.61,4.3 2.39,-0.48 4.77,-1.04 7.17,-1.38 0.6,-0.08 1.3,0.54 1.95,0.85 -0.51,0.53 -0.93,1.37 -1.53,1.54 -1.73,0.5 -3.53,0.84 -5.33,1.06 -2.21,0.27 -3.13,1.29 -2.9,3.59 0.3,3.06 0.47,6.15 0.43,9.22 -0.01,0.93 -0.89,1.84 -1.37,2.76 -0.39,-0.96 -1.08,-1.91 -1.11,-2.88 -0.16,-3.51 -0.08,-7.03 -0.08,-10.77 z"
   id="path348" />
	<path
   class="st24"
   d="m 845.48,377.55 c 0,-2.25 0,-4.5 0,-6.74 0.15,-0.01 0.3,-0.02 0.44,-0.03 0,2.24 0,4.47 0,6.71 -0.14,0.02 -0.29,0.04 -0.44,0.06 z"
   id="path350" />
	<path
   class="st26"
   d="m 494.13,325.52 c 1.17,-3.27 2.1,-6.65 3.59,-9.77 1.39,-2.93 4.32,-4.01 7.54,-3.11 3.78,1.06 7.61,2.04 10.31,5.36 2.61,3.21 3.37,7.42 1.35,11.07 -2.38,4.3 -5.37,8.06 -10.87,8.13 -7.36,0.09 -11.22,-3.94 -11.21,-11.43 -0.24,-0.08 -0.48,-0.16 -0.71,-0.25 z m 12.98,-6.98 c -2.65,0.22 -3.67,1.49 -3.36,3.26 0.18,1.03 1.37,1.88 2.11,2.82 0.91,-1.26 2.06,-2.42 2.61,-3.81 0.21,-0.56 -0.95,-1.64 -1.36,-2.27 z"
   id="path352" />
	<path
   class="st22"
   d="m 658.78,357.84 c -0.53,-1.52 -1.09,-3.03 -1.58,-4.55 -0.99,-3.05 0.56,-5.85 3.69,-6.72 2.07,-0.58 3.65,1.13 2.78,3.45 -1.06,2.8 -2.65,5.4 -4.01,8.09 -0.29,-0.1 -0.59,-0.18 -0.88,-0.27 z"
   id="path354" />
	<path
   class="st27"
   d="m 658.23,339.25 c -0.93,2.18 -1.73,4.04 -2.56,5.99 -1.89,-3.16 -1.49,-4.2 2.56,-5.99 z"
   id="path356" />
	<path
   class="st15"
   d="m 659.27,344.44 c -0.18,0.07 -0.36,0.14 -0.54,0.22 0.09,-0.16 0.18,-0.32 0.27,-0.48 0.08,0.09 0.17,0.17 0.27,0.26 z"
   id="path358" />
	<path
   class="st27"
   d="m 753.33,351.9 c -0.23,-2.3 -0.64,-4.59 -0.65,-6.89 -0.01,-1.95 5.1,-4.52 6.46,-3.18 0.73,0.72 0.98,2.85 0.44,3.74 -1.45,2.4 -3.45,4.46 -5.22,6.66 -0.34,-0.11 -0.68,-0.22 -1.03,-0.33 z"
   id="path360" />
	<path
   class="st28"
   d="m 752.83,339.32 c -0.73,-4.17 -0.14,-4.96 3.91,-5.48 -1.33,1.86 -2.44,3.42 -3.91,5.48 z"
   id="path362" />
	<path
   class="st27"
   d="m 845.9,349.8 c -0.1,-2.24 -0.36,-4.49 -0.27,-6.73 0.09,-2.15 5.35,-4.56 6.73,-3.03 0.66,0.73 0.79,2.78 0.23,3.59 -1.67,2.4 -3.81,4.47 -5.76,6.67 -0.31,-0.17 -0.62,-0.34 -0.93,-0.5 z"
   id="path364" />
	<path
   class="st28"
   d="m 846,337.15 c -0.58,-4.15 0.17,-5.06 4.17,-5.19 -1.44,1.79 -2.68,3.34 -4.17,5.19 z"
   id="path366" />
	<path
   class="st0"
   d="m 507.11,318.54 c 0.4,0.63 1.56,1.71 1.35,2.26 -0.54,1.4 -1.7,2.56 -2.61,3.81 -0.74,-0.93 -1.93,-1.79 -2.11,-2.82 -0.29,-1.76 0.72,-3.03 3.37,-3.25 z"
   id="path368" />
</g>
</svg>
