<?xml version="1.0" encoding="UTF-8"?>
<svg id="Layer_2" data-name="Layer 2" xmlns="http://www.w3.org/2000/svg" viewBox="0 0 623.66 142.55">
  <defs>
    <style>
      .cls-1 {
        fill: #f3f3f3;
      }

      .cls-2 {
        fill: #f8f8f8;
      }

      .cls-3 {
        fill: #f0f0f0;
      }

      .cls-4 {
        fill: #eadf38;
      }

      .cls-5 {
        fill: #e8dc36;
      }

      .cls-6 {
        fill: #fcfcfc;
      }

      .cls-7 {
        fill: #e8dd36;
      }

      .cls-8 {
        fill: #fdfdfd;
      }

      .cls-9 {
        fill: #b6ae3b;
      }

      .cls-10 {
        fill: #dbd139;
      }

      .cls-11 {
        fill: #1e1c11;
      }

      .cls-12 {
        fill: #1e1d12;
      }

      .cls-13 {
        fill: #221f08;
      }

      .cls-14 {
        fill: #0c0c0c;
      }

      .cls-15 {
        fill: #120f04;
      }

      .cls-16 {
        fill: #15181b;
      }

      .cls-17 {
        fill: #14171b;
      }

      .cls-18 {
        fill: #0d0b03;
      }

      .cls-19 {
        fill: #110f08;
      }

      .cls-20 {
        fill: #101010;
      }

      .cls-21 {
        fill: #1c1907;
      }

      .cls-22 {
        fill: #454122;
      }

      .cls-23 {
        fill: #5b592f;
      }

      .cls-24 {
        fill: #2b280c;
      }

      .cls-25 {
        fill: #3452b2;
      }

      .cls-26 {
        fill: #35320c;
      }

      .cls-27 {
        fill: #3b370d;
      }

      .cls-28 {
        fill: #3352b3;
      }

      .cls-29 {
        fill: #2e2e2e;
      }
    </style>
  </defs>
  <g id="Layer_1-2" data-name="Layer 1">
    <g>
      <path class="cls-14" d="M208.88,22.32c1.02,6.54,2.09,13.06,4.94,19.15,.42,.91,.14,2.15,.18,3.23-1.05-.23-2.4-.12-3.1-.74-2.82-2.49-5.43-5.2-8.12-7.83,.43-.45,.85-.9,1.28-1.34,2.05,2.14,4.11,4.27,6.16,6.41,.12-.1,.24-.21,.36-.31-1.19-4.53-2.39-9.05-3.64-13.82-1.61,2.14-3.1,4.13-4.6,6.12-.54,.46-1.08,.92-1.62,1.37-2.33,1.28-2.77,2.99-1.92,5.58,1.34,4.09,2.3,8.32,3.26,12.53,.2,.89-.28,1.93-.44,2.9-.96-.31-2.2-.34-2.84-.97-3.28-3.24-6.4-6.65-9.67-10.09-1.57,1.61-3.01,3.08-4.48,4.58,1.55,4.87,3.13,9.7,4.58,14.56,.19,.64-.06,1.78-.53,2.12-.4,.29-1.59,0-2.09-.43-3.29-2.84-6.49-5.79-9.69-8.69-.22,.06-.44,.06-.55,.17-5.17,4.97-4.65,2.76-2.27,9.66,.91,2.63,2.27,5.11,3.28,7.71,.28,.73,.07,1.65,.08,2.48-.89-.16-2.05-.02-2.62-.54-3.25-2.89-6.36-5.94-9.43-8.85-5.15,5.7-10.53,11.65-15.74,17.41,8.25,1.18,17.98,2.58,27.53,3.95,2.03-3.59,3.82-6.8,5.66-9.98,.59-1.02,1.24-2.02,2.04-2.88,.57-.61,1.41-.97,2.14-1.44,.44,.72,1.1,1.38,1.3,2.16,.83,3.32,1.62,6.66,2.22,10.02,.45,2.51,1.38,4.17,4.28,3.98,.69-.04,1.4,.32,2.1,.5,.88,.19,1.75,.39,2.63,.58,2.88,.51,5.75,1.02,9.01,1.59-1.07-5.68-2.08-11.03-3.09-16.38-.21,.01-.41,.02-.62,.03-1.54,3.82-3.08,7.64-4.62,11.47-.24-1.01-.49-2.01-.73-3.02,1.48-3.53,2.84-7.12,4.51-10.55,.45-.93,1.83-1.41,2.79-2.1,.36,1.03,.86,2.04,1.05,3.1,1,5.58,1.86,11.18,2.9,16.75,.45,2.42,2.71,1.51,4.21,1.96,.72,.12,1.45,.25,2.17,.37,3.33,.44,6.67,.88,10.77,1.43-.49-6.18-.92-11.7-1.36-17.22-.37-.06-.75-.12-1.12-.18-2.06,3.82-4.12,7.64-6.18,11.46-.35-.66-.69-1.32-1.04-1.98,2.64-4.59,5.25-9.2,7.95-13.76,.27-.45,1.05-.91,1.53-.84,.38,.05,.9,.87,.93,1.38,.44,6.14,1.22,12.3,1.07,18.43-.18,7.39-3.49,13.98-7.12,20.26-8.23,14.25-20.09,23.93-36.39,27.43-16.8,3.6-32.24-.19-46.16-9.86-17.8-12.36-28.37-29.6-32.58-50.75-3.78-19.01-1.48-37.15,8.78-53.82C125.19,12.2,138.19,3.06,155.23,.6c17.38-2.51,32.73,2.94,46.35,13.64,2.44,1.91,4.54,4.24,6.8,6.38,.15,.57,.33,1.13,.5,1.7Zm-36.08,48.6c.15,.12,.3,.24,.46,.36-.06-.21-.12-.43-.18-.64-1-2.62-2.01-5.24-3.06-7.98-1.12,.9-2.03,1.63-2.94,2.36,1.98,2.04,3.85,3.97,5.72,5.9Zm34.4-49.02c-3.43-2.81-6.39-5.5-9.61-7.82-12.24-8.83-25.94-13.11-40.98-11.23-16.65,2.08-29.4,10.84-38.2,25.02-9.85,15.87-12.33,33.17-8.78,51.37,4.35,22.31,15.58,40.14,35.09,52.22,11.87,7.35,24.89,10.38,38.72,7.9,15.97-2.86,27.98-11.77,36.39-25.59,3.01-4.95,5.39-10.16,6.65-15.4-5.38-.76-10.65-1.19-15.78-2.29-13.73-2.96-27.61-4.75-41.56-6.21-6.55-.69-13.06-1.85-19.55-2.98-1.67-.29-3.21-1.3-4.81-1.98,1.03-1.52,1.84-3.26,3.13-4.51,7.09-6.88,14.25-13.69,21.48-20.43,8.69-8.1,17.48-16.11,26.21-24.17,1.86-1.72,3.83-3.38,5.43-5.33,2.14-2.63,4-5.53,6.17-8.57Zm-27.55,66.8c3.29,.39,6.08,.73,9.21,1.1-.87-4.09-1.68-7.85-2.65-12.37-2.35,4.06-4.36,7.5-6.56,11.27Zm16.35-50.04c-2,1.6-3.73,2.97-5.14,4.11,2.77,2.92,5.4,5.7,8.37,8.84-1.11-4.45-2.1-8.42-3.23-12.95Zm-10.19,23c-1.12-4.05-2.01-7.28-3.02-10.95-1.62,1.52-2.96,2.78-4.49,4.22,2.35,2.1,4.61,4.13,7.51,6.73Z"/>
      <path class="cls-17" d="M54.44,99.54c-10.84,5.32-22.75,6.19-34,9.5-5.42,1.6-10.83,3.24-16.22,4.92-2.95,.92-4.51,.06-4.18-3.09,.49-4.81,1.49-9.57,2.39-14.33,.67-3.53,1.58-7.01,2.28-10.53,.2-1,.03-2.08,.03-3.55,15.42-.83,30.99-1.67,46.18-2.49-3.56-2.53-7.5-5.29-11.4-8.11-1.24-.9-2.69-1.74-3.5-2.97-2.4-3.65-4.93-7.07-8.79-9.33-.43-.25-.45-1.19-.66-1.81,.65-.2,1.32-.65,1.93-.56,6.41,.9,12.83,1.8,19.22,2.85,9.33,1.53,18.64,3.12,27.95,4.78,5.66,1.01,11.3,2.11,16.92,3.31,2.35,.5,2.74,2.96,.92,5.5-2.7,3.75-5.82,7.23-8.16,11.18-6.27,10.56-12.23,21.3-18.29,31.99-3.65,6.44-7.13,12.97-10.93,19.31-.96,1.61-2.83,2.67-4.28,3.99-.2-1.77-.73-3.57-.56-5.3,.96-9.7,2.13-19.38,3.14-29.08,.19-1.93,0-3.92,0-6.18ZM7.46,84.51c-.82,3.26-1.7,6.28-2.32,9.36-1.04,5.22-1.94,10.48-2.84,15.73-.27,1.58,.32,2.56,2.11,2.05,3.03-.87,6.02-1.87,9.05-2.74,5.47-1.57,10.89-3.45,16.46-4.53,7.9-1.54,15.66-3.41,23.08-6.59,2.5-1.07,4.21,.14,4.01,2.84-.18,2.5-.57,4.99-.83,7.48-.73,7.12-1.44,14.23-2.15,21.35-.2,1.97-.4,3.93-.59,5.9,.26,.08,.51,.17,.77,.25,5.96-11.1,12.04-22.14,17.86-33.32,5.8-11.13,13.04-21.33,20.53-31.39-.18-.3-.37-.59-.55-.89-20.02-3.5-40.04-7-60.15-10.52,1.46,1.99,2.67,3.71,3.96,5.37,1.15,1.47,2.14,3.21,3.62,4.25,4.55,3.2,9.33,6.06,13.92,9.2,.81,.55,1.14,1.81,1.69,2.74-.8,.42-1.57,1.17-2.39,1.22-6.23,.36-12.46,.56-18.69,.87-8.87,.43-17.73,.92-26.55,1.37Z"/>
      <path class="cls-19" d="M308.73,28.36c2.94-.2,5.93-.86,8.8-.52,18.14,2.19,30.89,17.16,30.53,35.57-.39,20.11-15.14,37.14-35.04,39.46-20.37,2.38-35.87-11.8-38.13-29.43-2.23-17.45,4.79-30.69,19.28-40.2,1.89-1.24,4.15-1.92,6.24-2.86,1.23,.74,2.98-1.79,3.95,.62h-.01c-.91,.33-1.82,.66-2.73,.99-.14,.11-.3,.16-.48,.13-.56,.17-1.12,.33-1.68,.5-1.3,.8-2.59,1.6-4.07,2.51,1.35,1.71,2.57,3.07,3.54,4.58,.44,.69,.4,1.7,.57,2.56-.75-.32-1.71-.44-2.21-.99-1.38-1.51-2.56-3.19-4.06-5.1-2.7,2.54-5.27,4.96-8.02,7.56,2.21,1.32,3.97,2.27,5.6,3.41,.54,.37,.75,1.22,1.11,1.84-.72,.03-1.57,.33-2.14,.06-2-.98-3.9-2.16-6.31-3.53-2.08,4.67-4.08,9.14-6.29,14.11,2.74,.2,4.7,.35,6.66,.48,1.28,.09,2.55,.14,3.83,.21-1.3,.75-2.53,1.71-3.93,2.17-.95,.31-2.13-.08-3.21-.18-1.05-.1-2.1-.23-3.22-.35v13.96c1.98-.4,3.3-.76,4.64-.9,.48-.05,1.01,.42,1.52,.65-.32,.49-.54,1.23-.98,1.41-1.21,.5-2.53,.76-4,1.17,1.24,4.12,3.02,7.6,5.73,10.59,.54,.71,1.08,1.41,1.61,2.12,3.45,2.38,6.9,4.76,10.35,7.14,.39,.17,.79,.34,1.18,.51,4.51,.74,9.02,1.47,13.52,2.21,.55-.18,1.1-.36,1.66-.53h.01c.6-.14,1.21-.26,1.81-.39,4.84-.13,8.94-2.3,12.93-4.46-1.89-2.96-3.68-5.67-5.33-8.46-.34-.57-.17-1.45-.23-2.18,.73,.34,1.77,.48,2.15,1.05,1.81,2.68,3.44,5.48,5.2,8.32,4.71-3.12,8.25-7.3,11.31-11.94,.19-.44,.37-.87,.56-1.31,3.3-5.57,4.63-11.63,4.79-18.03-3.16-.95-6.03,2.26-8.96,.46-.06-.36-.13-.72-.19-1.09,2.95-.72,5.89-1.45,9.22-2.26-.84-3.41-1.7-6.92-2.58-10.46-2.43,.98-4.34,1.82-6.3,2.48-.51,.17-1.23-.25-1.85-.41,.36-.53,.61-1.3,1.11-1.53,1.86-.88,3.8-1.58,6.37-2.61-2.86-3.59-5.49-6.91-8.41-10.57-1.19,1.98-1.9,3.34-2.79,4.57-.28,.39-1.02,.44-1.56,.64-.09-.56-.43-1.23-.23-1.65,.72-1.51,1.62-2.94,2.73-4.86-3.62-1.65-7.15-3.25-10.99-5,0,2.85,.09,5.03-.06,7.18-.04,.59-.83,1.13-1.28,1.69-.26-.6-.72-1.19-.75-1.8-.09-2.33-.04-4.67-.04-7.25-2.82-.17-5.25-.31-7.67-.46-1.06-.33-2.85,.65-2.78-1.6Z"/>
      <path class="cls-16" d="M579.35,93.92c.77-2.34,1.46-4.72,2.34-7.02,1.89-4.95,3.96-9.82,5.77-14.8,.67-1.84,.81-3.87,1.24-6.02-3.75,.19-7.37,.02-10.86,.63-8.68,1.51-17.3,3.34-25.92,5.11-2.54,.52-3.39-.13-3.01-2.74,.61-4.27,1.37-8.53,1.87-12.81,.17-1.47-.24-3.01-.45-5.18,11.94-.89,23.86-1.37,36.07-.37-1.35-3.05-2.67-5.94-3.9-8.86-3.4-8.02-6.78-16.05-10.1-24.1-.18-.44,.16-1.1,.26-1.65,.63,.21,1.4,.25,1.87,.65,6.19,5.29,12.31,10.68,18.52,15.96,6.47,5.51,13.05,10.89,19.53,16.39,3.24,2.75,6.47,5.53,9.48,8.53,2.33,2.31,2.08,3.89-.53,5.78-7.47,5.41-15.09,10.62-22.43,16.2-5.48,4.17-10.59,8.82-15.9,13.21-.85,.7-1.86,1.19-2.8,1.78-.37-.24-.71-.47-1.05-.69Zm-28.03-24.51c1.89-.29,3.4-.41,4.86-.76,5.19-1.23,10.3-2.87,15.55-3.7,5.7-.9,11.51-1.12,17.28-1.46,.69-.04,2.14,1.23,2.05,1.6-1.25,5.26-2.54,10.52-4.19,15.66-.97,3.01-2.59,5.8-3.92,8.69,.7,.04,.96-.16,1.23-.37,10.35-7.99,20.58-16.12,31.08-23.91,7.11-5.27,7.34-5.13,.43-10.67-9.79-7.84-20.02-15.14-28.61-24.43-2.69-2.91-6.06-5.19-9.5-8.08,.08,.98,.01,1.45,.17,1.83,3.75,9.07,7.47,18.15,11.34,27.16,.79,1.84,.3,2.39-1.42,2.34-6.97-.21-13.94-.54-20.92-.71-4.66-.11-9.33-.02-13.38-.02-.73,5.9-1.36,11.07-2.05,16.83Z"/>
      <path class="cls-12" d="M376.35,41.46c.14-.19,.28-.39,.43-.58,.23-.33,.46-.67,.69-1,.61-.77,1.23-1.53,1.84-2.3,.47-.5,.94-1.01,1.41-1.51,.23-.23,.46-.46,.69-.69,.87-.79,1.74-1.58,2.61-2.37,.39-.3,.77-.6,1.16-.91,.34-.25,.68-.49,1.02-.74l.54-.39c.37-.26,.73-.51,1.1-.77,.16-.11,.32-.21,.49-.32,.38-.23,.77-.47,1.15-.7,.54-.31,1.09-.62,1.63-.92,3.61-1.27,7.23-2.53,10.84-3.8,.3-.06,.6-.12,.91-.18,.97-.12,1.94-.24,2.91-.36,1.11-.01,2.22-.03,3.33-.04,.29,.46,.57,.91,.73,1.16-2.89,.56-5.63,1.09-8.37,1.63-1.1,.38-2.19,.76-3.62,1.26,.9,1.89,1.81,3.55,2.46,5.3,.26,.69-.03,1.59-.08,2.39-.69-.43-1.63-.7-2.01-1.32-1.06-1.74-1.89-3.63-2.98-5.82-3.11,1.9-6,3.66-9.25,5.65,1.74,1.63,3.13,2.77,4.31,4.11,.54,.62,.65,1.61,.95,2.43-.87-.25-1.9-.29-2.57-.8-1.51-1.14-2.83-2.51-4.77-4.28-3,4.03-5.87,7.88-8.73,11.74,.13,.36,.26,.72,.4,1.08,2.51,.44,5.03,.85,7.53,1.36,.59,.12,1.11,.62,1.67,.94-.48,.45-.94,1.27-1.45,1.3-1.6,.08-3.25,.02-4.82-.27-1.36-.26-2.65-.92-4.61-1.63-.82,4.83-1.57,9.19-2.36,13.8,1.98,0,3.17-.12,4.31,.05,.56,.08,1.05,.7,1.57,1.08-.52,.42-.98,1.07-1.57,1.2-1.11,.26-2.28,.21-4.03,.34,.86,3.22,1.54,6.09,2.41,8.9,.28,.91,1.04,1.66,1.58,2.49,.34,.53,.67,1.06,1.01,1.59,.33,.81,.47,1.79,1.02,2.41,2.16,2.43,4.45,4.75,6.69,7.11,.72,.47,1.44,.95,2.15,1.42l.02,.02c.16,.17,.32,.35,.48,.52,1.87,.83,3.74,1.66,5.61,2.48,.17,.07,.33,.14,.5,.21h-.01c.5,.2,1,.4,1.5,.61,.81,.19,1.62,.38,2.44,.57-.06,.13-.13,.26-.19,.39,.08,.03,.15,.09,.23,.09,1.93,.01,3.86,.01,5.79,.01h9.27c-.01-.17-.02-.33-.04-.5h-1c.77-.18,1.54-.36,2.31-.54,.68-.2,1.36-.41,2.03-.61,.21-.36,.42-.71,.63-1.07,.64,.17,1.27,.34,1.91,.51-.09-.24-.17-.49-.26-.73,.94-.31,2-.43,2.79-.96,3.36-2.26,6.63-4.64,9.93-6.98,.28-.27,.56-.54,.84-.8,.14-.24,.28-.49,.42-.73,.23-.29,.46-.58,.69-.88,4.31-4.73,6.94-10.28,8.47-16.93-2.31,0-4.27,.11-6.19-.05-.85-.07-1.66-.72-2.49-1.1,.77-.43,1.52-1.15,2.31-1.22,2.13-.17,4.29-.06,6.65-.06v-10.64c-2.13,.33-3.82,.73-5.52,.8-.89,.04-1.81-.47-2.72-.73,.85-.5,1.63-1.2,2.55-1.46,1.53-.43,3.13-.58,5.5-.98-1.94-3.84-3.63-7.2-5.32-10.55-.16-.18-.31-.37-.47-.55l-.05-.05c-.9-1.07-1.8-2.14-2.69-3.21l-.05-.05c-.36-.35-.71-.69-1.07-1.04-2.2-1.55-4.39-3.1-6.59-4.65-.28-.1-.57-.2-.85-.3-.17,.19-.34,.39-.51,.58-.31,1.76-.63,3.51-.94,5.27l-.05,.15c-.64-.15-1.28-.31-1.91-.46,.05-.19,.1-.37,.15-.56,.3-1.81,.61-3.62,.91-5.44-.07-.16-.12-.33-.13-.5-.46-.23-.93-.47-1.39-.7-.27-.13-.54-.25-.8-.38-.88-.21-1.77-.43-2.65-.64-.35-.05-.7-.09-1.05-.14-.91-.28-1.89-.43-2.69-.91-.41-.25-.47-1.07-.68-1.64,1.32,.1,2.64,.2,3.96,.3,.33,.06,.66,.11,.99,.17,.92,.22,1.84,.45,2.77,.67,.74,.3,1.48,.6,2.22,.9,.87,.35,1.73,.69,2.6,1.04,.41,.19,.82,.38,1.24,.58,.31,.19,.62,.39,.94,.58,.37,.2,.74,.4,1.11,.6,4.25,2.53,7.75,5.84,10.36,10.05,.2,.31,.4,.63,.61,.94,.2,.33,.39,.66,.59,.99,1.23,3.27,2.45,6.55,3.68,9.82l.18,1.02,.39,2.25c0,2.94,0,5.88-.01,8.81-.08,.43-.17,.86-.25,1.3-.11,.66-.22,1.32-.32,1.98-.12,.38-.24,.76-.35,1.14-.21,.86-.41,1.72-.62,2.58-.36,.93-.72,1.85-1.09,2.78-1.58,2.89-3.17,5.78-4.75,8.67l-.78,1.02c-.64,.75-1.27,1.5-1.91,2.25-.82,.85-1.64,1.7-2.46,2.54-2,1.55-4.01,3.1-6.01,4.64-.37,.22-.74,.45-1.1,.67-.91,.5-1.82,.99-2.73,1.49-.36,.17-.72,.34-1.08,.51l-1.5,.66c-2.2,.69-4.41,1.37-6.61,2.06-.47,.1-.94,.19-1.41,.29-.44,.07-.88,.14-1.31,.21-.71,.06-1.41,.12-2.12,.18-.37,.06-.75,.11-1.12,.17-.43-.02-.85-.03-1.28-.05-1.2-.02-2.39-.03-3.59-.05-.78-.07-1.56-.14-2.34-.21-.44-.08-.88-.17-1.32-.25-1.72-.42-3.43-.84-5.14-1.26-.41-.18-.81-.37-1.22-.55-.86-.36-1.73-.72-2.59-1.07-.41-.18-.82-.37-1.24-.55-.32-.19-.63-.38-.95-.56-.38-.21-.75-.41-1.13-.62-.19-.13-.38-.25-.56-.38-.16-.09-.33-.19-.49-.28-.24-.16-.49-.32-.73-.48h.03c-.16,0-.28-.07-.36-.21-.36-.28-.72-.56-1.08-.84-1.85-1.86-3.69-3.71-5.54-5.57-.27-.34-.53-.68-.8-1.02-.48-.71-.95-1.43-1.43-2.14-.22-.38-.44-.76-.66-1.13-.53-1.04-1.06-2.08-1.59-3.13-.48-1.29-.95-2.58-1.43-3.88-.31-1.2-.61-2.41-.92-3.61-.06-.43-.13-.86-.19-1.3-.09-.86-.18-1.72-.26-2.58-.01-1.6-.03-3.2-.04-4.79,.09-1.21,.18-2.42,.27-3.63,.08-.44,.17-.87,.25-1.31,.1-.47,.2-.95,.29-1.42,.1-.42,.2-.83,.31-1.25,.08-.31,.16-.62,.24-.93,.34-.9,.67-1.81,1.01-2.71,.18-.52,.37-1.04,.55-1.56,.73-1.46,1.47-2.93,2.2-4.39,.32-.54,.65-1.07,.97-1.61,.24-.34,.48-.7,.71-1.05Z"/>
      <path class="cls-11" d="M486.52,94.31c-.9-.28-1.8-.55-2.69-.83-.55-.28-1.09-.55-1.64-.83-.36-.15-.72-.29-1.08-.44-.37-.21-.74-.43-1.11-.64-.36-.18-.71-.35-1.07-.53-.33-.2-.65-.41-.98-.61-1.32-.96-2.63-1.92-3.95-2.87-.32-.3-.64-.61-.97-.91-.23-.22-.45-.44-.68-.66-.5-.52-1-1.03-1.5-1.55l-.09-.12c-.28-.32-.56-.64-.85-.96-.28-.37-.56-.75-.84-1.12-.25-.35-.5-.71-.75-1.06-.12-.17-.24-.35-.37-.52-.24-.37-.47-.75-.71-1.12-.31-.53-.62-1.07-.92-1.6-.36-.74-.72-1.47-1.08-2.21-.21-.49-.42-.97-.64-1.46-.5-1.68-1.01-3.36-1.51-5.04-.06-.3-.11-.59-.17-.89-.12-.61-.24-1.22-.36-1.84-.07-.63-.14-1.27-.2-1.9-.02-2.04-.04-4.08-.06-6.12,.07-.43,.14-.85,.22-1.28,.12-1.02,.24-2.03,.36-3.05,.09-.48,.17-.97,.26-1.45h0c.32-1.03,.64-2.06,.96-3.1,.54-1.33,1.07-2.66,1.61-3.99,.16-.31,.31-.61,.47-.92,.6-1.1,1.19-2.19,1.79-3.29,.12-.18,.23-.35,.35-.53,.62-.9,1.24-1.79,1.86-2.69,.14-.19,.29-.38,.43-.57,.58-.7,1.16-1.4,1.74-2.1,1.14-1.13,2.27-2.25,3.41-3.38,.53-.46,1.06-.92,1.59-1.38,.01-.17,.11-.25,.28-.23l.13-.09c.18-.13,.36-.26,.54-.4,.39-.26,.79-.53,1.18-.79,.2-.13,.39-.26,.59-.4,.35-.22,.7-.45,1.06-.67,.54-.33,1.08-.66,1.61-.99,4.07-1.38,8.08-3.07,12.25-4.02,2.69-.61,5.66-1.63,8.77-.09-3.34,.51-6.37,.88-9.36,1.48-.77,.16-1.39,1.04-2.09,1.59,.67,1.59,1.45,3.14,1.95,4.78,.24,.79-.06,1.75-.11,2.63-.71-.56-1.67-.97-2.07-1.7-.89-1.64-1.51-3.44-2.43-5.64-3.2,1.71-6.23,3.33-9.25,4.95-.14,.37-.27,.74-.41,1.12,1.54,1.25,3.14,2.43,4.56,3.81,.43,.42,.34,1.37,.48,2.08-.71-.15-1.65-.07-2.1-.5-1.54-1.5-2.91-3.18-4.8-5.3-3.47,4.3-6.49,8.03-9.5,11.77,.13,.34,.27,.68,.4,1.02,2.31,.58,4.64,1.11,6.93,1.76,.75,.21,1.41,.7,2.12,1.07-.71,.44-1.44,1.28-2.12,1.23-1.77-.12-3.53-.58-5.26-1.02-1-.25-1.95-.71-3.51-1.3-1.02,4.71-1.96,9.02-2.93,13.5,1.97,.13,3.16,.09,4.3,.33,.57,.12,1.03,.74,1.54,1.14-.53,.4-1.02,1.04-1.61,1.15-1.18,.23-2.42,.19-4.4,.3,1.23,4.1,2.31,7.7,3.39,11.31,.47,1.1,.94,2.2,1.41,3.3,2.38,2.76,4.75,5.51,7.13,8.27,.74,.53,1.48,1.07,2.22,1.6,3.31,1.59,6.63,3.17,9.94,4.76,2.02,.25,4.04,.5,6.06,.75,.19,0,.34,.08,.45,.22,.52,.03,1.04,.06,1.56,.09,2.05-.13,4.1-.25,6.15-.38,1.26-.24,2.52-.49,3.78-.73,.36-.13,.72-.26,1.08-.38,.66-.32,1.33-.64,1.99-.96,.43-.04,.85-.08,1.28-.12,.53-.2,1.07-.39,1.6-.59,3.11-1.98,6.21-3.97,9.32-5.95,.19-.16,.37-.33,.56-.49l.03-.03c.17-.16,.34-.33,.52-.49l.05-.04c.17-.15,.34-.31,.5-.46l.07-.07c.7-.72,1.4-1.45,2.1-2.17l.03-.04c.17-.18,.33-.36,.5-.54l.02-.02c.17-.2,.34-.39,.51-.59,.16-.19,.32-.38,.47-.57,.18-.23,.35-.47,.53-.7,.85-1.36,1.93-2.63,2.5-4.1,1.18-3.06,2.08-6.22,3.09-9.34,.35-.63,.7-1.27,1.05-1.9,.26-3.62,.52-7.25,.81-11.16-2.65,.32-4.52,.64-6.39,.7-.72,.02-1.46-.56-2.19-.86,.66-.47,1.27-1.19,2-1.35,1.81-.38,3.67-.51,6.33-.84-1.98-4.13-3.72-7.75-5.46-11.37-.69-.9-1.38-1.8-2.06-2.7-2.89-2.35-5.78-4.7-8.67-7.04-.11-.13-.23-.26-.34-.39-.13,.48-.26,.96-.4,1.45-.06,.38-.11,.75-.17,1.13-.28,1.13-.56,2.25-.85,3.38-.1,.31-.2,.62-.3,.93-.36-.39-1-.76-1.04-1.17-.09-1.04,.1-2.11,.17-3.16h0c.09-1.12,.17-2.24,.26-3.35-.13,.02-.2-.04-.22-.17-.22-.09-.44-.17-.66-.26-.7-.24-1.4-.48-2.09-.73-.33-.15-.66-.31-1-.46l-.07-.02c-1.18-.36-2.34-.8-3.53-1.06-1.41-.31-1.52-1.03-.87-2.12,1.11,.19,2.22,.38,3.33,.57,.56,.14,1.13,.29,1.69,.43,.56,.18,1.12,.35,1.67,.53,.9,.37,1.8,.73,2.7,1.1,.5,.19,1.01,.39,1.51,.58,.36,.19,.72,.39,1.08,.58,1.12,.68,2.23,1.37,3.35,2.05,.03,.16,.13,.21,.28,.17,.8,.63,1.59,1.25,2.38,1.88,.31,.28,.61,.55,.92,.83,.78,.79,1.57,1.58,2.35,2.36,.27,.31,.53,.62,.8,.93,.28,.37,.56,.74,.85,1.11,.26,.36,.52,.71,.79,1.07,.66,1.07,1.33,2.14,1.99,3.21,.36,.75,.72,1.5,1.08,2.25,.21,.48,.42,.97,.62,1.45,.69,2.59,1.37,5.18,2.06,7.77,.07,.64,.14,1.27,.21,1.91,.02,2.04,.04,4.08,.06,6.12-.09,.98-.19,1.97-.28,2.95-.1,.46-.2,.91-.3,1.37-.07,.27-.14,.54-.21,.81-.31,1.17-.62,2.35-.93,3.52-.19,.62-.37,1.25-.56,1.87-.78,1.63-1.56,3.27-2.34,4.9-.33,.55-.65,1.11-.98,1.66-.21,.36-.42,.72-.63,1.08-.13,.19-.26,.37-.38,.56-.24,.35-.48,.71-.72,1.06-2.39,2.56-4.79,5.12-7.18,7.68-.53,.41-1.05,.83-1.58,1.24-.18,.13-.37,.27-.55,.4-.36,.25-.72,.5-1.08,.74-.17,.12-.34,.24-.51,.36-.37,.23-.75,.46-1.12,.69-.55,.31-1.09,.63-1.64,.94-.36,.17-.72,.35-1.08,.52-.84,.41-1.69,.82-2.53,1.22-.43,.17-.86,.35-1.3,.52-1.18,.39-2.36,.77-3.54,1.15-1.35,.31-2.7,.62-4.05,.92-.46,.06-.91,.13-1.37,.19-3.48,.01-6.96,.01-10.44,.02-1.17-.25-2.34-.5-3.51-.75-.54-.21-1.09-.38-1.63-.55Z"/>
      <path class="cls-22" d="M492.3,26.13c.69-.55,1.32-1.43,2.09-1.59,2.99-.6,6.02-.98,9.36-1.48-3.11-1.54-6.08-.52-8.77,.09-4.17,.95-8.18,2.64-12.25,4.02,6.34-4.02,13.28-5.6,20.73-5.17,1.26,.07,2.52,.2,3.78,.3-.64,1.09-.53,1.81,.87,2.12,1.2,.26,2.36,.7,3.53,1.06-1.94-.32-3.87-.65-6.13-1.03-.25,1.98-.4,3.94-.8,5.85-.15,.7-.91,1.28-1.4,1.91-.33-.66-.91-1.32-.93-2-.05-1.86,.13-3.73,.24-5.93-3.67,.15-7.15-.04-10.32,1.85Z"/>
      <path class="cls-24" d="M304.35,31.01c-.97-2.41-2.72,.11-3.95-.62,2.78-.68,5.55-1.35,8.33-2.03-.08,2.25,1.72,1.27,2.75,1.59-1.05,.17-2.1,.33-3.48,.56,.27,2.05,.63,4.16,.8,6.28,.04,.56-.47,1.16-.73,1.75-.48-.45-1.25-.82-1.37-1.35-.47-2-.72-4.05-1.06-6.11-.39-.03-.84-.05-1.29-.07Z"/>
      <path class="cls-23" d="M412.31,23.95c.22,.56,.28,1.39,.68,1.64,.79,.48,1.78,.62,2.69,.91-1.39-.1-2.79-.19-4.07-.28-.46,.58-.88,1.1-1.29,1.63-.11-1.49-.85-1.23-1.73-.63-.66-.35-1.33-1-1.99-1-1.71,0-3.42,.29-5.13,.46,2.74-.53,5.48-1.07,8.37-1.63-.16-.25-.45-.71-.73-1.16,1.06,.01,2.13,.03,3.2,.06Z"/>
      <path class="cls-29" d="M218.18,88.32c.35,.66,.69,1.32,1.04,1.98-.7,1.51-1.41,3.01-2.11,4.52-.72-.12-1.45-.25-2.17-.37,1.08-2.05,2.16-4.09,3.24-6.13Z"/>
      <path class="cls-23" d="M401.95,24.46c-3.61,1.27-7.23,2.53-10.84,3.8,3.62-1.27,7.23-2.53,10.84-3.8Z"/>
      <path class="cls-29" d="M199.53,91.59c-.88-.19-1.75-.39-2.63-.58,.86-1.91,1.72-3.82,2.58-5.72,.24,1.01,.49,2.01,.73,3.02-.23,1.09-.45,2.19-.68,3.28Z"/>
      <path class="cls-22" d="M491.66,95.57c3.48-.01,6.96-.01,10.44-.02-3.48,.01-6.96,.01-10.44,.02Z"/>
      <path class="cls-23" d="M443.38,50.6c-1.23-3.27-2.46-6.55-3.68-9.82,1.22,3.28,2.45,6.55,3.68,9.82Z"/>
      <path class="cls-22" d="M536.7,51.16c-.69-2.59-1.37-5.18-2.06-7.77,.68,2.59,1.37,5.18,2.06,7.77Z"/>
      <path class="cls-23" d="M412.39,97c2.2-.69,4.41-1.37,6.61-2.06-2.21,.69-4.41,1.37-6.61,2.06Z"/>
      <path class="cls-22" d="M462.3,58.47c.02,2.04,.04,4.08,.06,6.12-.02-2.04-.04-4.08-.06-6.12Z"/>
      <path class="cls-22" d="M536.96,59.18c-.02-2.04-.04-4.08-.06-6.12,.02,2.04,.04,4.08,.06,6.12Z"/>
      <path class="cls-29" d="M200.72,34.57c.54-.46,1.08-.92,1.62-1.37,.57,.53,1.15,1.07,1.72,1.6-.43,.45-.85,.9-1.28,1.34-.69-.53-1.38-1.05-2.06-1.57Z"/>
      <path class="cls-22" d="M532.34,74.6c.78-1.63,1.56-3.27,2.34-4.9-.78,1.63-1.56,3.26-2.34,4.9Z"/>
      <path class="cls-22" d="M463.1,69.22c.5,1.68,1.01,3.36,1.51,5.04-.5-1.68-1.01-3.36-1.51-5.04Z"/>
      <path class="cls-23" d="M374.68,44.12c-.73,1.46-1.47,2.93-2.2,4.39,.74-1.46,1.47-2.92,2.2-4.39Z"/>
      <path class="cls-23" d="M369.57,61.33c.01,1.6,.03,3.2,.04,4.79-.01-1.6-.03-3.19-.04-4.79Z"/>
      <path class="cls-23" d="M401.56,97.75c1.2,.02,2.39,.03,3.59,.05-1.2-.02-2.39-.04-3.59-.05Z"/>
      <path class="cls-22" d="M465.71,45.6c-.54,1.33-1.07,2.66-1.61,3.99,.53-1.33,1.07-2.66,1.61-3.99Z"/>
      <path class="cls-23" d="M384.01,33.01c-.87,.79-1.74,1.58-2.61,2.37,.87-.79,1.74-1.58,2.61-2.37Z"/>
      <path class="cls-23" d="M431.41,86.96c.82-.85,1.64-1.7,2.46-2.54-.82,.85-1.64,1.7-2.46,2.54Z"/>
      <path class="cls-22" d="M503.47,95.36c1.35-.31,2.7-.62,4.05-.92-1.35,.3-2.7,.61-4.05,.92Z"/>
      <path class="cls-23" d="M370.99,73.61c.48,1.29,.95,2.58,1.43,3.88-.48-1.3-.96-2.59-1.43-3.88Z"/>
      <path class="cls-22" d="M467.97,41.38c-.6,1.1-1.19,2.19-1.79,3.29,.6-1.09,1.19-2.19,1.79-3.29Z"/>
      <path class="cls-22" d="M535.23,67.83c.31-1.17,.62-2.35,.93-3.52-.31,1.17-.62,2.34-.93,3.52Z"/>
      <path class="cls-22" d="M470.18,38.17c-.62,.9-1.24,1.79-1.86,2.69,.62-.9,1.24-1.8,1.86-2.69Z"/>
      <path class="cls-22" d="M462.87,54.14c-.12,1.02-.24,2.03-.36,3.05,.13-1.02,.24-2.03,.36-3.05Z"/>
      <path class="cls-23" d="M441.32,72.47c.36-.93,.72-1.86,1.09-2.78-.37,.93-.73,1.86-1.09,2.78Z"/>
      <path class="cls-23" d="M405.77,23.91c-.97,.12-1.94,.24-2.91,.36,.97-.12,1.94-.24,2.91-.36Z"/>
      <path class="cls-23" d="M371.93,50.08c-.34,.9-.67,1.81-1.01,2.71,.34-.91,.68-1.81,1.01-2.71Z"/>
      <path class="cls-22" d="M472.35,35.49c-.58,.7-1.16,1.4-1.74,2.1,.58-.69,1.16-1.39,1.74-2.1Z"/>
      <path class="cls-22" d="M516.63,24.94c-.9-.37-1.8-.73-2.7-1.1,.89,.37,1.79,.73,2.7,1.1Z"/>
      <path class="cls-23" d="M443.95,53.88l-.39-2.25,.39,2.25Z"/>
      <path class="cls-23" d="M422.26,26c-.74-.3-1.48-.6-2.22-.9,.74,.3,1.48,.6,2.22,.9Z"/>
      <path class="cls-22" d="M534.01,41.94c-.36-.75-.72-1.5-1.08-2.25,.37,.76,.72,1.51,1.08,2.25Z"/>
      <path class="cls-22" d="M465.25,75.72c.36,.74,.72,1.47,1.08,2.21-.36-.74-.72-1.48-1.08-2.21Z"/>
      <path class="cls-22" d="M477.34,30.74c-.53,.46-1.06,.92-1.59,1.38,.53-.46,1.06-.92,1.59-1.38Z"/>
      <path class="cls-22" d="M470.85,84.43c.5,.52,1,1.03,1.5,1.55-.5-.52-1-1.03-1.5-1.55Z"/>
      <path class="cls-22" d="M520.86,87.88c.53-.41,1.05-.83,1.58-1.24-.53,.41-1.05,.82-1.58,1.24Z"/>
      <path class="cls-23" d="M380.72,36.06c-.47,.5-.94,1.01-1.41,1.51,.46-.5,.94-1,1.41-1.51Z"/>
      <path class="cls-22" d="M486.52,94.31c.54,.17,1.09,.34,1.63,.51-.54-.17-1.09-.34-1.63-.51Z"/>
      <path class="cls-22" d="M462.57,66.49c.12,.61,.24,1.23,.36,1.84-.12-.61-.24-1.23-.36-1.84Z"/>
      <path class="cls-22" d="M482.18,92.65c.55,.28,1.09,.55,1.64,.83-.54-.28-1.09-.55-1.64-.83Z"/>
      <path class="cls-22" d="M512.25,23.31c-.56-.14-1.13-.29-1.69-.43,.56,.14,1.13,.28,1.69,.43Z"/>
      <path class="cls-29" d="M208.88,22.32c-.17-.57-.34-1.14-.52-1.7,.17,.57,.35,1.13,.52,1.7Z"/>
      <path class="cls-22" d="M479.47,29.23c-.39,.26-.79,.53-1.18,.79,.4-.26,.79-.52,1.18-.79Z"/>
      <path class="cls-23" d="M428.14,28.8c-.37-.2-.74-.4-1.11-.6,.37,.2,.74,.4,1.11,.6Z"/>
      <path class="cls-22" d="M519.23,89.02c.36-.25,.72-.5,1.08-.74-.36,.25-.72,.49-1.08,.74Z"/>
      <path class="cls-23" d="M369.87,68.7c.06,.43,.13,.86,.19,1.3-.06-.44-.12-.87-.19-1.3Z"/>
      <path class="cls-22" d="M530.72,77.33c.21-.36,.42-.72,.63-1.08-.2,.37-.42,.72-.63,1.08Z"/>
      <path class="cls-23" d="M417.27,24.42c-.33-.06-.66-.11-.99-.17,.33,.06,.66,.12,.99,.17Z"/>
      <path class="cls-23" d="M443.02,67.11c.12-.38,.24-.76,.35-1.14-.12,.38-.23,.76-.35,1.14Z"/>
      <path class="cls-23" d="M443.7,63.99c.08-.43,.17-.86,.25-1.3-.09,.43-.17,.87-.25,1.3Z"/>
      <path class="cls-22" d="M529.62,78.95c.24-.35,.48-.71,.72-1.06-.24,.35-.48,.71-.72,1.06Z"/>
      <path class="cls-22" d="M481.11,28.16c-.35,.22-.7,.45-1.06,.67,.36-.22,.71-.44,1.06-.67Z"/>
      <path class="cls-22" d="M519.22,26.1c-.36-.19-.72-.39-1.08-.58,.35,.19,.72,.39,1.08,.58Z"/>
      <path class="cls-22" d="M467.25,79.53c.24,.37,.48,.75,.71,1.12-.23-.37-.47-.75-.71-1.12Z"/>
      <path class="cls-23" d="M406.43,97.85c.37-.06,.75-.11,1.12-.17-.38,.05-.75,.11-1.12,.17Z"/>
      <path class="cls-22" d="M536.38,63.5c.1-.46,.2-.91,.3-1.37-.1,.46-.2,.91-.3,1.37Z"/>
      <path class="cls-23" d="M409.67,97.5c.44-.07,.88-.14,1.31-.21-.44,.07-.87,.14-1.31,.21Z"/>
      <path class="cls-23" d="M374.01,80.61c.22,.38,.44,.76,.66,1.13-.22-.37-.44-.75-.66-1.13Z"/>
      <path class="cls-23" d="M435.79,82.17l.78-1.02-.78,1.02Z"/>
      <path class="cls-22" d="M468.33,81.17c.25,.35,.5,.71,.75,1.06-.25-.35-.5-.71-.75-1.06Z"/>
      <path class="cls-23" d="M397.9,97.29c.44,.08,.88,.17,1.32,.25-.44-.09-.88-.17-1.32-.25Z"/>
      <path class="cls-23" d="M389.48,29.18c-.38,.23-.77,.47-1.15,.7,.38-.23,.77-.46,1.15-.7Z"/>
      <path class="cls-23" d="M391.53,95.48c.41,.18,.81,.37,1.22,.55-.4-.18-.81-.36-1.22-.55Z"/>
      <path class="cls-23" d="M370.09,56.39c-.08,.44-.17,.88-.25,1.31,.08-.44,.16-.87,.25-1.31Z"/>
      <path class="cls-22" d="M469.91,83.35c.28,.32,.56,.64,.85,.96-.28-.32-.56-.64-.85-.96Z"/>
      <path class="cls-23" d="M370.69,53.72c-.1,.42-.2,.83-.31,1.25,.1-.42,.2-.83,.31-1.25Z"/>
      <path class="cls-23" d="M387.84,30.2c-.37,.26-.74,.51-1.1,.77,.37-.25,.74-.51,1.1-.77Z"/>
      <path class="cls-22" d="M526.16,31.03c-.31-.28-.61-.55-.92-.83,.3,.28,.61,.55,.92,.83Z"/>
      <path class="cls-23" d="M376.1,83.89c.27,.34,.53,.68,.8,1.02-.27-.35-.53-.68-.8-1.02Z"/>
      <path class="cls-23" d="M420.5,94.28c.36-.17,.72-.34,1.08-.51-.37,.17-.72,.34-1.08,.51Z"/>
      <path class="cls-23" d="M426.09,27.61c-.41-.19-.82-.39-1.24-.58,.42,.2,.83,.39,1.24,.58Z"/>
      <path class="cls-23" d="M376.35,41.46c-.23,.35-.46,.71-.7,1.06,.23-.35,.47-.71,.7-1.06Z"/>
      <path class="cls-22" d="M473.03,86.64c.32,.3,.64,.61,.97,.91-.32-.3-.65-.61-.97-.91Z"/>
      <path class="cls-23" d="M377.46,39.88c-.23,.33-.46,.67-.69,1,.24-.34,.46-.67,.69-1Z"/>
      <path class="cls-23" d="M439.11,39.79c-.2-.31-.4-.63-.61-.94,.21,.31,.41,.63,.61,.94Z"/>
      <path class="cls-23" d="M387.71,93.86c.41,.18,.82,.37,1.24,.55-.42-.18-.83-.37-1.24-.55Z"/>
      <path class="cls-23" d="M386.2,31.37c-.34,.25-.68,.49-1.02,.74,.33-.25,.68-.5,1.02-.74Z"/>
      <path class="cls-22" d="M530.94,36.49c-.26-.36-.52-.71-.79-1.07,.27,.36,.53,.72,.79,1.07Z"/>
      <path class="cls-22" d="M517.6,90.08c.37-.23,.75-.46,1.12-.69-.38,.22-.75,.45-1.12,.69Z"/>
      <path class="cls-23" d="M382.44,90.47c.36,.28,.72,.56,1.08,.84-.37-.28-.72-.56-1.08-.84Z"/>
      <path class="cls-22" d="M511.05,93.28c.43-.17,.86-.35,1.3-.52-.43,.18-.87,.35-1.3,.52Z"/>
      <path class="cls-22" d="M477.95,90.43c.33,.2,.65,.41,.98,.61-.33-.21-.66-.41-.98-.61Z"/>
      <path class="cls-22" d="M529.31,34.32c-.27-.31-.53-.62-.8-.93,.27,.31,.53,.62,.8,.93Z"/>
      <path class="cls-22" d="M514.88,91.54c.36-.17,.72-.35,1.08-.52-.36,.17-.72,.35-1.08,.52Z"/>
      <path class="cls-23" d="M385.63,92.67c.38,.21,.75,.41,1.13,.62-.38-.2-.76-.41-1.13-.62Z"/>
      <path class="cls-23" d="M424.3,92.28c.37-.22,.74-.45,1.1-.67-.36,.22-.73,.44-1.1,.67Z"/>
      <path class="cls-22" d="M479.99,91.57c.37,.21,.74,.43,1.11,.64-.36-.21-.74-.43-1.11-.64Z"/>
      <path class="cls-23" d="M384.57,92.01c.16,.09,.33,.19,.49,.28-.16-.09-.33-.19-.49-.28Z"/>
      <polygon class="cls-23" points="383.87 91.52 383.84 91.53 383.83 91.61 383.87 91.52"/>
      <path class="cls-22" d="M463.13,52.7h0c-.05-.06-.1-.11-.14-.16,.05,.05,.1,.1,.14,.16Z"/>
      <polygon class="cls-22" points="477.75 30.42 477.62 30.51 477.62 30.33 477.75 30.42"/>
      <path class="cls-22" d="M522.85,28.33c-.16,.04-.25-.02-.28-.17l.21-.03,.07,.2Z"/>
      <path class="cls-8" d="M207.2,21.9c-2.17,3.04-4.03,5.94-6.19,8.57-1.6,1.95-3.56,3.61-5.43,5.33-8.73,8.07-17.52,16.07-26.21,24.17-7.23,6.74-14.39,13.55-21.48,20.43-1.29,1.25-2.1,3-3.13,4.51,1.6,.68,3.14,1.69,4.81,1.98,6.49,1.13,13,2.29,19.55,2.98,13.95,1.46,27.83,3.24,41.56,6.21,5.13,1.11,10.41,1.53,15.78,2.29-1.26,5.23-3.64,10.45-6.65,15.4-8.4,13.81-20.42,22.73-36.39,25.59-13.82,2.48-26.85-.56-38.72-7.9-19.51-12.08-30.75-29.91-35.09-52.22-3.55-18.19-1.07-35.5,8.78-51.37,8.81-14.19,21.56-22.95,38.2-25.02,15.04-1.88,28.74,2.39,40.98,11.23,3.24,2.32,6.2,5.01,9.63,7.82Zm-38.83,15.43c-.47-1.51-.81-3.09-1.44-4.53-3.12-7.15-9.54-9.03-16.43-10-.81-.11-1.73,.33-2.56,.63-7.01,2.59-10.29,16.2-6.61,22.36,1.68,2.81,3.54,5.22,6.78,6.27,9.05,2.95,19.86-4.98,20.26-14.73Z"/>
      <path class="cls-2" d="M217.11,94.81c.7-1.51,1.41-3.01,2.11-4.52,2.06-3.82,4.12-7.64,6.18-11.46,.37,.06,.75,.12,1.12,.18,.44,5.52,.87,11.05,1.36,17.22-4.1-.53-7.44-.98-10.77-1.42Z"/>
      <path class="cls-1" d="M199.53,91.59c.23-1.1,.46-2.19,.69-3.29,1.54-3.82,3.08-7.64,4.62-11.47,.21-.01,.41-.02,.62-.03,1.01,5.35,2.02,10.7,3.09,16.38-3.27-.57-6.15-1.08-9.02-1.59Z"/>
      <path class="cls-1" d="M179.65,88.7c2.2-3.77,4.2-7.21,6.56-11.26,.97,4.52,1.77,8.28,2.65,12.37-3.13-.38-5.92-.71-9.21-1.11Z"/>
      <path class="cls-3" d="M204.06,34.79c-.57-.53-1.15-1.07-1.72-1.6,1.5-1.99,3-3.99,4.6-6.12,1.26,4.77,2.45,9.3,3.64,13.82-.12,.1-.24,.21-.36,.31-2.06-2.13-4.11-4.27-6.16-6.41Z"/>
      <path class="cls-1" d="M196,38.66c1.13,4.52,2.12,8.5,3.23,12.94-2.98-3.14-5.61-5.92-8.37-8.84,1.42-1.12,3.14-2.5,5.14-4.1Z"/>
      <path class="cls-3" d="M185.81,61.66c-2.89-2.59-5.15-4.62-7.51-6.73,1.53-1.44,2.87-2.7,4.49-4.22,1.01,3.66,1.9,6.89,3.02,10.95Z"/>
      <path class="cls-3" d="M172.8,70.92c-1.87-1.93-3.75-3.86-5.72-5.9,.92-.74,1.82-1.46,2.94-2.36,1.05,2.74,2.06,5.36,3.06,7.98-.09,.09-.18,.19-.28,.28Z"/>
      <path class="cls-3" d="M173.08,70.64c.06,.21,.12,.43,.18,.64-.15-.12-.3-.24-.46-.36,.1-.09,.19-.19,.28-.28Z"/>
      <path class="cls-28" d="M7.46,84.51c8.82-.46,17.68-.94,26.54-1.37,6.23-.3,12.47-.5,18.69-.87,.82-.05,1.59-.8,2.39-1.22-.55-.93-.88-2.19-1.69-2.74-4.59-3.14-9.37-6-13.92-9.2-1.47-1.04-2.47-2.78-3.62-4.25-1.29-1.66-2.49-3.37-3.96-5.37,20.11,3.52,40.13,7.02,60.15,10.52,.18,.3,.37,.59,.55,.89-7.49,10.06-14.73,20.26-20.53,31.39-5.82,11.17-11.9,22.22-17.86,33.32-.26-.08-.51-.17-.77-.25,.2-1.97,.4-3.93,.59-5.9,.72-7.12,1.42-14.23,2.15-21.35,.26-2.5,.64-4.98,.83-7.48,.2-2.7-1.51-3.92-4.01-2.84-7.42,3.18-15.17,5.05-23.08,6.59-5.57,1.09-10.99,2.96-16.46,4.53-3.03,.87-6.02,1.86-9.05,2.74-1.79,.52-2.38-.46-2.11-2.05,.9-5.25,1.8-10.5,2.84-15.73,.63-3.08,1.51-6.1,2.33-9.36Z"/>
      <path class="cls-4" d="M304.35,31.01c.45,.02,.9,.04,1.29,.06,.34,2.06,.59,4.11,1.06,6.11,.12,.53,.9,.9,1.37,1.35,.26-.58,.77-1.19,.73-1.75-.17-2.12-.52-4.23-.8-6.28,1.39-.22,2.43-.39,3.48-.56,2.42,.14,4.85,.29,7.67,.46,0,2.58-.05,4.92,.04,7.25,.02,.61,.49,1.2,.75,1.8,.45-.56,1.23-1.1,1.28-1.69,.16-2.16,.06-4.33,.06-7.18,3.84,1.75,7.37,3.35,10.99,5-1.1,1.93-2,3.35-2.73,4.86-.2,.42,.14,1.09,.23,1.65,.53-.2,1.28-.25,1.56-.64,.89-1.23,1.6-2.58,2.79-4.57,2.91,3.66,5.55,6.98,8.41,10.57-2.57,1.03-4.51,1.73-6.37,2.61-.5,.24-.74,1.01-1.11,1.53,.62,.15,1.33,.58,1.85,.41,1.97-.65,3.87-1.5,6.3-2.48,.87,3.54,1.74,7.05,2.58,10.46-3.33,.82-6.28,1.54-9.22,2.26,.06,.36,.13,.72,.19,1.09,2.92,1.8,5.8-1.4,8.96-.46-.16,6.4-1.5,12.46-4.79,18.03-2.48-1.41-4.93-2.88-7.47-4.16-.51-.26-1.37,.19-2.07,.32,.4,.6,.67,1.48,1.23,1.76,2.54,1.23,5.17,2.28,7.76,3.4-3.06,4.64-6.6,8.82-11.31,11.94-1.75-2.85-3.39-5.65-5.2-8.32-.39-.57-1.42-.71-2.15-1.05,.06,.74-.11,1.61,.23,2.18,1.66,2.79,3.45,5.5,5.33,8.46-3.99,2.16-8.09,4.33-12.93,4.46-.68-3.13-1.3-6.27-2.11-9.36-.15-.59-1.06-.99-1.61-1.47-.15,.78-.57,1.62-.41,2.32,.68,2.99,1.53,5.93,2.32,8.89h-.01c-.55,.19-1.1,.37-1.66,.54-4.51-.74-9.02-1.47-13.52-2.21,1.05-3.02,2.13-6.03,3.09-9.07,.14-.43-.37-1.06-.58-1.6-.53,.36-1.4,.63-1.52,1.1-.81,3-1.47,6.04-2.17,9.07-3.45-2.38-6.9-4.76-10.35-7.14,1.21-1.4,2.51-2.74,3.59-4.24,.5-.69,.57-1.68,.83-2.53-.81,.33-1.78,.48-2.41,1.02-1.3,1.1-2.43,2.41-3.63,3.63-2.71-2.99-4.49-6.46-5.73-10.59,1.48-.41,2.79-.68,4-1.17,.45-.18,.66-.93,.98-1.41-.51-.23-1.04-.7-1.52-.65-1.34,.14-2.66,.49-4.64,.9v-13.96c1.12,.12,2.17,.25,3.22,.35,1.08,.1,2.26,.49,3.21,.18,1.4-.46,2.63-1.42,3.93-2.17-1.28-.07-2.56-.12-3.83-.21-1.96-.13-3.91-.28-6.66-.48,2.22-4.97,4.21-9.44,6.29-14.11,2.41,1.37,4.31,2.55,6.31,3.53,.57,.28,1.42-.02,2.14-.06-.36-.63-.57-1.47-1.11-1.84-1.63-1.13-3.39-2.08-5.6-3.41,2.75-2.6,5.32-5.02,8.02-7.56,1.49,1.91,2.68,3.59,4.06,5.1,.5,.55,1.46,.67,2.21,.99-.18-.86-.13-1.87-.57-2.56-.97-1.51-2.19-2.87-3.54-4.58,1.48-.91,2.77-1.71,4.07-2.51,.56-.17,1.12-.33,1.68-.5,.18,.03,.34-.01,.48-.13,.91-.33,1.82-.66,2.73-.99h.03Zm2.36,26.36c-.09-.09-.18-.17-.27-.26,.42-1.55,1.07-3.09,1.21-4.67,.24-2.85-1.23-3.83-3.6-2.22-2.13,1.45-3.92,3.44-5.68,5.36-.39,.43,0,1.58,.04,2.4,2.44-.24,1.9,1.74,2.26,3.05,1.3,4.64,2.51,9.31,3.96,13.9,.2,.64,1.52,1,2.39,1.27,.16,.05,.71-.93,.97-1.48,.43-.93,.67-1.95,1.16-2.84,1.24-2.21,2.85-4.24,3.82-6.55,2.33-5.59-.33-8.86-6.26-7.96Zm12.67-7.37c2.12-.98,4.15-1.74,5.98-2.83,.74-.45,1.06-1.62,1.56-2.46-.87-.02-1.88-.33-2.59,0-2.13,.99-4.21,2.12-6.18,3.39-1.82,1.17-3.55,2.52-5.15,3.96-.4,.36-.19,1.41-.26,2.15,.63-.16,1.37-.18,1.88-.53,.87-.59,1.59-1.39,2.55-2.26,.88,2.13,1.59,3.8-.73,5.16-.53,.31-.69,1.27-1.01,1.93,.7-.04,1.41-.04,2.11-.13,.32-.04,.62-.26,1.12-.48,1.12,3.84,2.15,7.57,3.33,11.24,.22,.7,1.01,1.21,1.54,1.81,.32-.79,.89-1.58,.91-2.38,.02-.86-.47-1.73-.74-2.59-1-3.16-2.01-6.32-3.05-9.61,2.39-1.2,4.54-2.17,6.56-3.36,.87-.52,1.48-1.49,2.2-2.26-1.02,.01-2.16-.26-3.05,.09-2.05,.81-3.97,1.93-5.98,2.94-.34-1.24-.61-2.29-1-3.78Z"/>
      <path class="cls-21" d="M312.53,100.28c-.79-2.96-1.64-5.91-2.32-8.89-.16-.71,.26-1.54,.41-2.32,.56,.49,1.46,.88,1.61,1.47,.81,3.09,1.43,6.24,2.11,9.36-.6,.12-1.2,.25-1.81,.38Z"/>
      <path class="cls-24" d="M296.16,98.1c.71-3.03,1.36-6.07,2.17-9.07,.13-.47,1-.74,1.52-1.1,.21,.54,.71,1.17,.58,1.6-.96,3.05-2.04,6.05-3.09,9.07-.39-.16-.78-.33-1.18-.5Z"/>
      <path class="cls-13" d="M340.36,82.22c-2.59-1.12-5.22-2.17-7.76-3.4-.56-.27-.83-1.15-1.23-1.76,.7-.12,1.57-.57,2.07-.32,2.54,1.29,4.99,2.76,7.47,4.16-.18,.45-.36,.88-.55,1.32Z"/>
      <path class="cls-26" d="M284.19,88.84c1.2-1.22,2.32-2.53,3.63-3.63,.64-.54,1.6-.69,2.41-1.02-.26,.85-.34,1.85-.83,2.53-1.08,1.5-2.38,2.84-3.59,4.24-.54-.7-1.08-1.41-1.62-2.12Z"/>
      <path class="cls-24" d="M304.34,31.01c-.91,.33-1.82,.66-2.73,.99,.91-.33,1.82-.66,2.73-.99Z"/>
      <path class="cls-24" d="M301.12,32.13c-.56,.17-1.12,.33-1.68,.5,.57-.17,1.13-.34,1.68-.5Z"/>
      <path class="cls-21" d="M310.87,100.82c.55-.18,1.1-.36,1.66-.53-.56,.17-1.11,.35-1.66,.53Z"/>
      <path class="cls-25" d="M551.32,69.41c.7-5.77,1.32-10.93,2.04-16.81,4.04,0,8.71-.09,13.38,.02,6.97,.17,13.94,.49,20.92,.71,1.71,.05,2.21-.51,1.42-2.34-3.87-9.01-7.59-18.09-11.34-27.16-.16-.38-.09-.85-.17-1.83,3.45,2.89,6.81,5.17,9.5,8.08,8.59,9.28,18.81,16.59,28.61,24.43,6.91,5.53,6.67,5.4-.43,10.67-10.5,7.78-20.73,15.92-31.08,23.91-.27,.2-.53,.41-1.23,.37,1.33-2.89,2.96-5.68,3.92-8.69,1.65-5.14,2.94-10.41,4.19-15.66,.09-.38-1.37-1.64-2.05-1.6-5.77,.34-11.58,.56-17.28,1.46-5.25,.83-10.36,2.48-15.55,3.7-1.45,.33-2.96,.45-4.85,.74Z"/>
      <path class="cls-5" d="M401.46,26.66c1.71-.17,3.42-.46,5.13-.46,.66,0,1.33,.65,1.99,1v.05c-.12,1.86-.31,3.72-.28,5.58,.01,.41,.81,.8,1.24,1.2,.2-.46,.4-.91,.61-1.37,.05-1.61,.11-3.22,.16-4.83,.42-.52,.83-1.04,1.29-1.63,1.29,.09,2.68,.19,4.07,.28,.35,.05,.7,.09,1.05,.14,.88,.21,1.77,.43,2.65,.64,.27,.13,.54,.25,.8,.38,.46,.23,.93,.47,1.39,.7,.01,.18,.06,.34,.13,.5-.3,1.81-.61,3.62-.91,5.44-.05,.19-.1,.37-.15,.56,.1,.82,.2,1.65,.29,2.47,.54-.67,1.08-1.34,1.62-2.01l.05-.15c.31-1.76,.63-3.51,.94-5.27,.17-.19,.34-.39,.51-.58,.28,.1,.57,.2,.85,.3,2.2,1.55,4.39,3.1,6.59,4.65,.36,.35,.71,.69,1.07,1.04l.05,.05c-.47,1.04-.96,2.08-1.41,3.13-.49,1.13-.96,2.27-1.44,3.41,1.08-.56,2.18-1.08,3.22-1.69,.81-.48,1.55-1.08,2.32-1.62l.05,.05c.16,.18,.31,.37,.47,.55,1.69,3.35,3.38,6.71,5.32,10.55-2.37,.4-3.97,.55-5.5,.98-.91,.26-1.7,.96-2.55,1.46,.91,.26,1.83,.77,2.72,.73,1.7-.08,3.39-.47,5.52-.8v10.64c-2.35,0-4.51-.11-6.65,.06-.8,.06-1.54,.79-2.31,1.22,.83,.38,1.63,1.03,2.49,1.1,1.93,.17,3.88,.05,6.19,.05-1.54,6.65-4.17,12.2-8.47,16.93-2.21-1.96-4.39-3.97-6.67-5.85-.34-.28-1.13-.02-1.71-.01,.1,.63-.04,1.59,.32,1.85,2.39,1.71,4.89,3.28,7.36,4.89-.14,.24-.28,.49-.42,.73-.28,.27-.56,.54-.84,.8-3.3,2.34-6.58,4.72-9.93,6.98-.79,.53-1.85,.65-2.79,.95-1.04-3.23-2.04-6.48-3.19-9.66-.16-.43-1.12-.58-1.71-.85-.15,.63-.6,1.38-.41,1.88,1.14,2.99,2.42,5.92,3.65,8.87-.21,.36-.42,.71-.63,1.07-.68,.2-1.36,.41-2.03,.61-.77,.18-1.54,.36-2.31,.54-1.09,.17-2.18,.33-3.27,.5h-4.95c-.1-3.06-.09-6.14-.36-9.19-.07-.84-.98-1.61-1.51-2.41-.29,.85-.83,1.7-.82,2.55,.04,2.83,.28,5.66,.44,8.57h-3.59l-2.43-.57c-.5-.21-1-.41-1.5-.62h.01c-.17-.06-.33-.13-.5-.2-1.87-.83-3.74-1.66-5.61-2.48-.16-.17-.32-.35-.48-.52l-.02-.02c1.35-2.45,2.78-4.86,4.01-7.37,.38-.77,.26-1.79,.37-2.7-.83,.49-1.8,.85-2.44,1.51-.74,.76-1.23,1.79-1.76,2.74-.81,1.45-1.56,2.93-2.33,4.4-2.24-2.36-4.53-4.68-6.69-7.11-.55-.62-.69-1.59-1.02-2.41,1.68-1.04,3.39-2.03,5-3.17,.38-.27,.38-1.07,.56-1.62-.64-.03-1.44-.33-1.9-.05-1.62,.98-3.12,2.16-4.67,3.26-.54-.82-1.3-1.58-1.58-2.49-.87-2.81-1.55-5.68-2.41-8.9,1.75-.13,2.93-.09,4.03-.34,.58-.13,1.05-.79,1.57-1.2-.52-.38-1.01-.99-1.57-1.08-1.15-.17-2.33-.05-4.31-.05,.79-4.61,1.53-8.97,2.36-13.8,1.96,.72,3.24,1.37,4.61,1.63,1.57,.3,3.22,.36,4.82,.27,.5-.03,.97-.84,1.45-1.3-.55-.32-1.07-.82-1.67-.94-2.5-.52-5.02-.92-7.53-1.36-.13-.36-.26-.72-.4-1.08,2.87-3.85,5.74-7.71,8.73-11.74,1.94,1.77,3.26,3.14,4.77,4.28,.67,.51,1.71,.54,2.57,.8-.3-.82-.41-1.82-.95-2.43-1.18-1.34-2.57-2.48-4.31-4.11,3.25-1.99,6.13-3.75,9.25-5.65,1.1,2.19,1.92,4.08,2.98,5.82,.38,.62,1.32,.89,2.01,1.32,.04-.8,.34-1.7,.08-2.39-.66-1.75-1.56-3.4-2.46-5.3,1.43-.52,2.53-.9,3.62-1.28Zm2.62,24.99c.75-1.57,1.65-2.96,2.09-4.48,.7-2.39-.51-3.71-2.84-2.9-2.18,.76-4.24,2.01-6.15,3.34-1.36,.94-3.05,2.3-.23,3.76,.33,.17,.48,.94,.51,1.45,.3,5.21,.49,10.43,.91,15.63,.06,.71,1.09,1.46,1.84,1.93,.18,.11,1.08-.74,1.52-1.26,.67-.8,1.17-1.76,1.85-2.55,1.81-2.13,4-4.01,5.46-6.36,2.65-4.26,.96-7.53-3.93-8.3-.33-.06-.65-.17-1.03-.26Zm14.5-.53c-.77-3.5-.78-3.52,2.41-4.39,1.22-.33,2.55-.35,3.67-.87,.76-.35,1.24-1.32,1.84-2.01-.84-.24-1.78-.86-2.49-.66-3.23,.89-6.42,1.94-9.56,3.1-1.25,.46-2.41,1.25-3.48,2.08-.34,.26-.21,1.11-.3,1.69,.57,.07,1.21,.34,1.69,.16,1.03-.39,1.98-1.01,3.08-1.61,.58,2.24,.51,3.74-1.65,4.55-.58,.22-.91,1.12-1.35,1.71,.71,.12,1.41,.27,2.12,.37,.31,.04,.64,.01,.99,.01,.34,3.72,.59,7.24,1.02,10.73,.12,.98,.77,1.89,1.17,2.84,.45-1.02,1.3-2.04,1.27-3.05-.1-3.25-.48-6.5-.83-9.74-.17-1.53,.36-2.38,1.9-2.7,1.86-.39,3.74-.78,5.53-1.41,.78-.27,1.35-1.14,2.02-1.74-.83-.23-1.72-.77-2.49-.64-2.2,.38-4.37,1.03-6.56,1.58Z"/>
      <path class="cls-24" d="M397.21,94.9h3.59c-.17-2.9-.4-5.73-.44-8.57-.01-.85,.53-1.7,.82-2.55,.52,.8,1.43,1.57,1.51,2.41,.27,3.05,.27,6.12,.36,9.19-1.93,0-3.86,0-5.79-.01-.08,0-.15-.06-.23-.09,.05-.12,.11-.25,.18-.38Z"/>
      <path class="cls-26" d="M416.25,92.65c-1.23-2.95-2.52-5.88-3.65-8.87-.19-.5,.26-1.25,.41-1.88,.59,.28,1.55,.42,1.71,.85,1.15,3.19,2.14,6.43,3.19,9.66,.09,.25,.17,.49,.26,.74-.65-.16-1.29-.33-1.92-.5Z"/>
      <path class="cls-27" d="M384.52,89.06c.77-1.47,1.52-2.95,2.33-4.4,.53-.95,1.02-1.97,1.76-2.74,.65-.67,1.62-1.02,2.44-1.51-.11,.91,.02,1.93-.37,2.7-1.24,2.5-2.66,4.92-4.01,7.37-.71-.47-1.43-.95-2.15-1.42Z"/>
      <path class="cls-26" d="M431.88,82.95c-2.47-1.61-4.97-3.18-7.36-4.89-.36-.26-.23-1.22-.32-1.85,.58-.01,1.37-.27,1.71,.01,2.28,1.89,4.46,3.89,6.67,5.85-.24,.3-.47,.59-.7,.88Z"/>
      <path class="cls-27" d="M375.81,77.95c1.55-1.1,3.05-2.28,4.67-3.26,.45-.28,1.25,.02,1.9,.05-.18,.55-.18,1.35-.56,1.62-1.61,1.14-3.32,2.13-5,3.17-.34-.52-.67-1.05-1.01-1.58Z"/>
      <path class="cls-27" d="M435.3,38.56c-.77,.55-1.51,1.15-2.32,1.62-1.04,.62-2.14,1.13-3.22,1.69,.48-1.14,.95-2.28,1.44-3.41,.46-1.05,.94-2.09,1.41-3.13,.89,1.09,1.79,2.16,2.69,3.23Z"/>
      <path class="cls-27" d="M422.56,35.32c-.54,.67-1.08,1.34-1.62,2.01-.1-.82-.2-1.65-.29-2.47,.63,.15,1.27,.3,1.91,.46Z"/>
      <path class="cls-27" d="M420.79,34.3c.3-1.81,.61-3.62,.91-5.44-.3,1.81-.6,3.63-.91,5.44Z"/>
      <path class="cls-27" d="M423.55,29.89c-.31,1.76-.62,3.51-.94,5.27,.32-1.75,.63-3.51,.94-5.27Z"/>
      <path class="cls-24" d="M407.99,95.38c1.09-.17,2.18-.33,3.27-.5h1c.01,.17,.02,.33,.04,.5h-4.31Z"/>
      <path class="cls-27" d="M419.38,27.28c-.88-.21-1.77-.43-2.65-.64,.89,.21,1.77,.42,2.65,.64Z"/>
      <path class="cls-26" d="M430.62,84.49c.28-.27,.56-.54,.84-.8-.28,.26-.56,.53-.84,.8Z"/>
      <path class="cls-26" d="M413.58,94.33c.68-.2,1.36-.41,2.03-.61-.67,.21-1.35,.41-2.03,.61Z"/>
      <path class="cls-27" d="M432.56,35.3c-.36-.35-.71-.69-1.07-1.04,.36,.35,.72,.69,1.07,1.04Z"/>
      <path class="cls-24" d="M393.27,93.71c.5,.21,1,.41,1.5,.62-.5-.21-1-.41-1.5-.62Z"/>
      <path class="cls-27" d="M424.91,29.61c-.28-.1-.57-.2-.85-.3,.28,.1,.57,.2,.85,.3Z"/>
      <path class="cls-27" d="M421.58,28.36c-.46-.23-.93-.47-1.39-.7,.46,.23,.92,.47,1.39,.7Z"/>
      <path class="cls-27" d="M386.7,90.5c.16,.17,.32,.35,.48,.52-.16-.17-.32-.35-.48-.52Z"/>
      <path class="cls-24" d="M392.79,93.5c.17,.07,.33,.14,.5,.21-.17-.07-.33-.14-.5-.21Z"/>
      <path class="cls-27" d="M435.82,39.16c-.16-.18-.31-.37-.47-.55,.16,.18,.31,.37,.47,.55Z"/>
      <path class="cls-7" d="M492.3,26.13c3.17-1.89,6.65-1.7,10.32-1.85-.11,2.21-.29,4.07-.24,5.93,.02,.67,.6,1.33,.93,2,.48-.63,1.25-1.21,1.4-1.91,.41-1.91,.55-3.87,.8-5.85,2.26,.38,4.2,.7,6.13,1.03l.07,.02c.33,.15,.66,.31,1,.46,.7,.24,1.4,.48,2.09,.73,.22,.09,.44,.17,.66,.26,.02,.13,.09,.18,.22,.17-.09,1.11-.17,2.23-.25,3.34h0c-.41,1.29-.91,2.55-1.17,3.86-.11,.57,.29,1.23,.45,1.85,.53-.46,1.05-.91,1.58-1.37,.1-.31,.2-.62,.3-.93,.28-1.13,.56-2.25,.85-3.38,.06-.38,.11-.75,.17-1.13,.25-.35,.49-.7,.74-1.05,2.89,2.35,5.78,4.7,8.67,7.04-1.41,1.74-2.81,3.48-4.22,5.23,.22,.31,.43,.61,.65,.92,.83-.38,1.71-.67,2.47-1.15,1.1-.69,2.12-1.52,3.17-2.3,1.74,3.62,3.48,7.24,5.46,11.37-2.67,.33-4.53,.45-6.33,.84-.73,.16-1.34,.88-2,1.35,.73,.31,1.47,.89,2.19,.86,1.87-.06,3.73-.39,6.39-.7-.28,3.91-.55,7.53-.81,11.16-2.42-.27-4.83-.62-7.26-.74-.59-.03-1.22,.71-1.83,1.1,.59,.44,1.15,1.19,1.78,1.26,2.07,.23,4.17,.21,6.25,.29-1.01,3.12-1.91,6.28-3.09,9.34-.57,1.47-1.65,2.74-2.5,4.1-.18,.23-.35,.47-.53,.7-.16,.19-.32,.38-.47,.57-.17,.2-.34,.39-.51,.59l-.02,.02c-.17,.18-.33,.36-.5,.54l-.03,.04c-.53-.22-1.16-.32-1.59-.67-1.67-1.38-3.2-2.94-4.93-4.23-.64-.48-1.69-.42-2.56-.6,.29,.83,.34,1.9,.91,2.43,1.93,1.85,4.03,3.51,6.07,5.24l-.07,.07c-.17,.15-.34,.31-.5,.46l-.05,.04c-.17,.16-.34,.33-.52,.49l-.03,.03c-.19,.16-.37,.33-.56,.49-3.11,1.98-6.21,3.97-9.32,5.95-.53,.2-1.07,.39-1.6,.59-.43,.04-.85,.08-1.28,.12-.81-3.04-1.54-6.11-2.47-9.11-.22-.7-1.12-1.18-1.7-1.76-.22,.84-.77,1.76-.59,2.5,.8,3.14,1.83,6.23,2.77,9.34-.36,.13-.72,.26-1.08,.38-1.26,.24-2.52,.49-3.78,.73-2.05,.13-4.1,.25-6.15,.38-.52-.03-1.04-.06-1.56-.09-.11-.15-.26-.22-.45-.22,.06-2.97,.25-5.94,.12-8.89-.04-.94-.91-1.84-1.41-2.76-.34,.92-.93,1.82-.97,2.75-.13,2.74-.05,5.5-.05,8.47-1.46-.12-2.61-.22-3.75-.32-3.31-1.59-6.63-3.17-9.94-4.76,1.48-2.48,3.02-4.93,4.39-7.47,.36-.67,.2-1.63,.28-2.45-.73,.34-1.68,.49-2.14,1.05-1.03,1.25-1.82,2.7-2.7,4.07-.69,1.06-1.37,2.13-2.05,3.2-2.38-2.76-4.75-5.51-7.13-8.27,.44-.68,.75-1.51,1.35-2,1.04-.85,2.35-1.38,3.38-2.25,.52-.43,.66-1.31,.98-1.98-.72,.03-1.55-.17-2.15,.12-1.7,.83-3.31,1.86-4.96,2.8-1.08-3.6-2.16-7.21-3.39-11.31,1.98-.11,3.22-.06,4.4-.3,.59-.12,1.08-.75,1.61-1.15-.51-.4-.97-1.02-1.54-1.14-1.13-.24-2.32-.2-4.3-.33,.97-4.48,1.91-8.79,2.93-13.5,1.56,.59,2.51,1.05,3.51,1.3,1.73,.43,3.49,.89,5.26,1.02,.67,.05,1.41-.8,2.12-1.23-.7-.36-1.37-.86-2.12-1.07-2.29-.64-4.62-1.18-6.93-1.76-.13-.34-.27-.68-.4-1.02,3.02-3.73,6.03-7.47,9.5-11.77,1.89,2.12,3.26,3.8,4.8,5.3,.44,.43,1.38,.35,2.1,.5-.15-.71-.05-1.66-.48-2.08-1.42-1.37-3.03-2.55-4.56-3.81,.14-.37,.27-.74,.41-1.12,3.03-1.62,6.05-3.24,9.25-4.95,.92,2.2,1.54,4,2.43,5.64,.39,.73,1.36,1.14,2.07,1.7,.05-.88,.35-1.84,.11-2.63-.51-1.63-1.3-3.18-1.97-4.77Zm5.16,23.14c.55-.98,1.55-2.3,2.08-3.8,.92-2.63-.32-3.98-3.01-3.1-2.2,.73-4.27,1.95-6.24,3.19-1.39,.87-2.5,2.12-.23,3.48,.34,.2,.51,.93,.52,1.42,.09,5.23,.07,10.46,.27,15.68,.03,.74,.98,1.54,1.68,2.07,.16,.13,1.15-.63,1.6-1.12,.71-.77,1.22-1.73,1.94-2.48,1.7-1.76,3.6-3.34,5.18-5.19,1.73-2.03,2.8-4.69,1.31-7.02-.95-1.46-3.25-2.05-5.1-3.13Zm11.58,4.55c0,3.74-.08,7.26,.05,10.77,.04,.97,.73,1.92,1.11,2.88,.48-.92,1.36-1.84,1.37-2.76,.04-3.07-.13-6.16-.43-9.22-.22-2.3,.69-3.32,2.9-3.59,1.79-.22,3.59-.56,5.33-1.06,.61-.18,1.03-1.01,1.53-1.54-.65-.3-1.35-.93-1.95-.85-2.41,.34-4.78,.9-7.17,1.38-.92-2.6-.14-4.02,2.61-4.3,1.34-.13,2.75-.26,3.96-.76,.71-.3,1.12-1.34,1.66-2.04-.79-.22-1.65-.75-2.36-.59-2.83,.61-5.64,1.35-8.41,2.22-1.54,.48-3.05,1.18-4.44,2.01-.51,.31-.62,1.29-.91,1.97,.71,.04,1.47,.26,2.12,.08,.9-.25,1.73-.8,2.73-1.29,.53,2.32,.38,3.88-1.97,4.58-.59,.18-.95,1.1-1.41,1.67,.71,.15,1.42,.3,2.14,.43,.29,.04,.55,.01,1.54,.01Z"/>
      <path class="cls-26" d="M507.26,92.09c-.94-3.11-1.97-6.19-2.77-9.34-.19-.73,.37-1.66,.59-2.5,.59,.58,1.49,1.06,1.7,1.76,.93,3,1.67,6.07,2.47,9.11-.66,.33-1.33,.65-1.99,.97Z"/>
      <path class="cls-27" d="M523.19,82.87c-2.04-1.73-4.14-3.39-6.07-5.24-.56-.54-.62-1.61-.91-2.43,.86,.18,1.91,.12,2.56,.6,1.73,1.29,3.26,2.84,4.93,4.23,.42,.35,1.05,.45,1.59,.67-.71,.72-1.41,1.45-2.1,2.17Z"/>
      <path class="cls-26" d="M476.01,86.16c.68-1.07,1.37-2.13,2.05-3.2,.88-1.37,1.67-2.82,2.7-4.07,.46-.56,1.41-.71,2.14-1.05-.08,.83,.09,1.78-.28,2.45-1.37,2.54-2.91,4.99-4.39,7.47-.74-.53-1.48-1.06-2.22-1.6Z"/>
      <path class="cls-26" d="M488.17,92.53c1.14,.1,2.29,.19,3.75,.32,0-2.97-.08-5.72,.05-8.47,.04-.93,.63-1.83,.97-2.75,.49,.92,1.37,1.82,1.41,2.76,.13,2.96-.05,5.93-.12,8.89-2.02-.25-4.04-.5-6.06-.75Zm4.75-2.06c.15-.02,.3-.04,.44-.06v-6.71c-.15,.01-.3,.02-.44,.03v6.74Z"/>
      <path class="cls-26" d="M532.93,64.81c-2.09-.08-4.18-.06-6.25-.29-.63-.07-1.19-.82-1.78-1.26,.61-.39,1.24-1.13,1.83-1.1,2.43,.12,4.84,.47,7.26,.74-.36,.65-.71,1.28-1.06,1.91Z"/>
      <path class="cls-27" d="M467.47,74.6c1.65-.95,3.25-1.97,4.96-2.8,.59-.29,1.42-.1,2.15-.12-.31,.67-.46,1.55-.98,1.98-1.03,.86-2.33,1.4-3.38,2.25-.6,.48-.91,1.32-1.35,2-.46-1.11-.93-2.21-1.4-3.31Z"/>
      <path class="cls-27" d="M529.09,38.05c-1.05,.77-2.07,1.6-3.17,2.3-.76,.48-1.64,.78-2.47,1.15-.22-.31-.43-.61-.65-.92,1.41-1.74,2.81-3.49,4.22-5.23,.69,.9,1.38,1.8,2.07,2.7Z"/>
      <path class="cls-27" d="M516.29,34.8c-.53,.46-1.05,.91-1.58,1.37-.17-.62-.56-1.29-.45-1.85,.26-1.31,.76-2.57,1.17-3.85-.08,1.06-.26,2.12-.17,3.16,.03,.42,.67,.78,1.03,1.17Z"/>
      <path class="cls-27" d="M517.44,30.49c-.28,1.13-.56,2.25-.85,3.38,.29-1.13,.57-2.25,.85-3.38Z"/>
      <path class="cls-26" d="M502.39,93.21c1.26-.24,2.52-.49,3.78-.73-1.26,.24-2.52,.49-3.78,.73Z"/>
      <path class="cls-27" d="M515.43,30.46c.08-1.11,.17-2.23,.25-3.34-.08,1.11-.16,2.22-.25,3.34Z"/>
      <path class="cls-26" d="M494.68,93.51c.52,.03,1.04,.06,1.56,.09-.52-.03-1.04-.06-1.56-.09Z"/>
      <path class="cls-27" d="M518.35,28.31c-.25,.35-.49,.7-.74,1.05,.13-.48,.26-.96,.4-1.45,.11,.14,.23,.27,.34,.4Z"/>
      <path class="cls-26" d="M510.53,91.01c.53-.2,1.07-.39,1.6-.59-.53,.2-1.06,.4-1.6,.59Z"/>
      <path class="cls-22" d="M512.71,25.96c-.33-.15-.66-.31-1-.46,.34,.15,.67,.31,1,.46Z"/>
      <path class="cls-27" d="M515.47,26.95c-.22-.09-.44-.17-.66-.26,.22,.09,.44,.17,.66,.26Z"/>
      <path class="cls-27" d="M521.45,84.47c.19-.16,.37-.33,.56-.49-.18,.16-.37,.33-.56,.49Z"/>
      <path class="cls-27" d="M522.04,83.94c.17-.16,.34-.33,.52-.49-.17,.16-.35,.33-.52,.49Z"/>
      <path class="cls-27" d="M522.61,83.41c.17-.15,.34-.31,.5-.46-.16,.15-.33,.3-.5,.46Z"/>
      <path class="cls-27" d="M525.31,80.66c.17-.18,.33-.36,.5-.54-.17,.19-.33,.36-.5,.54Z"/>
      <path class="cls-27" d="M525.83,80.11c.17-.2,.34-.39,.51-.59-.18,.2-.35,.39-.51,.59Z"/>
      <path class="cls-27" d="M526.81,78.96c.18-.23,.35-.47,.53-.7-.18,.23-.36,.46-.53,.7Z"/>
      <path class="cls-21" d="M410.31,27.84c-.05,1.61-.11,3.22-.16,4.83-.5-.56-1.31-1.05-1.44-1.69-.25-1.2-.11-2.48-.14-3.72v-.05c.89-.6,1.64-.87,1.74,.63Z"/>
      <path class="cls-20" d="M168.37,37.33c-.4,9.75-11.21,17.68-20.26,14.73-3.24-1.06-5.11-3.47-6.78-6.27-3.68-6.16-.39-19.77,6.61-22.36,.82-.3,1.75-.74,2.56-.63,6.89,.98,13.31,2.85,16.43,10,.62,1.44,.96,3.02,1.44,4.53Zm-26.8,1.11c.24,.09,.47,.17,.71,.26-.02,7.48,3.85,11.52,11.21,11.43,5.51-.07,8.49-3.83,10.87-8.13,2.02-3.64,1.25-7.86-1.35-11.07-2.7-3.32-6.52-4.3-10.31-5.36-3.22-.9-6.15,.17-7.54,3.11-1.49,3.11-2.42,6.49-3.59,9.76Z"/>
      <path class="cls-18" d="M306.71,57.36c5.93-.9,8.59,2.37,6.25,7.95-.97,2.31-2.58,4.34-3.82,6.55-.5,.89-.73,1.91-1.16,2.84-.26,.56-.81,1.53-.97,1.48-.87-.27-2.19-.63-2.39-1.27-1.45-4.59-2.66-9.26-3.96-13.9-.36-1.3,.18-3.29-2.26-3.05-.03-.82-.43-1.97-.04-2.4,1.75-1.92,3.55-3.91,5.68-5.36,2.37-1.61,3.85-.63,3.6,2.22-.13,1.58-.79,3.11-1.21,4.67-.09,.16-.18,.32-.27,.48,.19-.07,.37-.14,.55-.21Zm-.49,13.4c.29,.09,.59,.18,.88,.27,1.36-2.69,2.95-5.29,4.01-8.09,.88-2.33-.71-4.03-2.78-3.45-3.13,.87-4.68,3.67-3.69,6.72,.49,1.52,1.05,3.03,1.58,4.55Zm-.55-18.59c-4.04,1.8-4.45,2.84-2.56,5.99,.83-1.96,1.63-3.82,2.56-5.99Z"/>
      <path class="cls-15" d="M319.38,49.99c.39,1.49,.66,2.54,.98,3.78,2.01-1.01,3.94-2.13,5.98-2.94,.89-.35,2.03-.08,3.05-.09-.73,.77-1.33,1.74-2.2,2.26-2.02,1.19-4.17,2.15-6.56,3.36,1.05,3.29,2.05,6.45,3.05,9.61,.27,.86,.76,1.73,.74,2.59-.02,.8-.58,1.59-.91,2.38-.53-.6-1.32-1.11-1.54-1.81-1.17-3.68-2.21-7.4-3.33-11.24-.5,.22-.8,.44-1.12,.48-.7,.09-1.41,.09-2.11,.13,.33-.66,.48-1.62,1.01-1.93,2.32-1.36,1.61-3.03,.73-5.16-.96,.87-1.68,1.67-2.55,2.26-.51,.35-1.24,.36-1.88,.53,.07-.73-.14-1.78,.26-2.15,1.61-1.45,3.33-2.79,5.15-3.96,1.97-1.27,4.05-2.41,6.18-3.39,.71-.33,1.72-.02,2.59,0-.51,.84-.82,2.01-1.56,2.46-1.81,1.09-3.84,1.85-5.96,2.83Z"/>
      <path class="cls-21" d="M404.08,51.65c.38,.1,.7,.2,1.03,.26,4.89,.76,6.58,4.03,3.93,8.3-1.46,2.34-3.65,4.23-5.46,6.36-.68,.8-1.17,1.75-1.85,2.55-.44,.52-1.34,1.37-1.52,1.26-.75-.47-1.78-1.22-1.84-1.93-.42-5.2-.61-10.42-.91-15.63-.03-.5-.17-1.27-.51-1.45-2.82-1.47-1.13-2.82,.23-3.76,1.91-1.32,3.97-2.58,6.15-3.34,2.33-.81,3.54,.5,2.84,2.9-.45,1.51-1.34,2.91-2.09,4.48Zm-3.31,13.17c.34,.11,.69,.22,1.03,.33,1.78-2.2,3.77-4.27,5.22-6.66,.54-.89,.29-3.02-.44-3.74-1.36-1.34-6.47,1.23-6.46,3.18,.02,2.29,.42,4.59,.65,6.89Zm-.5-12.58c1.47-2.06,2.58-3.62,3.91-5.48-4.05,.52-4.63,1.31-3.91,5.48Z"/>
      <path class="cls-13" d="M418.58,51.12c2.19-.55,4.36-1.2,6.57-1.59,.77-.13,1.65,.41,2.49,.64-.67,.6-1.24,1.46-2.02,1.74-1.79,.63-3.67,1.02-5.53,1.41-1.54,.32-2.06,1.17-1.9,2.7,.35,3.24,.73,6.49,.83,9.74,.03,1-.82,2.03-1.27,3.05-.4-.94-1.05-1.86-1.17-2.84-.43-3.5-.68-7.01-1.02-10.73-.36,0-.68,.04-.99-.01-.71-.1-1.41-.24-2.12-.37,.44-.59,.77-1.49,1.35-1.71,2.17-.81,2.23-2.32,1.65-4.55-1.1,.59-2.05,1.22-3.08,1.61-.47,.18-1.12-.1-1.69-.16,.09-.58-.03-1.43,.3-1.69,1.06-.82,2.22-1.62,3.48-2.08,3.14-1.16,6.33-2.21,9.56-3.1,.71-.2,1.65,.42,2.49,.66-.6,.69-1.08,1.66-1.84,2.01-1.12,.52-2.46,.54-3.67,.87-3.2,.88-3.19,.9-2.42,4.4Z"/>
      <path class="cls-23" d="M408.58,27.26c.02,1.24-.11,2.52,.14,3.72,.13,.64,.94,1.13,1.44,1.69-.2,.46-.4,.91-.61,1.37-.43-.4-1.23-.79-1.24-1.2-.03-1.86,.16-3.72,.27-5.58Z"/>
      <path class="cls-21" d="M497.46,49.27c1.85,1.08,4.15,1.67,5.09,3.14,1.5,2.33,.43,4.99-1.31,7.02-1.58,1.85-3.48,3.43-5.18,5.19-.72,.75-1.23,1.71-1.94,2.48-.45,.49-1.44,1.25-1.6,1.12-.7-.54-1.65-1.34-1.68-2.07-.2-5.22-.18-10.45-.27-15.68-.01-.49-.18-1.22-.52-1.42-2.27-1.36-1.16-2.6,.23-3.48,1.97-1.25,4.05-2.46,6.24-3.19,2.69-.89,3.93,.46,3.01,3.1-.52,1.48-1.52,2.81-2.07,3.79Zm-4.12,13.45c.31,.16,.62,.33,.93,.49,1.95-2.2,4.09-4.27,5.76-6.67,.56-.8,.43-2.86-.23-3.59-1.38-1.53-6.64,.89-6.73,3.03-.09,2.25,.17,4.5,.27,6.74Zm.1-12.65c1.49-1.85,2.74-3.4,4.17-5.19-4.01,.13-4.76,1.04-4.17,5.19Z"/>
      <path class="cls-13" d="M509.04,53.82c-.99,0-1.25,.04-1.51-.01-.72-.13-1.43-.28-2.14-.43,.46-.58,.83-1.5,1.41-1.67,2.35-.71,2.49-2.26,1.97-4.58-1.01,.49-1.83,1.04-2.73,1.29-.65,.18-1.41-.04-2.12-.08,.29-.68,.39-1.66,.91-1.97,1.38-.83,2.89-1.53,4.44-2.01,2.77-.86,5.58-1.6,8.41-2.22,.71-.15,1.57,.38,2.36,.59-.54,.71-.95,1.74-1.66,2.04-1.22,.51-2.62,.63-3.96,.76-2.76,.28-3.53,1.7-2.61,4.3,2.39-.48,4.77-1.04,7.17-1.38,.6-.08,1.3,.54,1.95,.85-.51,.53-.93,1.37-1.53,1.54-1.73,.5-3.53,.84-5.33,1.06-2.21,.27-3.13,1.29-2.9,3.59,.3,3.06,.47,6.15,.43,9.22-.01,.93-.89,1.84-1.37,2.76-.39-.96-1.08-1.91-1.11-2.88-.16-3.51-.08-7.03-.08-10.77Z"/>
      <path class="cls-18" d="M492.92,90.47v-6.74c.15-.01,.3-.02,.44-.03v6.71c-.14,.02-.29,.04-.44,.06Z"/>
      <path class="cls-6" d="M141.57,38.44c1.17-3.27,2.1-6.65,3.59-9.77,1.39-2.93,4.32-4.01,7.54-3.11,3.78,1.06,7.61,2.04,10.31,5.36,2.61,3.21,3.37,7.42,1.35,11.07-2.38,4.3-5.37,8.06-10.87,8.13-7.36,.09-11.22-3.94-11.21-11.43-.24-.08-.48-.16-.71-.25Zm12.98-6.98c-2.65,.22-3.67,1.49-3.36,3.26,.18,1.03,1.37,1.88,2.11,2.82,.91-1.26,2.06-2.42,2.61-3.81,.21-.56-.95-1.64-1.36-2.27Z"/>
      <path class="cls-7" d="M306.22,70.76c-.53-1.52-1.09-3.03-1.58-4.55-.99-3.05,.56-5.85,3.69-6.72,2.07-.58,3.65,1.13,2.78,3.45-1.06,2.8-2.65,5.4-4.01,8.09-.29-.1-.59-.18-.88-.27Z"/>
      <path class="cls-10" d="M305.67,52.17c-.93,2.18-1.73,4.04-2.56,5.99-1.89-3.16-1.49-4.2,2.56-5.99Z"/>
      <path class="cls-4" d="M306.71,57.36c-.18,.07-.36,.14-.54,.22,.09-.16,.18-.32,.27-.48,.08,.09,.17,.17,.27,.26Z"/>
      <path class="cls-10" d="M400.77,64.82c-.23-2.3-.64-4.59-.65-6.89-.01-1.95,5.1-4.52,6.46-3.18,.73,.72,.98,2.85,.44,3.74-1.45,2.4-3.45,4.46-5.22,6.66-.34-.11-.68-.22-1.03-.33Z"/>
      <path class="cls-9" d="M400.27,52.24c-.73-4.17-.14-4.96,3.91-5.48-1.33,1.86-2.44,3.42-3.91,5.48Z"/>
      <path class="cls-10" d="M493.34,62.72c-.1-2.24-.36-4.49-.27-6.73,.09-2.15,5.35-4.56,6.73-3.03,.66,.73,.79,2.78,.23,3.59-1.67,2.4-3.81,4.47-5.76,6.67-.31-.17-.62-.34-.93-.5Z"/>
      <path class="cls-9" d="M493.44,50.07c-.58-4.15,.17-5.06,4.17-5.19-1.44,1.79-2.68,3.34-4.17,5.19Z"/>
      <path class="cls-14" d="M154.55,31.46c.4,.63,1.56,1.71,1.35,2.26-.54,1.4-1.7,2.56-2.61,3.81-.74-.93-1.93-1.79-2.11-2.82-.29-1.76,.72-3.03,3.37-3.25Z"/>
    </g>
  </g>
</svg>