<svg id="Layer_1" data-name="Layer 1" xmlns="http://www.w3.org/2000/svg" viewBox="0 0 401.7 43.32"><defs><style>.cls-1{fill:#00247d;}</style></defs><title>edu-id-logo</title><path class="cls-1" d="M1.81,12.61C1.81,1.5,6.91.5,17.19.5c9,0,15.5.39,15,11.72H27.47C27.24,4.94,25.85,4.67,17,4.67,7.8,4.67,6.53,5.83,6.53,11.61c0,7.94,3.77,7.28,11.55,7.5C28,19.66,33,19.39,33,30.66c0,11.77-5.55,12.16-16,12.16S.81,41.55,1.69,29.49H6.41c-.11,9.17,1.67,9.17,10.5,9.17s11.33,0,11.33-8.17c0-7.94-3.55-6.61-11.16-7.22C8.86,22.61,1.81,23.61,1.81,12.61Z"/><path class="cls-1" d="M84.73,42.49H77.56L66.68,5h-.12L55.51,42.49h-7L35.68.83h4.83L51.84,38.88H52L63.18.83h6.94L81.23,38.88h.11L93,.83h4.88Z"/><path class="cls-1" d="M107.49,42.49h-4.72V.83h4.72Z"/><path class="cls-1" d="M130.71,42.49H126V5h-13.5V.83H144.2V5H130.71Z"/><path class="cls-1" d="M159.86,42.82c-7.61,0-12.11-4.77-12.11-13.1V13.61C147.75,1.83,155,.5,165.14.5H169c8.72,0,11.38,3.78,11.38,12v1.33h-4.72V12.66c0-5.83-1.22-8-7.33-8h-2.67c-9.77,0-13.21,1.16-13.21,8.77V24.88c0,9.5.38,13.78,8.27,13.78h5.61c7.55,0,9.89-1.06,9.89-7V28.33H181v3.89c0,9.55-6.11,10.6-14.44,10.6Z"/><path class="cls-1" d="M220.79,42.49h-4.72V23.33H191.68V42.49H187V.83h4.72V19.16h24.39V.83h4.72Z"/><path class="cls-1" d="M262.15,33.21c0,9.17-5.27,9.61-13.61,9.61-11.16,0-13.44-3.55-13.44-14.83,0-10.44,1.67-15,13.44-15,12,0,13.61,3.5,13.61,16.22h-20c0,6.27.17,8.27,6.44,8.27,3.89,0,6.62.06,6.62-4.28Zm-7-8.44c0-6-.89-6.44-6.62-6.44-6,0-6.44,1.28-6.44,6.44Z"/><path class="cls-1" d="M287.2,38.1H287c-1.78,3.84-5,4.72-9.11,4.72C267,42.82,266.7,36,266.7,27.05c0-8.55,1.17-14,11.17-14,3.55,0,7.27.66,8.77,4.22h.28V.83h7V42.49h-7Zm-13.5-11c0,6.61-.16,10.44,6.22,10.44,7.17,0,6.89-3.5,6.89-10.44,0-6.22-.83-8.72-6.89-8.72C275.09,18.33,273.7,19.72,273.7,27.05Z"/><path class="cls-1" d="M320,42.49V38h-.22c-1.61,3.89-5.22,4.83-9.22,4.83-5.83,0-9.72-2-9.78-8.38V13.33h7V31.72c0,4.16.39,5.77,4.89,5.77,5.39,0,7.11-2.27,7.11-7.33V13.33h7V42.49Z"/><path class="cls-1" d="M345.07,24.49v5.34H330.29V24.49Z"/><path class="cls-1" d="M356.73,42.49h-8V.83h8Z"/><path class="cls-1" d="M363.83.83h19.89c11.5,0,16.38,4.17,16.38,15.5v9.83c0,8.67-2.44,16.33-15.05,16.33H363.83Zm21.22,34.83c5.39,0,7.06-4.83,7.06-9.5V16.33c0-6.94-2.28-8.66-8.39-8.66H371.83v28Z"/></svg>