<?xml version="1.0" encoding="UTF-8"?>
<svg id="Layer_2" data-name="Layer 2" xmlns="http://www.w3.org/2000/svg" viewBox="0 0 157.05 182.69">
  <defs>
    <style>
      .cls-1 {
        fill: #fff;
      }
    </style>
  </defs>
  <g id="Layer_1-2" data-name="Layer 1">
    <g>
      <path d="M157.04,86.14c-.61,27.16-9.14,51.3-27.89,71.32-13.04,13.92-29.01,22.85-48.13,24.83-20.45,2.12-38.43-4.18-53.51-18.17-15.06-13.96-23.27-31.57-26.25-51.68-4.06-27.43,1.67-52.78,17.23-75.68C30.27,19.42,46.07,7.25,66.67,1.98,75.12-.18,83.65-.56,92.33,.79c31.15,4.83,49.12,24.55,59.45,52.71,3.83,10.45,5.39,21.42,5.26,32.64ZM3.14,99.91c.55,4.03,1.09,11.48,2.66,18.71,4.04,18.68,12.94,34.66,28.09,46.68,14.8,11.74,31.73,16.36,50.35,13.29,20.78-3.43,37-14.74,49.3-31.44,17.91-24.32,23.9-51.61,18.22-81.26-3.11-16.22-10.18-30.64-21.84-42.56-11.48-11.74-25.38-18.98-41.76-20.12-20.59-1.44-38.45,5.82-53.42,19.76C13.46,42.77,3.89,67.76,3.14,99.91Z"/>
      <path class="cls-1" d="M3.14,99.91c.75-32.15,10.31-57.14,31.58-76.94C49.69,9.03,67.56,1.77,88.14,3.21c16.38,1.14,30.28,8.38,41.76,20.12,11.66,11.92,18.73,26.33,21.84,42.56,5.68,29.64-.3,56.94-18.22,81.26-12.3,16.71-28.52,28.01-49.3,31.44-18.62,3.07-35.55-1.55-50.35-13.29-15.15-12.02-24.05-28-28.09-46.68-1.55-7.23-2.09-14.69-2.64-18.71Zm30.21-24.45c-.05,.32-.1,.65-.14,.97,.6,.29,1.16,.69,1.79,.87,3.17,.9,4.99,3.13,5.24,6.23,.62,7.88-.27,15.55-3.97,22.72-1.2,2.33-2.38,4.68-3.35,7.11-.27,.67,.06,1.81,.52,2.42,.21,.28,1.52,0,2.15-.35,6.58-3.58,13.3-6.57,21.03-6.51,.91,.01,2.54-.76,2.61-1.32,.51-3.87,3.51-5.14,6.41-6.3,3.98-1.61,7.38,.82,6.77,4.97-.35,2.39-1.24,5.11-2.82,6.83-9.01,9.8-20,14.46-33.42,11.36-2.85-.66-6.12-1.47-8.15-3.34-6.01-5.56-9.91-12.45-10.11-20.96-.23-9.63,.77-19.02,5.33-27.74,.45-.85,.57-1.88,.84-2.82-.28-.12-.57-.24-.85-.36-.48,.77-1,1.52-1.44,2.31-3.74,6.71-5.22,13.97-5.77,21.6-.46,6.46-.17,12.74,2.59,18.59,2.28,4.83,5.19,9.44,9.97,12.27,4.56,2.7,9.79,3.39,14.93,3.45,10.66,.14,19.5-4.39,26.69-12,1.96-2.07,3.43-4.95,4.2-7.72,1.52-5.47-2.04-9.54-7.56-8.83-3.92,.5-7.04,2.62-9.16,6.13-.49,.82-1.57,1.78-2.42,1.82-6.77,.32-12.87,2.67-18.77,5.76-.27,.14-.61,.13-1.28,.27,.76-1.55,1.27-2.78,1.94-3.94,4.4-7.64,5.74-15.95,5.29-24.61-.21-4.02-1.98-7.14-5.86-8.67-.97-.38-2.15-.16-3.23-.21Zm96.78-26.58c-.24,.31-.48,.61-.72,.92,.51,.52,1.03,1.03,1.53,1.55,.63,.65,1.39,1.21,1.87,1.96,6.6,10.38,10.51,21.8,12.59,33.85,.33,1.92,.95,4.42-1.23,5.79-5.81,3.64-11.61,7.31-17.63,10.59-5.85,3.19-12.49,2.76-18.87,3.07-6.27,.31-8.07-1.36-9.31-7.09-.52-2.37-.07-4.74,1.88-5.75,1.31-.68,3.71-.2,5.18,.57,2.7,1.42,4.83,1.17,6.83-.94,3.99-4.21,8.93-6.33,14.64-6.87,.98-.09,1.92-.55,3.67-1.09-1.85-1.21-2.95-1.91-4.05-2.64-3.26-2.17-6.46-4.32-7.58-8.48-.73-2.69-1.93-5.25-2.81-7.9-1.17-3.53-2.25-7.08-.66-10.82,.17-.39-.28-1.05-.44-1.58-.51,.28-1.31,.45-1.47,.86-.41,1.07-.87,2.29-.74,3.38,1.2,9.75,2.79,19.37,11.57,25.73,.09,.06,.05,.29,.09,.64-5.43,1.31-10.37,3.59-14.29,7.75-1.54,1.63-2.95,.44-4.36-.39-4.08-2.41-8.76-.46-9.3,4.11-.26,2.18,.07,4.53,.6,6.69,.75,3.07,2.82,4.76,6.15,5.25,16.61,2.45,30.36-3.62,42.7-14.02,.57-.48,1.18-1.32,1.2-2.01,.08-2.72,.52-5.62-.25-8.13-2.56-8.36-5.43-16.64-8.51-24.83-1-2.66-2.86-5.05-4.61-7.35-.87-1.18-2.41-1.89-3.67-2.82Zm-56.63,1.61c2.76-1.39,5.24-2.5,7.56-3.88,1.03-.62,1.9-1.69,2.53-2.74,.27-.45-.26-1.37-.43-2.08-.47,.36-1.09,.63-1.4,1.11-1.73,2.65-4.13,4.22-7.25,4.53-3.59,.35-6.73-.74-9.45-3.18-.48-.43-1.56-.17-2.36-.23,.18,.63,.17,1.65,.57,1.84,3.24,1.57,6.57,3,10.23,4.63Zm31.88-31.6c-.16-.39-.31-.78-.47-1.18-4.62,.69-9.25,1.35-13.86,2.08-2.67,.42-5.34,.9-7.98,1.51-.5,.11-.83,.96-1.23,1.47,.52,.2,1.09,.64,1.56,.56,6.5-1.05,13-2.14,19.48-3.3,.88-.15,1.67-.75,2.5-1.14Zm-46.43,7.13c-5.31,1.54-10.42,2.99-15.49,4.53-.4,.12-.61,.87-.91,1.33,.54,.11,1.13,.43,1.61,.31,4.97-1.27,9.93-2.58,14.87-3.96,.48-.13,.83-.74,1.24-1.13-.44-.36-.88-.72-1.32-1.08Zm-9.92,62.2c.35-.03,.71-.05,1.06-.08,.91-4.82-.8-9.45-1.81-14.1-.18-.84-1.17-1.5-1.79-2.24-.12,.17-.25,.33-.37,.5,.96,5.3,1.93,10.61,2.91,15.92Zm57.32-31.75h.07c.18,2.89,.27,5.79,.57,8.68,.12,1.13,.62,2.26,1.11,3.31,.14,.3,.87,.33,1.32,.48,.12-.46,.38-.94,.32-1.38-.22-1.68-.63-3.35-.82-5.03-.26-2.43-.36-4.88-.61-7.32-.05-.44-.48-.85-.74-1.27-.41,.39-.93,.72-1.19,1.19-.18,.34-.03,.88-.03,1.34Z"/>
      <path d="M33.35,75.46c1.08,.05,2.26-.16,3.21,.21,3.88,1.53,5.66,4.65,5.86,8.67,.45,8.67-.9,16.97-5.29,24.61-.66,1.15-1.18,2.39-1.94,3.94,.67-.14,1.02-.13,1.28-.27,5.9-3.09,12-5.43,18.77-5.76,.85-.04,1.93-1,2.42-1.82,2.12-3.51,5.24-5.63,9.16-6.13,5.52-.71,9.08,3.36,7.56,8.83-.77,2.77-2.24,5.65-4.2,7.72-7.19,7.6-16.04,12.13-26.69,12-5.14-.07-10.37-.75-14.93-3.45-4.78-2.83-7.68-7.44-9.97-12.27-2.76-5.85-3.05-12.14-2.59-18.59,.54-7.62,2.03-14.88,5.77-21.6,.44-.79,.96-1.54,1.44-2.31,.28,.12,.57,.24,.85,.36-.27,.94-.39,1.97-.84,2.82-4.56,8.72-5.55,18.11-5.33,27.74,.2,8.5,4.1,15.39,10.11,20.96,2.03,1.87,5.3,2.68,8.15,3.34,13.42,3.1,24.41-1.56,33.42-11.36,1.58-1.72,2.47-4.45,2.82-6.83,.61-4.15-2.78-6.57-6.77-4.97-2.9,1.17-5.9,2.44-6.41,6.3-.08,.57-1.71,1.33-2.61,1.32-7.72-.06-14.45,2.93-21.03,6.51-.64,.35-1.95,.62-2.15,.35-.46-.62-.78-1.75-.52-2.42,.97-2.43,2.15-4.78,3.35-7.11,3.7-7.16,4.59-14.84,3.97-22.72-.24-3.11-2.07-5.33-5.24-6.23-.63-.18-1.2-.57-1.79-.87,.07-.33,.11-.65,.16-.97Z"/>
      <path d="M130.13,48.88c1.26,.93,2.79,1.64,3.7,2.83,1.75,2.29,3.61,4.69,4.61,7.35,3.08,8.19,5.95,16.46,8.51,24.83,.77,2.51,.32,5.41,.25,8.13-.02,.69-.62,1.52-1.2,2.01-12.34,10.4-26.09,16.47-42.7,14.02-3.33-.49-5.39-2.18-6.15-5.25-.53-2.16-.86-4.51-.6-6.69,.54-4.57,5.22-6.53,9.3-4.11,1.4,.83,2.82,2.02,4.36,.39,3.92-4.16,8.86-6.44,14.29-7.75-.05-.35-.01-.58-.09-.64-8.77-6.36-10.37-15.98-11.57-25.73-.13-1.09,.32-2.31,.74-3.38,.16-.41,.96-.58,1.47-.86,.16,.53,.61,1.19,.44,1.58-1.59,3.74-.51,7.29,.66,10.82,.88,2.65,2.08,5.21,2.81,7.9,1.13,4.16,4.33,6.31,7.58,8.48,1.09,.73,2.2,1.44,4.05,2.64-1.75,.53-2.69,.99-3.67,1.09-5.71,.55-10.65,2.66-14.64,6.87-1.99,2.11-4.13,2.36-6.83,.94-1.48-.78-3.87-1.25-5.18-.57-1.95,1.01-2.4,3.38-1.88,5.75,1.25,5.73,3.04,7.4,9.31,7.09,6.38-.31,13.02,.12,18.87-3.07,6.01-3.28,11.82-6.95,17.63-10.59,2.18-1.37,1.56-3.87,1.23-5.79-2.08-12.05-5.99-23.47-12.59-33.85-.47-.75-1.23-1.31-1.87-1.96-.51-.52-1.02-1.04-1.53-1.55,.21-.32,.45-.62,.69-.93Z"/>
      <path d="M73.5,50.49c-3.66-1.63-6.99-3.06-10.24-4.64-.39-.19-.39-1.21-.57-1.84,.8,.06,1.89-.19,2.36,.23,2.73,2.44,5.86,3.53,9.45,3.18,3.12-.3,5.53-1.88,7.25-4.53,.31-.47,.93-.74,1.4-1.11,.17,.71,.7,1.63,.43,2.08-.63,1.05-1.49,2.12-2.53,2.74-2.31,1.39-4.79,2.5-7.55,3.89Z"/>
      <path d="M105.38,18.89c-.83,.39-1.62,.98-2.5,1.14-6.48,1.16-12.98,2.25-19.48,3.3-.48,.08-1.04-.36-1.56-.56,.41-.51,.74-1.35,1.23-1.47,2.64-.61,5.31-1.09,7.98-1.51,4.61-.73,9.24-1.39,13.86-2.08,.16,.4,.32,.79,.47,1.18Z"/>
      <path d="M58.95,26.02c.44,.36,.88,.72,1.31,1.08-.41,.39-.76,1-1.24,1.13-4.94,1.37-9.9,2.69-14.87,3.96-.48,.12-1.07-.2-1.61-.31,.3-.46,.51-1.2,.91-1.33,5.08-1.54,10.19-3,15.5-4.53Z"/>
      <path d="M49.03,88.22c-.97-5.31-1.94-10.61-2.91-15.92,.12-.17,.25-.33,.37-.5,.62,.74,1.61,1.4,1.79,2.24,1.02,4.65,2.73,9.28,1.81,14.1-.36,.02-.71,.05-1.06,.08Z"/>
      <path d="M106.35,56.47c0-.45-.15-.99,.04-1.34,.26-.47,.78-.8,1.19-1.19,.26,.42,.7,.82,.74,1.27,.25,2.43,.34,4.88,.61,7.32,.18,1.69,.59,3.35,.82,5.03,.06,.44-.2,.92-.32,1.38-.46-.15-1.18-.18-1.32-.48-.49-1.05-.99-2.17-1.11-3.31-.3-2.88-.39-5.78-.57-8.68-.04-.01-.06-.01-.08,0Z"/>
    </g>
  </g>
</svg>