<?xml version="1.0" encoding="UTF-8"?>
<svg id="Layer_2" data-name="Layer 2" xmlns="http://www.w3.org/2000/svg" viewBox="0 0 118.3 137.7">
  <defs>
    <style>
      .cls-1 {
        fill: #fff;
      }
    </style>
  </defs>
  <g id="Layer_1-2" data-name="Layer 1">
    <g>
      <path d="M118.3,64.21c-.5,21.1-6.8,39.3-20.9,54.3-12.4,13.2-27.7,20.5-46.1,19-17-1.4-30-10.1-39.5-24C4.8,103.41,1.2,92.01,.3,79.71c-1.7-21.1,3.8-40.1,17-56.6C27.5,10.31,40.6,2.01,57.1,.31c16.5-1.7,31,3.6,42.6,15.7,10.8,11.2,16.4,24.8,18,40.1,.3,2.9,.4,5.8,.6,8.1ZM2.4,67.61c-.1,19.9,3.6,33.4,11.9,45.3,9.2,13.1,21.7,21.1,37.8,22.3,15,1.1,28.3-4.2,39.2-14.3,18-16.6,25.6-37.5,24.1-61.8-.8-13.1-5-25-12.7-35.6-8.1-11-18.9-18.2-32.2-20.5-14.3-2.5-27.6,1.3-39.2,10.1C11.6,28.11,3,48.71,2.4,67.61Z"/>
      <path class="cls-1" d="M2.4,67.61C3,48.71,11.6,28.11,31.3,13.11,42.9,4.31,56.2,.51,70.5,3.01c13.3,2.3,24.2,9.5,32.2,20.5,7.7,10.6,11.9,22.5,12.7,35.6,1.5,24.3-6.1,45.2-24.1,61.8-11,10.1-24.2,15.4-39.2,14.3-16.1-1.2-28.6-9.2-37.8-22.3-8.3-11.9-12-25.4-11.9-45.3Zm24.1-23.5c0,1.2-.1,2.4,0,3.5,.7,6.5,4.5,10.7,11.1,5.5,.3-.3,.8-.5,1.1-.8,7.5-5.8,13.7-12.4,13.2-22.8-.1-2.7-.7-5.6-2-8-.7-1.2-3.3-1.3-4.9-2.2-3.6-2.1-6.3-.6-8.8,1.8-6.1,6.5-9.4,14.1-9.7,23Zm62.3-14.8c.3-1.8-.9-4.9-3.4-7.1-4-3.5-7.7-2.8-11.5,2.1-5.9,7.7-7.9,16.6-7.6,26.1,.1,2.4,2,4.4,4.4,4.3,1.8-.1,4-.4,5.4-1.4,7.6-5.4,12.3-12.7,12.7-24Zm-45,45.9c-4.3,.4-8.4,1.2-11.4,4.6-.5,.5-.2,1.6-.2,2.5,.8-.2,2.1-.2,2.5-.8,3.2-4.2,12-4.9,15.9-1.2,.4,.3,1.3,.6,1.6,.4,.4-.3,.8-1.2,.6-1.6-.5-.8-1.1-1.8-1.9-2-2.4-.8-4.8-1.3-7.1-1.9Z"/>
      <path d="M26.5,44.11c.2-8.9,3.6-16.5,9.9-22.9,2.4-2.5,5.2-4,8.8-1.8,1.6,.9,4.2,1,4.9,2.2,1.3,2.4,1.9,5.2,2,8,.4,10.3-5.8,16.9-13.2,22.8-.4,.3-.8,.5-1.1,.8-6.6,5.2-10.4,1-11.1-5.5-.3-1.2-.2-2.4-.2-3.6Zm23.1-13.7c0-.5,.1-.9,0-1.4-.4-1.9-.5-4-1.4-5.6-.5-.9-2.7-.8-3.7-1.6-3.7-3.2-5.8-.1-7.8,2.1-4.3,4.6-7,10.3-7.9,16.4-.5,3.4,.1,7,.8,10.4,.6,2.7,2.5,3.2,4.8,1.7,2.8-1.9,5.5-3.9,7.8-6.2,4.4-4.4,8-9.2,7.4-15.8Z"/>
      <path d="M88.8,29.31c-.4,11.3-5.1,18.5-12.7,24-1.4,1-3.5,1.3-5.4,1.4-2.4,.1-4.3-1.9-4.4-4.3-.3-9.5,1.7-18.4,7.6-26.1,3.7-4.9,7.5-5.6,11.5-2.1,2.5,2.2,3.6,5.3,3.4,7.1Zm-2.8,2.5v-1.9c0-3.2-2.5-7.9-4.8-7.6-2.2,.3-4,2.6-6,4-.1,0-.1,.2-.1,.2-4.5,6.4-6.2,13.6-6.5,21.2-.1,1.6-.5,3.7,1.5,4.2,1.5,.3,3.6,.1,4.8-.7,6.5-4.7,10.8-11,11.1-19.4Z"/>
      <path d="M43.8,75.21c2.3,.6,4.7,1,7,1.8,.8,.3,1.5,1.2,1.9,2,.2,.3-.2,1.3-.6,1.6-.3,.2-1.2,0-1.6-.4-3.9-3.7-12.7-3-15.9,1.2-.4,.6-1.7,.5-2.5,.8,.1-.9-.2-2,.2-2.5,3.1-3.3,7.1-4,11.5-4.5Z"/>
      <path class="cls-1" d="M49.6,30.41c.6,6.6-3,11.4-7.2,15.8-2.3,2.4-5.1,4.3-7.8,6.2-2.3,1.6-4.2,1.1-4.8-1.7-.8-3.4-1.3-7-.8-10.4,.9-6.2,3.6-11.8,7.9-16.4,2-2.2,4-5.3,7.8-2.1,1,.8,3.1,.7,3.7,1.6,.9,1.6,1,3.7,1.4,5.6-.1,.5-.2,.9-.2,1.4Zm-13.2,5c.4,.3,1,1.2,1.8,1.2,2,.1,3.8-2.2,3.6-4.5-.1-.8-1-2-1.6-2.1-1.5-.2-3.8,2.9-3.8,5.4Z"/>
      <path class="cls-1" d="M86,31.81c-.3,8.4-4.6,14.7-11.2,19.4-1.2,.9-3.3,1.1-4.8,.7-2-.5-1.6-2.6-1.5-4.2,.3-7.6,2-14.9,6.5-21.2,0-.1,.1-.2,.1-.2,2-1.4,3.9-3.7,6-4,2.3-.3,4.8,4.3,4.8,7.6,.1,.6,.1,1.2,.1,1.9Zm-7,1.1c-1.2-1-2.4-2.2-2.5-2.1-1,.8-2,1.8-2.6,2.9-.1,.2,1.3,1.9,1.5,1.8,1.1-.5,2.1-1.4,3.6-2.6Z"/>
      <path d="M36.4,35.41c0-2.5,2.3-5.6,3.8-5.4,.6,.1,1.5,1.3,1.6,2.1,.2,2.3-1.7,4.7-3.6,4.5-.8,0-1.5-1-1.8-1.2Z"/>
      <path d="M79,32.91c-1.5,1.1-2.5,2-3.6,2.6-.2,.1-1.7-1.5-1.5-1.8,.7-1.1,1.6-2.1,2.6-2.9,.1-.1,1.3,1.1,2.5,2.1Z"/>
    </g>
  </g>
</svg>