<?xml version="1.0" encoding="UTF-8"?>
<svg id="Layer_2" data-name="Layer 2" xmlns="http://www.w3.org/2000/svg" viewBox="0 0 142.23 165.23">
  <defs>
    <style>
      .cls-1 {
        fill: #fff;
      }
    </style>
  </defs>
  <g id="Layer_1-2" data-name="Layer 1">
    <g>
      <path d="M142.21,77.83c-.57,24.51-8.13,46.41-25.13,64.42-14.83,15.71-32.96,24.39-54.97,22.8-18.01-1.3-32.53-9.74-43.88-23.58C7.28,128.13,1.72,112.6,.35,95.48-1.68,70.07,5.04,47.22,20.98,27.34,31.95,13.66,45.91,4.18,63.38,1.04c6.33-1.14,13.11-1.39,19.46-.5,30.68,4.32,47.27,24.23,55.98,52.24,2.52,8.11,3.53,16.51,3.39,25.05ZM2.78,89.38c.4,3.59,.66,9.33,1.72,14.92,3.43,17.96,11.4,33.48,25.9,45.08,13.47,10.78,28.91,15.06,45.95,12.21,18.79-3.15,33.44-13.38,44.58-28.47,15.09-20.44,20.88-43.46,17.32-68.67-2.53-17.92-9.87-33.51-23.2-46.03-8.59-8.07-18.82-13.43-30.28-15.15C64.37,.2,46.45,6.68,31.45,20.59,12.11,38.5,3.45,61.18,2.78,89.38Z"/>
      <path class="cls-1" d="M2.78,89.38c.66-28.2,9.33-50.89,28.66-68.8C46.45,6.67,64.36,.2,84.76,3.26c11.46,1.72,21.7,7.08,30.28,15.15,13.33,12.53,20.67,28.11,23.2,46.03,3.56,25.21-2.23,48.23-17.32,68.67-11.14,15.09-25.78,25.33-44.58,28.47-17.04,2.85-32.48-1.43-45.95-12.21-14.49-11.6-22.47-27.12-25.9-45.08-1.05-5.57-1.31-11.32-1.71-14.91Zm46.67-2.13c1.39-2.95,2.74-5.59,1.55-8.9-5.21-14.44-20.45-20.11-32.51-16.8-.75,.21-1.38,.86-2.06,1.31,.83,.19,1.74,.69,2.49,.51,11.73-2.77,25.18,2.73,29.73,14.71,.97,2.55,.96,4.68-.41,6.94-.79,1.3-1.45,2.67-2.18,4.02,1.63,.12,3.26,.35,4.89,.35,9.71,.05,19.05-1.84,28.1-5.35,1.5-.58,2.38-1.03,1.78-2.87-.56-1.73,.34-3.44,1.98-3.5,1.93-.07,4.25,.38,5.74,1.48,.99,.73,1.29,3.07,1.1,4.6-.53,4.34-3.69,6.95-7.37,8.4-6.29,2.47-12.69,4.78-19.23,6.44-5.22,1.32-10.7,2.03-16.09,2.16-4.47,.11-9.06-.64-13.43-1.7-3.3-.8-7.08-1.46-8.97-5-4.17-7.82-8.27-15.68-12.45-23.49-.39-.73-1.13-1.27-1.71-1.9-.46,.88-.46,1.42-.24,1.84,4.34,8.44,8.67,16.89,13.09,25.29,.52,.99,1.45,2.02,2.45,2.46,2.72,1.21,5.49,2.55,8.38,3.04,8.66,1.48,17.34,2.29,26.11,.17,8.1-1.96,16.19-3.85,23.63-7.74,4.21-2.21,7.24-5.37,8.11-10.26,.72-4.03-1.57-6.97-6.26-7.9-4-.79-6.18,.8-7.07,4.99-.15,.71-.75,1.64-1.37,1.88-8.84,3.46-17.99,5.2-27.78,4.82Zm-10.94-41.56c-1.35-.5-2.45-.9-3.54-1.31-.43,1.3-1.48,2.78-1.17,3.87,.88,3.1,2.32,6.04,3.59,9.19,3.39-2.29,5.93-9.46,4.93-12.53-.44-1.35-1.32-1.69-2.45-.73-.61,.51-1.08,1.18-1.36,1.51Zm12.47,17.32c-.31,.84-.57,1.19-.54,1.5,.08,.67,.32,1.32,.49,1.98,.54-.46,1.42-.83,1.56-1.39,.33-1.33,.32-2.74,.45-4.12l-3.78,.48c-.17,.02-.35-.02-.52-.03-.41-1.15-1.27-2.54-1.98-2.47-1.29,.14-2.5,1.14-3.74,1.78,.15,.31,.31,.61,.46,.92,.98-.2,1.97-.39,3.13-.62-.09,3.49,1.97,2.88,4.47,1.97Zm18.23-21.65c-.07,.39-.15,.78-.22,1.17,2.64,.95,5.27,2.05,8.17,1.36,.06-.34,.12-.69,.18-1.03-2.72-.51-5.43-1.01-8.13-1.5Zm-25.65-8.59c.88,3.38,4.15,5.53,6.42,4.4-2.1-1.43-4.04-2.77-6.42-4.4Z"/>
      <path d="M49.45,87.25c9.79,.38,18.95-1.36,27.79-4.82,.62-.24,1.22-1.18,1.37-1.88,.9-4.2,3.07-5.79,7.07-4.99,4.7,.93,6.98,3.87,6.26,7.9-.87,4.89-3.9,8.06-8.11,10.26-7.44,3.9-15.53,5.79-23.63,7.74-8.77,2.12-17.45,1.31-26.11-.17-2.89-.49-5.66-1.84-8.38-3.04-.99-.44-1.92-1.47-2.45-2.46-4.43-8.4-8.76-16.85-13.09-25.29-.22-.42-.22-.96,.24-1.84,.58,.63,1.32,1.17,1.71,1.9,4.18,7.82,8.28,15.67,12.45,23.49,1.89,3.54,5.67,4.2,8.97,5,4.37,1.06,8.96,1.81,13.43,1.7,5.39-.13,10.87-.84,16.09-2.16,6.54-1.66,12.94-3.97,19.23-6.44,3.68-1.45,6.84-4.05,7.37-8.4,.19-1.52-.11-3.86-1.1-4.6-1.49-1.11-3.81-1.55-5.74-1.48-1.64,.06-2.54,1.77-1.98,3.5,.59,1.84-.28,2.29-1.78,2.87-9.05,3.51-18.39,5.4-28.1,5.35-1.63-.01-3.26-.23-4.89-.35,.72-1.34,1.39-2.71,2.18-4.02,1.37-2.26,1.38-4.39,.41-6.94-4.55-11.98-18-17.48-29.73-14.71-.75,.18-1.66-.33-2.49-.51,.68-.45,1.31-1.11,2.06-1.31,12.05-3.31,27.29,2.37,32.51,16.8,1.18,3.31-.17,5.95-1.56,8.9Z"/>
      <path d="M38.51,45.69c.28-.32,.76-.99,1.36-1.51,1.13-.96,2.01-.62,2.45,.73,1,3.07-1.54,10.24-4.93,12.53-1.27-3.14-2.71-6.09-3.59-9.19-.31-1.09,.74-2.57,1.17-3.87,1.09,.4,2.18,.81,3.54,1.31Zm-.88,8.82c.38-.03,.76-.05,1.14-.08,.78-2.7,1.57-5.39,2.35-8.09-.27-.09-.53-.18-.8-.27-.52,1.03-1.04,2.07-1.7,3.4-1.17-1.32-2.03-2.3-2.89-3.27-.31,.17-.63,.34-.94,.52,.95,2.6,1.9,5.19,2.84,7.79Z"/>
      <path d="M50.98,63.01c-2.5,.91-4.56,1.52-4.47-1.98-1.16,.23-2.14,.43-3.13,.62-.15-.31-.31-.61-.46-.92,1.24-.64,2.44-1.64,3.74-1.78,.71-.07,1.57,1.32,1.98,2.47,.17,.01,.35,.05,.52,.03,1.26-.15,2.52-.32,3.78-.48-.13,1.38-.11,2.79-.45,4.12-.14,.56-1.02,.93-1.56,1.39-.17-.66-.41-1.31-.49-1.98-.04-.3,.22-.66,.54-1.49Z"/>
      <path d="M69.21,41.36c2.71,.5,5.42,.99,8.13,1.49-.06,.34-.12,.69-.18,1.03-2.9,.69-5.52-.4-8.17-1.36,.07-.39,.14-.77,.22-1.16Z"/>
      <path d="M43.56,32.77c2.38,1.63,4.32,2.96,6.42,4.4-2.26,1.14-5.54-1.02-6.42-4.4Z"/>
      <path class="cls-1" d="M37.63,54.51c-.95-2.6-1.9-5.19-2.84-7.79,.31-.17,.63-.34,.94-.52,.86,.97,1.72,1.95,2.89,3.27,.67-1.33,1.19-2.36,1.7-3.4,.27,.09,.53,.18,.8,.27-.78,2.7-1.57,5.39-2.35,8.09-.37,.03-.75,.05-1.14,.08Z"/>
    </g>
  </g>
</svg>