<?xml version="1.0" encoding="UTF-8"?>
<svg id="Layer_2" data-name="Layer 2" xmlns="http://www.w3.org/2000/svg" viewBox="0 0 131.23 152.58">
  <defs>
    <style>
      .cls-1 {
        fill: #fff;
      }
    </style>
  </defs>
  <g id="Layer_1-2" data-name="Layer 1">
    <g>
      <path d="M131.23,71.66c-.91,25.99-9.53,48.35-29.45,65.47-13.11,11.26-28.44,16.94-45.81,15.11-19.28-2.03-33.68-12.27-44.02-28.37C4.95,112.96,1.29,100.9,.3,87.96c-1.79-23.45,4.44-44.49,19.2-62.75C30.65,11.41,44.94,2.31,62.85,.38c18.42-1.98,34.46,3.76,47.49,17.1,11.95,12.24,18.15,27.19,20.1,44.02,.39,3.43,.54,6.88,.79,10.16ZM2.73,76.32c-.16,23.31,5.52,40.4,17.67,54.2,13.61,15.45,30.8,21.99,51.36,18.3,15.47-2.78,27.79-11.08,37.49-23.09,15.59-19.29,21.6-41.46,18.22-66.04-2.27-16.55-9-30.99-21.37-42.47-9.28-8.62-20.31-13.86-32.98-14.58-18.01-1.02-33.3,5.7-45.97,18.24C10.6,37.26,3.14,57.5,2.73,76.32Z"/>
      <path class="cls-1" d="M2.73,76.32c.41-18.82,7.88-39.06,24.42-55.43C39.82,8.35,55.11,1.63,73.12,2.65c12.67,.72,23.69,5.96,32.98,14.58,12.36,11.48,19.1,25.92,21.37,42.47,3.38,24.59-2.63,46.75-18.22,66.04-9.7,12-22.02,20.31-37.49,23.09-20.56,3.69-37.75-2.84-51.36-18.3C8.25,116.72,2.57,99.63,2.73,76.32Zm17.74,25.88c.06,.35,.12,.71,.18,1.06,2.76,0,5.59,.38,8.27-.07,7.78-1.32,15.49-2.54,23.47-1.59,3.34,.4,6.35,.39,8.51,3.56,1.44,2.11,3.86,2.45,6.07,1.17,2.04-1.18,2.78-3.44,1.91-5.45-1.14-2.66-2.76-5.2-4.58-7.46-1.4-1.74-1.83-2.91-.06-4.58,.78-.74,1.5-1.89,1.6-2.93,.25-2.51-2.28-4.19-5.44-3.62-4.61,.84-9.21,1.81-13.79,2.85-8.93,2.01-17.82,4.22-27.1,2.6-.3-.05-.68,.39-1.52,.9,1.1,.5,1.77,1.04,2.46,1.07,3.78,.17,7.66,.75,11.35,.19,7.49-1.14,14.88-2.95,22.33-4.41,2.57-.5,5.17-.87,7.77-1.1,.63-.05,1.45,.61,1.94,1.16,.18,.2-.25,1.15-.61,1.57-3.34,3.92-3.31,4.57,.38,8.26,1.96,1.97,3.58,4.15,3.35,7.15-.16,2.09-1.82,3.06-3.64,2.02-.83-.47-1.37-1.42-2.15-2.01-1.25-.96-2.53-2.43-3.91-2.57-5.13-.53-10.32-1.03-15.44-.73-6.39,.37-12.74,1.54-19.1,2.39-.77,.1-1.5,.37-2.25,.57Zm98.74-27.22c-.23-.29-.45-.59-.68-.88-.66,.37-1.3,.78-1.98,1.1-2.62,1.23-5.19,2.56-7.88,3.62-5.91,2.34-12.12,1.6-18.27,1.75-2.54,.06-5.18,.76-7.55,1.72-2.1,.85-2.18,2.64-.62,4.07,2.64,2.42,2.64,4.27,.98,7.67-1.1,2.27-1.89,4.88-2.01,7.38-.24,4.7,3.71,7.36,8.24,5.97,4.69-1.44,6.64-5.16,6.78-9.49,.1-3.16,1.44-3.93,4.01-4.41,6.24-1.16,12.37-2.7,17.87-6.03,.56-.34,.83-1.17,1.24-1.77-.7-.06-1.59-.43-2.06-.13-5.8,3.64-12.41,4.81-18.91,6.35-3.68,.87-4.07,1.36-4.14,5.1-.06,3.26-1.03,6.29-4.04,7.76-1.49,.73-3.84,.74-5.33,.05-1.02-.47-1.65-2.7-1.69-4.16-.04-1.62,.74-3.27,1.25-4.88,.64-2.03,1.94-4.05,1.87-6.03-.06-1.89-1.52-3.74-2.44-5.77,2.74-1.78,6.13-1.46,9.45-1.31,7.95,.37,15.56-.76,22.46-4.99,1.25-.74,2.31-1.78,3.45-2.69Zm-51.42-19.61c3.44,.16,6.41-1.03,8.85-3.41,1.6-1.56,1.63-5.62,.17-6.71-4.19-3.15-8.79-3.2-13.54-.19-2.14,1.36-3.62,3.11-3.19,5.79,.37,2.3,2.78,4.17,5.54,4.51,.71,.08,1.44,0,2.17,0Zm35.43-19.93c-.12-.29-.24-.59-.35-.88-.79,.42-1.84,.64-2.32,1.28-6.62,8.98-6.91,20.42-.88,28.55,.43,.57,1.35,.78,2.04,1.15-.1-.72,.05-1.63-.33-2.13-6.17-7.98-5-20.37,1.84-27.97ZM30.44,72.82c.26,.13,.53,.26,.79,.38,.63-1,1.77-1.98,1.79-2.99,.12-5.12,.31-10.29-.25-15.36-.38-3.52-1.8-6.96-3.02-10.34-.36-1-1.66-1.66-2.52-2.47,4.61,10.12,5.48,20.24,3.21,30.78ZM91.78,25.64c.01,.1,.02,.21,.04,.31,1.18,0,2.38,.12,3.53-.04,.73-.1,1.4-.63,2.1-.97-.72-.37-1.44-1.05-2.15-1.04-3.9,.06-7.79,.23-11.68,.48-1.34,.09-2.67,.45-3.95,.86-.48,.15-.8,.8-1.19,1.22,.58,.2,1.18,.62,1.74,.56,3.85-.41,7.7-.91,11.56-1.38Zm-55.29,5.7c4.51,.19,17.08-2.22,17.75-3.4-4.73-1.33-17.22,1.07-17.75,3.4Z"/>
      <path d="M20.47,102.2c.74-.19,1.48-.46,2.23-.56,6.36-.85,12.71-2.02,19.1-2.39,5.12-.3,10.32,.2,15.44,.73,1.38,.14,2.66,1.62,3.91,2.57,.78,.59,1.32,1.54,2.15,2.01,1.82,1.04,3.48,.07,3.64-2.02,.23-3-1.39-5.18-3.35-7.15-3.68-3.7-3.71-4.35-.38-8.26,.36-.43,.79-1.37,.61-1.57-.49-.55-1.31-1.22-1.94-1.16-2.6,.22-5.21,.59-7.77,1.1-7.45,1.46-14.83,3.28-22.33,4.41-3.69,.56-7.56-.02-11.35-.19-.69-.03-1.35-.57-2.46-1.07,.84-.51,1.22-.95,1.52-.9,9.28,1.62,18.17-.58,27.1-2.6,4.58-1.03,9.17-2,13.79-2.85,3.17-.58,5.69,1.11,5.44,3.62-.1,1.03-.82,2.19-1.6,2.93-1.76,1.67-1.33,2.84,.06,4.58,1.82,2.26,3.44,4.8,4.58,7.46,.86,2.01,.13,4.27-1.91,5.45-2.21,1.28-4.63,.94-6.07-1.17-2.16-3.18-5.17-3.16-8.51-3.56-7.98-.95-15.69,.27-23.47,1.59-2.68,.46-5.51,.07-8.27,.07-.03-.37-.1-.72-.16-1.07Z"/>
      <path d="M119.21,74.98c-1.14,.91-2.2,1.96-3.44,2.71-6.9,4.23-14.51,5.36-22.46,4.99-3.32-.15-6.71-.47-9.45,1.31,.92,2.03,2.37,3.87,2.44,5.77,.07,1.99-1.24,4.01-1.87,6.03-.51,1.61-1.29,3.26-1.25,4.88,.04,1.46,.67,3.68,1.69,4.16,1.49,.69,3.84,.68,5.33-.05,3.01-1.48,3.98-4.5,4.04-7.76,.07-3.75,.46-4.23,4.14-5.1,6.49-1.54,13.11-2.7,18.91-6.35,.47-.3,1.36,.07,2.06,.13-.41,.6-.68,1.43-1.24,1.77-5.5,3.33-11.64,4.87-17.87,6.03-2.57,.48-3.91,1.25-4.01,4.41-.14,4.33-2.1,8.05-6.78,9.49-4.54,1.39-8.48-1.27-8.24-5.97,.13-2.5,.91-5.12,2.01-7.38,1.66-3.4,1.65-5.25-.98-7.67-1.55-1.43-1.48-3.23,.62-4.07,2.37-.96,5.01-1.66,7.55-1.72,6.15-.14,12.36,.59,18.27-1.75,2.68-1.06,5.26-2.39,7.88-3.62,.68-.32,1.32-.73,1.98-1.1,.22,.27,.44,.56,.67,.86Z"/>
      <path d="M67.79,55.37c-.73,0-1.46,.07-2.18-.01-2.76-.34-5.16-2.21-5.54-4.51-.43-2.68,1.05-4.43,3.19-5.79,4.75-3.01,9.35-2.96,13.54,.19,1.46,1.09,1.43,5.15-.17,6.71-2.43,2.38-5.4,3.56-8.84,3.41Zm2.64-11.26c-2.42,1.12-4.75,1.88-6.7,3.2-2.57,1.74-2.23,4.04,.5,5.44,2.96,1.51,8.81,.63,10.7-2.03,.65-.91,.61-3.1-.06-3.99-.91-1.19-2.74-1.68-4.44-2.62Z"/>
      <path d="M103.22,35.44c-6.84,7.6-8.01,19.99-1.84,27.98,.39,.5,.23,1.41,.33,2.13-.69-.38-1.62-.58-2.04-1.15-6.04-8.13-5.75-19.57,.88-28.55,.48-.65,1.53-.87,2.32-1.28,.12,.28,.23,.57,.35,.87Z"/>
      <path d="M30.44,72.82c2.27-10.54,1.4-20.66-3.21-30.78,.87,.82,2.16,1.48,2.52,2.47,1.23,3.38,2.64,6.82,3.02,10.34,.55,5.07,.36,10.24,.25,15.36-.02,1.01-1.17,1.99-1.79,2.99-.26-.13-.52-.25-.79-.38Z"/>
      <path d="M91.78,25.64c-3.85,.47-7.7,.97-11.56,1.38-.55,.06-1.16-.36-1.74-.56,.39-.42,.71-1.06,1.19-1.22,1.28-.41,2.62-.77,3.95-.86,3.89-.26,7.78-.43,11.68-.48,.71-.01,1.43,.68,2.15,1.04-.7,.34-1.37,.87-2.1,.97-1.16,.16-2.35,.04-3.53,.04-.02-.1-.03-.21-.04-.31Z"/>
      <path d="M36.49,31.34c.53-2.33,13.02-4.73,17.75-3.4-.67,1.18-13.24,3.58-17.75,3.4Z"/>
      <path class="cls-1" d="M70.43,44.11c1.7,.94,3.53,1.43,4.44,2.62,.67,.88,.71,3.07,.06,3.99-1.89,2.65-7.74,3.54-10.7,2.03-2.74-1.4-3.08-3.7-.5-5.44,1.95-1.33,4.28-2.08,6.7-3.2Z"/>
    </g>
  </g>
</svg>