<?xml version="1.0" encoding="utf-8"?>

<!DOCTYPE svg PUBLIC "-//W3C//DTD SVG 1.1//EN" "http://www.w3.org/Graphics/SVG/1.1/DTD/svg11.dtd">
<svg version="1.1"
	 id="Layer_1" xmlns:cc="http://creativecommons.org/ns#" xmlns:dc="http://purl.org/dc/elements/1.1/" xmlns:rdf="http://www.w3.org/1999/02/22-rdf-syntax-ns#" xmlns:svg="http://www.w3.org/2000/svg"
	 xmlns="http://www.w3.org/2000/svg" xmlns:xlink="http://www.w3.org/1999/xlink" x="0px" y="0px" viewBox="0 0 3511.096 2482.456"
	 enable-background="new 0 0 3511.096 2482.456" xml:space="preserve">
<filter  height="1.072" id="filter4604" style="color-interpolation-filters:sRGB" width="1.072" x="-0.036" y="-0.036">
	<feGaussianBlur  id="feGaussianBlur4606" stdDeviation="11.04288"></feGaussianBlur>
</filter>
<g id="g4625">
	
		<linearGradient id="rect17_1_" gradientUnits="userSpaceOnUse" x1="1755.49" y1="-0.3899" x2="1755.49" y2="2482" gradientTransform="matrix(1 0 0 -1 0 2482)">
		<stop  offset="0" style="stop-color:#DE9F60"/>
		<stop  offset="0.1865" style="stop-color:#DC9B5F"/>
		<stop  offset="0.3645" style="stop-color:#D6905B"/>
		<stop  offset="0.5391" style="stop-color:#CC7C54"/>
		<stop  offset="0.7117" style="stop-color:#BD614A"/>
		<stop  offset="0.881" style="stop-color:#AB3F3E"/>
		<stop  offset="1" style="stop-color:#9C2234"/>
	</linearGradient>
	<rect id="rect17" fill="url(#rect17_1_)" width="3510.98" height="2482.39"/>
	<g id="circle28" filter="url(#filter4604)">
		
			<radialGradient id="SVGID_1_" cx="1101.6014" cy="1235.205" r="368.096" gradientTransform="matrix(1.1547 0 0 -1.1547 -234.2133 2614.0183)" gradientUnits="userSpaceOnUse">
			<stop  offset="0" style="stop-color:#CF967D"/>
			<stop  offset="0.4864" style="stop-color:#CD9279;stop-opacity:0.7082"/>
			<stop  offset="0.9497" style="stop-color:#C9876E;stop-opacity:0.4302"/>
			<stop  offset="1" style="stop-color:#C8856C;stop-opacity:0.4"/>
		</radialGradient>
		<circle fill="url(#SVGID_1_)" cx="1037.824" cy="1187.707" r="425.046"/>
		<circle fill="none" stroke="#FBD5B2" stroke-width="0.1272" cx="1037.824" cy="1187.707" r="425.046"/>
	</g>
	
		<radialGradient id="circle43_1_" cx="1037.824" cy="1294.293" r="271.397" gradientTransform="matrix(1 0 0 -1 0 2482)" gradientUnits="userSpaceOnUse">
		<stop  offset="0" style="stop-color:#FEFCFA"/>
		<stop  offset="0.2432" style="stop-color:#FEFAF6"/>
		<stop  offset="0.4751" style="stop-color:#FDF4EB"/>
		<stop  offset="0.7026" style="stop-color:#FDE9D7"/>
		<stop  offset="0.926" style="stop-color:#FBDBBD"/>
		<stop  offset="1" style="stop-color:#FBD5B2"/>
	</radialGradient>
	<circle id="circle43" fill="url(#circle43_1_)" stroke="#FBD5B2" stroke-width="0.0938" cx="1037.824" cy="1187.707" r="271.397"/>
	<path id="path45" stroke="#000000" stroke-width="0.0938" d="M941.75,1377.85c4.21-2.59,9.28-3.22,13.89-4.87
		c2.24,2.55,4.47,5.14,6.3,8.03c4.34,6.29,5.58,13.93,7.19,21.24c1.56,6.34,8.19,8.68,13.82,10.14c-2.59,0.67-5.18,1.31-7.77,1.88
		c-0.6,6.82-0.2,13.65,0.15,20.47c0.29,7.26,0.66,14.53,0.97,21.8c0.82,19.22,1.74,38.45,2.57,57.68c0.91,6.92-1.01,14.6,2.9,20.83
		c-0.48,0.47-1.44,1.41-1.92,1.89c3.17,0.13,6.35,0.31,9.53,0.55c-2.48,0.4-4.95,0.8-7.41,1.23c-0.75,2.73-2.16,5.37-1.89,8.3
		c0.5,12.6-0.32,25.21-0.7,37.81c-0.3,12.35-0.77,24.83,0.99,37.09c1.85,4.75,4.79,8.99,7.15,13.51c-2.85,1.85-5.47,4.02-8.13,6.13
		c0.08,4.5-0.05,9.01,0.17,13.52c0.02,1.18,0.84,2.09,1.34,3.15c0.06,0.68,0.17,2.05,0.23,2.73c3.11,0.54,6.22,1.02,9.36,1.48
		c-4.28,1.74-10.25,3.31-11.06,8.68c-0.56,7.08,2,13.94,2.3,20.99c-0.12,3.97-1.31,7.82-1.96,11.74c5.67-2.16,12.22-2.86,16.85-7.12
		c5.32-4.74,9.97-10.14,14.68-15.46c1.93-2.27,4.58-3.71,7.22-4.98c-0.08-3.84,0.05-7.76,1.62-11.31c-2.99-1.38-5.85-3.01-8.55-4.86
		c5.12-0.68,9.87-2.8,14.89-3.88c-0.87-3.72-0.03-7.52,0.18-11.25c1.05-14.44,2.26-28.87,3.22-43.32
		c-5.24-0.5-10.32-1.94-15.36-3.39c6.38-0.95,12.8-1.49,19.21-2.21c-0.44-3.37-0.86-6.75-0.76-10.14c0.42-3.9,1.76-8.09-0.03-11.84
		c-1.25-3.19-4.31-5.03-6.74-7.19c3.65-0.62,7.42-0.75,10.98-1.87c1.74-0.52,1.6-2.69,2.05-4.07c0.79-5.02,2.07-9.94,3.75-14.73
		c-3.34-1.84-6.67-3.7-9.98-5.56c4.57-1.2,9.39-1.79,13.67-3.9c2.14-1.02,2.16-3.69,2.82-5.64c0.89-4.22,2.56-8.22,4.63-11.99
		c1.99-3.84,4.46-7.44,7.64-10.39c5.08-4.81,8.28-11.13,12.27-16.79c6.67,0.31,13.38,0.75,19.86,2.48c7.28,1.9,14.71,3.14,22.2,3.86
		c6.32,0.59,13.05,2.02,17.61,6.81c8.92,10.73,11.93,24.94,14.46,38.32c2.12,13.4,2.55,27.07,1.15,40.56
		c-0.78,5.68-0.92,11.74-3.98,16.79c-2.22,3.73-2.62,8.12-3.46,12.3c-1.25,6.63-2.59,13.25-3.72,19.91
		c-0.24,1.64-0.94,3.18-1.67,4.69c3.38,1.64,6.58,3.76,8.91,6.76c-5.13,1.27-10.26,2.51-15.38,3.8c-0.74,3.24-1.92,6.42-2.11,9.77
		c0.23,4.82,2.55,9.2,4.08,13.7c-3.89,0.24-7.88-0.41-11.68,0.48c-2.56,2.31-4.51,5.21-6.89,7.71c0.39,1.48,0.8,3.01,1.28,4.52
		c1.07,3.86,6.15,7.32,3.4,11.45c-2.61-1.91-4.9-4.54-8.13-5.33c-3.9,2.43-4.55,7.58-7.91,10.54
		c-19.75,17.62-39.57,35.17-59.3,52.82c-6.31,5.31-12.11,11.26-18.68,16.23c-14.54,6.66-31.03,5.14-46.31,8.69
		c0.13,25.31-0.11,50.61-0.08,75.92c0.26,16.15-1.98,32.18-2.76,48.29c-0.7,14.37-0.13,29.53,7.07,42.4
		c-1.96,0.97-3.9,1.98-5.84,2.98c-1.74,5.03-1.04,10.42-1.17,15.66c0.06,2.5-0.2,5.09,0.45,7.57c1.54,2.58,3.5,4.89,5.06,7.49
		c-2.43,0.69-4.96,0.84-7.23-0.37c-2.05,13.65-1.7,27.46-2.03,41.22c0.05,6.91-0.12,13.92,1.65,20.67c0.93-0.86,1.91-1.64,2.86-2.44
		c0.6,0.88,1.22,1.78,1.84,2.72c-3.32,0.99-8.9,0.27-9.73,4.65c-0.75,5.17-0.75,10.45-1.78,15.6c-22.97,1.8-45.95,3.34-68.96,4.39
		c-0.68-4.18-1.21-8.41-0.83-12.63c0.89-13.14-2.31-26.03-4.26-38.92c-1.87-10.92-1.53-22.04-2.34-33.04
		c-1.64-31.72-3.39-63.43-5.01-95.14c-2.53-46.61-6.11-93.2-6.09-139.9c0.15-15.67,0.4-31.33,0.34-46.99
		c-0.18-2.26-0.02-5.31-2.49-6.37c-5.4-2.78-11.33-4.24-17.02-6.26c-5.55-1.37-10.83-4.1-16.36-5.14c-2.99,2.58-4.39,6.68-6.72,9.89
		c1.1-3.93,2.27-8.11,1.15-12.16c-1.24-4.93-5.51-8.46-10.1-10.17c-7.11-2.9-14.96-2.97-22.5-2.46c1.91-4.45,4.65-10.08,1.39-14.58
		c-4.19-5.1-10.86-7.78-14.13-13.74c-6.38-11.14-12.71-22.3-19.08-33.44c-2.52,0.28-5.15,0.19-7.54,1.1
		c-2.11,1.91-3.63,4.37-5.45,6.56c1.97-4.76,4.22-9.38,6.3-14.07c0.26-0.55,0.77-1.66,1.02-2.21c-2.52-2.85-5.29-5.47-8.14-7.98
		c-0.92-5.58-2.4-11.04-3.86-16.48c-0.93-3.24-2.19-6.81-5.28-8.56c-4.09-2.18-8.89-1.45-13.31-1.39c3.3-3.05,6.62-6.07,10.1-8.9
		c-1.62-5.36-1.03-10.98-1.2-16.48c-4.54-4.74-11.58-4.93-17.54-6.58c4.06-2.66,8.25-5.09,12.42-7.56
		c-2.22-17.59-5.65-35.13-5.29-52.93c0.33-16.47,4.24-33.75,15.17-46.54c2.57-3.24,3.73-7.26,5.05-11.09
		c3.8,0.38,7.6-0.22,11.41-0.13c2.97,0.83,5.31,3.06,7.88,4.7c1.57-2.83,3.16-5.65,4.74-8.47c8.39-1.14,17.84-3.21,25.35,2.03
		c10.32,8.96,19.57,20.49,21.74,34.37c0.82,3.23,0.69,7.53,3.89,9.52c4.19,1.97,9,1.14,13.47,1.04c-1.47,1.11-2.95,2.23-4.36,3.44
		c-2.99,3.11-7.79,7.13-5.42,11.93c2.94,7.08,5.76,14.35,6.53,22.04c1.51,15.06,3.15,30.11,4.63,45.18
		c0.25,3.58,0.64,7.61,3.53,10.16c2.54,1.46,5.55,1.81,8.36,2.61c-2.96,0.65-5.95,1.16-8.82,2.09c-0.26,0.37-0.77,1.1-1.03,1.46
		c-0.61,0.86-1.23,1.73-1.84,2.61c3.13,10.74,6.02,21.56,9.55,32.18c-0.04,0.89-0.11,2.68-0.14,3.58c3.32-1.74,6.53-3.67,9.61-5.79
		c-1.71,2.46-3.88,4.89-4.27,7.99c-0.26,1.48,0.61,3.01,1.97,3.67c5.34,2.37,12.58-0.11,14.53-5.85c2.82-7.83,1.22-16.3,1.35-24.41
		c-0.02-0.62-0.05-1.87-0.07-2.49c-4.85-2.29-10.1-3.55-14.98-5.76c4.77-0.9,9.64-0.69,14.45-0.16c1.01-22.87,2.12-45.73,3.11-68.6
		c0.42-8.04,0.67-16.1,1.13-24.13c-0.05-1.53,1.35-2.37,2.22-3.4c-0.44-1.33-0.9-2.68-1.3-3.97c-4.6-1.46-9.45-1.52-14.18-2.2
		c5.77-1.22,11.83-1.76,17.13-4.55c2.13-9.87,4.53-19.69,6.74-29.54c1.66-7.37,3.4-14.71,5.07-22.07
		c1.56-6.49,2.87-13.03,4.55-19.48c0.46-2.3,2.47-3.67,4.38-4.71c5.62-1.61,11.53-1.11,17.3-1.33c4.47,4.51,7.14,10.46,11.48,15.03
		C937.53,1386.04,938.38,1381.12,941.75,1377.85z"/>
	<path id="path47" fill="#E68956" stroke="#E68956" stroke-width="0.0938" d="M2609.23,1520.04c5.4-4.99,12.34-8.36,19.71-9.02
		c2.01,1.6,2.58,4.37,3.46,6.71c3.98,15.05,4.67,30.75,4.87,46.24c1.03,13.57,0.37,27.18,0.58,40.77c0,16.1-0.34,32.21-0.26,48.32
		c-0.21,15.09,1.12,30.2-0.16,45.27c-0.66,11.59-1.93,23.13-2.6,34.73c-0.83,9.63-0.72,19.32-0.46,28.99
		c0.35,5.93,0.72,12.07,3.4,17.51c-2.96,7.16-4.77,14.75-7.97,21.82c-5.16-0.65-10.68-1-15.04-4.12
		c-6.21-4.64-14.27-4.82-21.64-5.65c-9.19-0.93-18.48-0.59-27.58-2.22c-1.14-6.43-1.91-13.17,0.07-19.51
		c1.32-4.13,2.61-8.51,1.46-12.83c-2.45-10.67-7.8-20.37-12.55-30.13c5.46,1.04,10.72,3.95,14.12,8.4
		c1.36,4.78,1.07,9.83,1.61,14.75c1.01,11.59,1.73,23.2,2.97,34.77c4.13-2.06,9.28-3.84,11.15-8.47c0.68-3.76-0.15-7.58,0.04-11.35
		c0.41-12.92,3.99-25.44,7.93-37.65c3.9-10.2,5.96-21.05,6-31.97c1.01-6.1,0.14-12.24-0.1-18.36c-0.26-15.32-2.41-30.68-0.58-45.99
		c0.63-7.4,2.22-14.65,3.45-21.96c3.95-19.76,4.63-40.07,3.08-60.12C2603.73,1539.16,2603.98,1528.67,2609.23,1520.04z"/>
	<path id="path49" fill="#E68956" stroke="#E68956" stroke-width="0.0938" d="M2152.85,1538.58c11.54-1.16,23.52-0.88,34.56,2.99
		c6.49,2.17,11.48,7.13,15.44,12.54c3.79,5.43,10.97,6.72,17.15,7.03c7-0.13,14.02,0.05,20.97,1.11c-0.15,4.39-0.11,8.81,0.69,13.16
		c0.43,11.84,0.14,23.7,0.35,35.56c0.24,14.33-0.27,28.69,0.87,43c-0.02,9.7,0.02,19.4,0.21,29.11c5.35-0.49,10.5-2.02,15.67-3.43
		c5.21-1.42,10.7-0.72,15.85,0.65c5.26,9.72,9.97,19.84,12.59,30.62c1.71,6.63,2.51,13.46,3.32,20.26
		c1.38,15.59,1.23,31.35,4.25,46.76c1.34,8.3,3.14,16.67,7.3,24.08c4.33,7.83,8.75,15.91,9.79,24.96c0.8,6.31,0.55,12.7,0.33,19.06
		c-0.99,15.26-3.39,30.6-1.41,45.9c-0.1,2.26,2,3.45,3.6,4.67c7.06,4.89,14.07,9.87,21.06,14.89c1.67,1.05,3.22,2.67,5.25,3.06
		c4.17-2.3,7.73-5.85,9.73-10.21c0.92-1.52,1.52-3.83,3.64-3.98c5.55-0.81,11.19-0.25,16.78-0.17c0.59,0.98,1.2,1.97,1.81,3.02
		c2.19,5.31,3.64,10.98,3.55,16.77c0.04,4.65-0.42,9.99,3.08,13.67c7.77,8.59,19.87,11.78,27.17,20.93
		c3.85,4.34,5.12,10.13,7.77,15.17c2.93,5.37,9.3,7.14,14.84,8.5c6.71-7.48,9.58-17.52,10.66-27.31
		c1.61-16.03-0.58-32.11-2.38-48.02c-2.02-19.2-4.91-38.91-0.16-57.94c2.24-7.21,5.04-14.35,5.77-21.93
		c0.57-4.78,0.78-9.59,0.94-14.39c0.07-22.77-0.22-45.79,4.6-68.16c9.29-3.53,18.85-6.31,28.12-9.93
		c0.43-5.85,0.66-11.71,0.73-17.56c-0.1-3.21,0.15-6.82-2.16-9.34c-3.93-4.39-7.86-9.51-7.86-15.68
		c-0.22-18.87-0.82-37.73-1.52-56.58c0.6-6.69-0.95-13.65,1.51-20.06c2.2-6.06,3.65-12.49,7.08-18.02c1.67-2.85,4.85-4.28,7.97-4.92
		c6.45-1.35,13.07-1.37,19.63-1.89c3.37,11.12,5.85,22.48,8.82,33.72c0.38,1.48,0.79,3.02,1.53,4.43
		c4.81,2.24,10.11,0.08,15.09-0.26c3.47-0.5,6.86,1.73,8.3,4.85c4.15,8.34,5.52,17.69,7.35,26.73c0.58,2.52,0.65,5.12,0.42,7.71
		c-7.67,1.07-13.97,6.62-17.45,13.33c-5.48,10.36-6.46,22.45-5.9,33.97c-0.04,1.65,0.48,3.92-1.56,4.61
		c-7.23,4.2-15.13,7.77-20.66,14.27c-6.57,7.27-8.91,17.44-8.17,27.03c0.75,9.25,2.87,18.62,7.58,26.72
		c3.47,6.02,8.88,10.64,14.75,14.24c7.7,4.82,15.7,9.57,21.49,16.76c-11.55,11.12-21.41,24.62-25.57,40.31
		c-5.33,19.64-3.16,40.3-0.47,60.18c3.01,20.17,8.51,39.87,14.54,59.32c-17.71-6.48-37.67-8.21-55.65-1.77
		c-14.89,5.16-27.7,15.02-38.36,26.44c-4.89,5.19-9.31,10.78-14.11,16.04c-0.18-8.37-4.05-15.96-6.45-23.82
		c-5.48-14.73-12.45-29.17-22.63-41.26c-5.71-6.72-12.56-12.6-20.53-16.45c-10.92-5.4-23.6-6.05-35.5-4.49
		c-13.84,1.92-26.38,9.99-34.59,21.17c-13.05,17.43-17.08,40.99-11.45,61.92c3.71,13.41,12.97,24.76,24.31,32.58
		c15.48,10.79,34.28,15.94,52.96,17.22c14.27,1.27,28.55-0.28,42.83-0.72c0.04,19.16,1.34,38.81,8.72,56.72
		c-47.06-1.41-93.37-10.78-139.61-18.88c-37.01-6.77-74.17-12.85-111.58-17.02c-5.57-5.12-12.87-7.6-19.44-11.1
		c-15.98-7.51-32-14.98-48.24-21.9c-19.61-8.97-39.38-17.6-58.72-27.1c-3.59-1.69-6.98-3.72-10.26-5.91
		c-3.41-2.48-7.83-1.78-11.77-2.1c-10.54-0.55-21.43-0.64-31.32-4.77c-9.39-3.96-17.26-10.59-25.63-16.24
		c-14.06-9.13-30.65-12.76-45.97-19.09c-6.3-2.64-12.32-6.04-17.4-10.63c-4.94-5.35-8.57-11.76-11.54-18.36
		c-4.09-8.96-9.29-17.81-17.32-23.78c-8-5.92-16.4-11.48-23.08-18.95c-4.48-7.07-5.35-15.59-7.38-23.53
		c-1.67-6-2.67-12.26-5.18-17.95c-5.3-2.96-11.4-4.05-17.22-5.47c4.73,0.19,8.65-2.93,13.01-4.27c7.75-2.61,15.76-4.81,23.96-5.22
		c0.26,2.66,0.6,5.35,0.91,8.03c1.27,13.36,2.62,26.71,3.9,40.06c0.34,2.71,0.1,5.65,1.31,8.19c6.97,1.55,14.24,0.73,21.18-0.61
		c4.51-0.86,9.36-1.34,13.7,0.58c5.24,1.99,10.23,5.88,16.13,5.13c5.2-1.25,7.18-6.98,8.57-11.54c3.36-13.25,3.61-27.04,3.74-40.63
		c0.07-8.34,0-16.68,0.01-25.01c0.26-25.35,1.44-50.74,4.81-75.88c2.3-14.07,4.57-28.16,8.04-42c2.85-11.46,6.22-22.79,9.85-34.03
		c1.8-5.43,2.13-11.54,5.98-16.07c4.89-0.04,9.97-5,14.54-1.61c3.24,2.04,6.36,4.85,7.17,8.78c1.51,6.23,2.15,12.63,3.16,18.96
		c0.57,8.64,0.1,17.3-0.72,25.91c-0.46,12.01-0.69,24.04-0.38,36.07c0.23,12.78,1.29,25.71,5.19,37.96
		c3.7,12.08,5.39,24.64,6.56,37.19c0.84,13.6,0.27,27.22-0.03,40.83c-0.52,16.92-2.39,34.76,4.38,50.78
		c6.03-3.47,8.56-10.43,9.73-16.91c1.49-8.75,1.66-17.7,1.13-26.53c-0.01-9.14-0.84-18.27-0.52-27.41
		c0.15-5.89,0.06-11.79-0.52-17.65c0.4-7.43-0.41-15.02,1.55-22.28c1.15-4.73,3.75-9.12,7.47-12.28c2.46-2.09,5.95-1.45,8.9-2.27
		c2.13-1.98,2.32-5.16,2.92-7.84c1.71-12.85,2.1-25.89,1.18-38.82c-1.21-18.53-7.66-36.14-10.05-54.49
		c0.21-12.26,1.12-24.59,3.99-36.54c1.15-5.45,5.56-9.17,8.21-13.84c3.81-6.67,6.1-14.29,6.02-22.01
		c-0.47-10.57,5.09-21.44,14.37-26.69c6.56-3.07,14.15-2.37,20.83-5.15c9.17-3.8,15.71-11.77,21.42-19.59
		c3.21-4.16,5.41-9.1,9.27-12.73c4.68-3.94,10.67-5.82,16.48-7.42C2122.27,1542.65,2137.49,1539.93,2152.85,1538.58z"/>
	<path id="path51" stroke="#000000" stroke-width="0.0938" d="M2526.05,1677.04c3.48-6.71,9.78-12.26,17.45-13.33
		c6.37-0.64,12.91,1.86,17.16,6.67c5.34,5.8,7.01,14.12,6.15,21.8c-1.53,11.25-7.3,21.53-14.54,30.12c0.69,1.52,1.48,3.07,2.25,4.62
		c4.75,9.76,10.1,19.46,12.55,30.13c1.15,4.32-0.14,8.7-1.46,12.83c-1.98,6.34-1.21,13.08-0.07,19.51
		c9.1,1.63,18.39,1.29,27.58,2.22c7.37,0.83,15.43,1.01,21.64,5.65c4.36,3.12,9.88,3.47,15.04,4.12c3.2-7.07,5.01-14.66,7.97-21.82
		c3.24-7.21,8.87-13.06,15.47-17.32c9.27-6.79,21.33-11.39,32.82-8.06c12.51,3.5,21.06,15.11,24.25,27.26
		c4.75,17.09-1,36.74-14.96,47.89c-10.15,8.2-23.67,9.26-35.5,13.78c-0.44,13.05,2.12,25.96,2.37,38.99
		c0.22,11.29-1.79,22.65-5.93,33.17c-2,4.42-3.71,9.31-7.47,12.6c-29.71,24.46-59.36,48.99-89.05,73.47
		c3.52,5.04,6.93,10.24,11.17,14.75c2.51,2.7,3.65,6.31,5.24,9.59c7.84,17.21,11.34,36.44,9.38,55.29
		c-1.17,11.8-4.21,23.37-8.4,34.45c-8.64,22.9-21.31,43.94-32.73,65.5c-4.24,7.77-8.62,15.49-13.75,22.72
		c-20.41-1.31-40.81-2.83-61.21-4.35c-2.63-3.37-5.3-6.7-7.96-10.01c-7.72-9.58-15.41-19.18-23.1-28.77
		c-10.74-12.88-20.29-26.96-26.78-42.48c-7.38-17.91-8.68-37.56-8.72-56.72c-14.28,0.44-28.56,1.99-42.83,0.72
		c-18.68-1.28-37.48-6.43-52.96-17.22c-11.34-7.82-20.6-19.17-24.31-32.58c-5.63-20.93-1.6-44.49,11.45-61.92
		c8.21-11.18,20.75-19.25,34.59-21.17c11.9-1.56,24.58-0.91,35.5,4.49c7.97,3.85,14.82,9.73,20.53,16.45
		c10.18,12.09,17.15,26.53,22.63,41.26c2.4,7.86,6.27,15.45,6.45,23.82c4.8-5.26,9.22-10.85,14.11-16.04
		c10.66-11.42,23.47-21.28,38.36-26.44c17.98-6.44,37.94-4.71,55.65,1.77c-6.03-19.45-11.53-39.15-14.54-59.32
		c-2.69-19.88-4.86-40.54,0.47-60.18c4.16-15.69,14.02-29.19,25.57-40.31c-5.79-7.19-13.79-11.94-21.49-16.76
		c-5.87-3.6-11.28-8.22-14.75-14.24c-4.71-8.1-6.83-17.47-7.58-26.72c-0.74-9.59,1.6-19.76,8.17-27.03
		c5.53-6.5,13.43-10.07,20.66-14.27c2.04-0.69,1.52-2.96,1.56-4.61C2519.59,1699.49,2520.57,1687.4,2526.05,1677.04z"/>
	<path id="path53" fill="#E68956" stroke="#E68956" stroke-width="0.0938" d="M2957.87,1709.74c9.39-2.01,18.93,0.24,28.18,1.97
		c10.95,2.33,21.88,5.02,32.36,8.99c3.3,0.97,3.1,5.09,4.22,7.77c-1.48,1.26-3.01,2.46-4.51,3.65c-6.82,4.82-14.59,8.9-23.09,9.24
		c-13.24,0.76-25.42-5.33-37.93-8.6c-15.62-4.58-32.4-4.79-48.16-0.8c-10.81,2.69-21.68,6.49-30.44,13.58
		c-7.31,5.73-12.31,13.92-15.44,22.57c-5.05,14.03-7.8,28.8-13.33,42.67c-3.72,8.93-8.18,17.83-15.35,24.52
		c-13.89,13.58-33.56,17.96-51.92,21.89c-10.53,1.58-21.06,3.37-31.4,5.91c-6.84,25.17-12.26,50.69-17.56,76.21
		c-3.23,15.51-6.03,31.1-8.82,46.69c-6.31,34.38-11.24,69.01-15.06,103.75c-1.54,11.05-2.13,22.21-3.29,33.31
		c-25.7-2.87-51.51-4.87-77.35-5.61c-11.67-0.51-23.33-1.12-35-1.1c-5.62-0.28-11.32,0.41-16.82-0.93
		c4.19-11.08,7.23-22.65,8.4-34.45c1.96-18.85-1.54-38.08-9.38-55.29c-1.59-3.28-2.73-6.89-5.24-9.59
		c-4.24-4.51-7.65-9.71-11.17-14.75c29.69-24.48,59.34-49.01,89.05-73.47c3.76-3.29,5.47-8.18,7.47-12.6
		c4.14-10.52,6.15-21.88,5.93-33.17c-0.25-13.03-2.81-25.94-2.37-38.99c11.83-4.52,25.35-5.58,35.5-13.78
		c13.96-11.15,19.71-30.8,14.96-47.89c2.17-6.53,2.93-13.61,6.51-19.6c2.53-4.3,7.16-7.2,12.11-7.73c6.35-0.7,12.74,0.04,19.12,0.13
		c9.38,0.36,18.88-0.52,27.88-3.36c8.04-2.39,15.6-6.09,23.04-9.95c10.86-5.99,23.58-2.07,35.11-0.69
		c8.45-8.31,17.89-16.76,29.87-19.18c10.92-2.46,22.05,0.03,33.01,0.88c12.62,1.28,25.51,0.77,37.89-2.1
		C2943.17,1717.95,2949.41,1711.2,2957.87,1709.74z"/>
	
		<linearGradient id="path60_1_" gradientUnits="userSpaceOnUse" x1="455.0901" y1="413.4571" x2="455.0901" y2="1539.9155" gradientTransform="matrix(1 0 0 -1 0 2482)">
		<stop  offset="0" style="stop-color:#CB7052"/>
		<stop  offset="1" style="stop-color:#7D2638"/>
	</linearGradient>
	<path id="path60" fill="url(#path60_1_)" stroke="#CB7052" stroke-width="0.0938" d="M896.28,2052.94
		c0.89-13.14-2.31-26.03-4.26-38.92c-1.87-10.92-1.53-22.04-2.34-33.04c-1.64-31.72-3.39-63.43-5.01-95.14
		c-1.4-2.38-2.57-4.88-3.27-7.53c-5.67-19.61-8-39.99-9.62-60.28c-1.24-15.31-1.38-30.7-3.19-45.96
		c-0.61-6.98-1.29-13.95-2.01-20.91c-2.31-19.76-4.41-39.55-7.33-59.23c-0.35-1.89-0.22-3.77,0.16-5.61
		c-5.55-1.37-10.83-4.1-16.36-5.14c-2.99,2.58-4.39,6.68-6.72,9.89c1.1-3.93,2.27-8.11,1.15-12.16c-1.24-4.93-5.51-8.46-10.1-10.17
		c-7.11-2.9-14.96-2.97-22.5-2.46c1.91-4.45,4.65-10.08,1.39-14.58c-4.19-5.1-10.86-7.78-14.13-13.74
		c-6.38-11.14-12.71-22.3-19.08-33.44c-2.52,0.28-5.15,0.19-7.54,1.1c-2.11,1.91-3.63,4.37-5.45,6.56c1.97-4.76,4.22-9.38,6.3-14.07
		c0.26-0.55,0.77-1.66,1.02-2.21c-2.52-2.85-5.29-5.47-8.14-7.98c-0.92-5.58-2.4-11.04-3.86-16.48c-0.93-3.24-2.19-6.81-5.28-8.56
		c-4.09-2.18-8.89-1.45-13.31-1.39c3.3-3.05,6.62-6.07,10.1-8.9c-1.62-5.36-1.03-10.98-1.2-16.48c-4.54-4.74-11.58-4.93-17.54-6.58
		c4.06-2.66,8.25-5.09,12.42-7.56c-2.22-17.59-5.65-35.13-5.29-52.93c0.33-16.47,4.24-33.75,15.17-46.54
		c2.57-3.24,3.73-7.26,5.05-11.09c3.8,0.38,7.6-0.22,11.41-0.13c2.97,0.83,5.31,3.06,7.88,4.7c1.57-2.83,3.16-5.65,4.74-8.47
		c8.39-1.14,17.84-3.21,25.35,2.03c-1.33-26.37-3.96-52.66-5.38-79.02c-0.08-0.86-0.15-1.7-0.23-2.52
		c-1.45-18.53-2.9-37.07-4.84-55.55c-0.29-2.51-0.62-5-0.92-7.49c-1.29-10.42-2.74-20.84-4.94-31.11
		c-1.34-6.3-3.04-12.57-5.94-18.33c-2.76-5.33-9.91-6.43-12.01-12.2c-1.04-2.38-1.67-4.91-2.24-7.42
		c-3.37-18.03-3.68-36.46-4.48-54.74c-0.78-17.39-1.41-34.79-2.6-52.16c-1.32-19.25-2.89-38.5-5.35-57.65
		c-0.25-1.77-0.52-3.54-0.78-5.29c-1.78-12.42-3.75-24.84-6.75-37.03c-1.86-7.71-4.02-15.36-6.97-22.73
		c-3.83-9.07-8.61-18.99-18.04-23.33c-6.01-1.98-12.49-0.44-17.82,2.65c-9.05,4.93-15.95,12.9-24.7,18.24
		c-10.83,5.1-23.21,1.32-33.41-3.52c-9.28-4.03-18.29-9.4-28.54-10.43c-6.26-0.73-13.09-0.15-18.29,3.74
		c-7.13,5.21-10.52,13.71-14.15,21.43c-7.2,17.23-13.93,34.79-23.9,50.66c-5.34,7.81-9.78,16.28-12.52,25.37
		c-2,6.87-5.41,13.54-5.28,20.86c0.04,5.74-1,11.41-2.12,17.03c-0.06,0.28-0.17,0.83-0.23,1.1c-2.72,12.77-5.56,25.52-9.29,38.04
		c-6.08,19.62-5.13,40.39-6.1,60.66c-0.12,2.4-0.23,4.81-0.34,7.23c-0.78,13.08-1.31,26.32-4.57,39.07
		c-2.68,10.91-11.4,18.92-14.66,29.62c-0.74,1.94-1.44,3.91-2.09,5.9c-5.73,18.71-8.19,38.19-11.77,57.38
		c-3.83,20.96-7.04,42.04-10.96,62.99c-0.73,3.81-1.54,7.67-3.21,11.21c-1.86,2.83-4.12,5.38-6.21,8.04
		c-8.59,11.37-14.64,24.38-20.91,37.11c-3.09,6.56-6.18,13.13-9.01,19.82c-7.71,19.64-12.29,40.3-16.89,60.84
		c-0.62,3.1-1.37,6.19-2.02,9.31c-0.72,3.79-1.5,7.57-2.59,11.29c-15.93-0.52-32.17,3.03-45.81,11.45
		c-13.62,8.41-24.02,21.21-31.58,35.17c-3.95,7-6.99,14.44-9.96,21.9c-6.19,16.82-10.41,34.3-13.78,51.88
		c-4,19.46-6.38,39.2-9.37,58.82c-1.82,13.68-3.75,27.34-5.78,40.99c-3.54,21.63-7.43,43.27-14.03,64.22
		c-7.45-1.98-14.46-5.3-21.69-7.91c-10.17-4.12-20.72-7.88-29.5-14.64c-6.12-5.34-8.82-13.24-10.92-20.82
		c-4.41-16.46-9.07-32.88-15.12-48.83c-3.13-8.2-6.41-16.35-9.76-24.46c-1.97-5.13-7.52-7.87-12.65-8.74
		c-8.89-1.35-17.39,2.81-24.62,7.56c-13.9,9.46-25.03,22.29-35.76,35.09c-14.97,18.87-28.31,39-40.21,59.94
		c-5.15,8.95-9.97,18.13-13.93,27.69c-5.22,13.29-10.16,26.8-12.88,40.86c-1.44,7.09-2.43,14.41-5.82,20.92
		c-7.97,16.04-19.09,30.22-28.59,45.34c-6.84,11.01-11.99,23.17-14.2,35.99c-2.73,15.9-2.43,32.1-2.81,48.17
		c2.64-5.19,5.7-10.2,9.49-14.63c9.91-12,25.17-18.57,40.51-19.66c22.02-2.12,43.29,5.02,64.53,9.6
		c65.57,14.48,131.94,25.06,198.48,34c95.55,12.58,191.62,21.28,287.88,26.05c94.3,4.66,188.83,5.53,283.15,1.01
		C896.43,2061.39,895.9,2057.16,896.28,2052.94z"/>
	<path id="path62" fill="#451D25" stroke="#451D25" stroke-width="0.0938" d="M22.56,2014.57c9.91-12,25.17-18.57,40.51-19.66
		c22.02-2.12,43.29,5.02,64.53,9.6c65.57,14.48,131.94,25.06,198.48,34c95.55,12.58,191.62,21.28,287.88,26.05
		c94.3,4.66,188.83,5.53,283.15,1.01c23.01-1.05,45.99-2.59,68.96-4.39c22.33-1.73,44.59-4.39,66.99-5.26
		c41.57-1.97,83.24-0.15,124.68,3.35c66.55,5.79,132.5,16.81,198.1,29.18c97.44,18.77,194.14,41.13,291.56,59.98
		c69.3,13.21,139.08,24.83,209.55,29.3c21.99,1.41,44.04,1.81,66.08,1.73c156.11,0.24,312.19,5.5,468.01,14.85
		c6.79,0.41,13.58,0.9,20.41,0.95c19.29,1.8,38.68,2.71,58.02,4.03c20.4,1.52,40.8,3.04,61.21,4.35
		c93.87,7.25,187.67,15.43,281.37,24.65c98.31,9.53,196.53,20.03,294.87,29.32c70.54,6.34,141.17,12.77,212.04,13.55
		c22.91,0.12,45.88-0.15,68.68-2.64c20.58-2.27,41-5.84,61.57-8.25c12.05-1.32,24.27-2.44,36.36-0.8
		c6.33,0.95,12.85,2.86,17.71,7.26c3.14,2.72,5.06,6.53,6.58,10.37c0.71,44.61,0.09,89.27,0.32,133.9
		c0.17,8.86-0.48,17.77,0.38,26.61l0.03,0.22c-23.84,0.49-47.69,0.07-71.53,0.22c-1128.68,0-2257.36,0-3386.04,0
		c-16.67-0.06-33.34,0.11-50.02-0.1c0-77.65,0-155.3,0-232.95c0.55-47.14-6.33-94.46,0.07-141.45c2.17-11.75,4.97-23.46,10-34.35
		C15.71,2024.01,18.77,2019,22.56,2014.57z"/>
	
		<linearGradient id="path69_1_" gradientUnits="userSpaceOnUse" x1="1563.2551" y1="377.0958" x2="1563.2551" y2="1267.2089" gradientTransform="matrix(1 0 0 -1 0 2482)">
		<stop  offset="0" style="stop-color:#CB7052"/>
		<stop  offset="1" style="stop-color:#7D2638"/>
	</linearGradient>
	<path id="path69" fill="url(#path69_1_)" stroke="#CB7052" stroke-width="0.0938" d="M2141,2071.03
		c-15.98-7.51-32-14.98-48.24-21.9c-19.61-8.97-39.38-17.6-58.72-27.1c-3.59-1.69-6.98-3.72-10.26-5.91
		c-3.41-2.48-7.83-1.78-11.77-2.1c-10.54-0.55-21.43-0.64-31.32-4.77c-9.39-3.96-17.26-10.59-25.63-16.24
		c-14.06-9.13-30.65-12.76-45.97-19.09c-6.3-2.64-12.32-6.04-17.4-10.63c-4.94-5.35-8.57-11.76-11.54-18.36
		c-4.09-8.96-9.29-17.81-17.32-23.78c-8-5.92-16.4-11.48-23.08-18.95c-4.48-7.07-5.35-15.59-7.38-23.53
		c-1.67-6-2.67-12.26-5.18-17.95c-5.3-2.96-11.4-4.05-17.22-5.47c-6.71-1.67-13.61-3.13-19.63-6.65
		c-4.99-2.85-9.12-6.95-12.65-11.42c-1.59-2.06-3.08-4.17-4.56-6.27c-5.17-7.21-8.87-15.43-14.89-22.03
		c-9.59-11.12-20.27-21.26-29.72-32.5c-7.71-9.28-14.74-19.23-19.72-30.25c-2.92-6.4-5.01-13.13-7.15-19.8
		c-3.66-11.12-6.6-22.78-13.47-32.45c-1.69-2.12-3.76-3.86-5.88-5.47c-2.27,12.32-0.11,26.25-8.05,36.9
		c-5.6-13.04-7.06-27.32-8.75-41.26c-1.73-17.53-2.68-35.14-2.88-52.75c-0.48-9.77-0.36-19.55-0.37-29.32
		c-0.31-22.66,2.53-45.33,0.58-67.96c-0.18-1.54-0.33-3.03-0.51-4.52c-2.12-14.27-5.53-28.35-6.63-42.76
		c-1.11-11.6-1.57-23.25-1.9-34.88c-0.42-8.43,0.33-16.97-1.31-25.28c-1.01-5.43-5.68-8.82-10.08-11.5
		c-2.95,6.67-4.15,13.93-5.21,21.11c-2.19,16.82-2.17,33.83-2.17,50.77c-0.13,9.82,0.22,19.66-0.4,29.48
		c0.04,4.08-0.2,8.17-0.27,12.26c-1.27,18.08-2.57,37.03-11.51,53.22c-3.41,5.19-6.36,10.74-10.42,15.47
		c-7.25-18.65-16.57-36.67-20.57-56.42c-3.64-17.04-3.85-34.54-4.3-51.89c-0.03-0.98-0.03-1.94,0-2.88
		c-7.38-6.28-16.4-10.58-22.9-17.88c-2.26-2.47-3.13-5.99-2.2-9.21c1.62-6.38,4.39-12.41,5.92-18.82
		c4.82-18.65,5.21-38.11,4.3-57.24c-0.48-4.87-0.46-10.15-3.4-14.3c-4.99-6.81-5.37-15.56-6.87-23.57
		c-1.25-8.72-1.87-17.67-0.1-26.36c0.87-3.53,0.58-7.4-1.95-10.19c-6.8-8.46-14.83-15.82-22.19-23.76
		c-5.26-5.04-9.55-11.24-15.79-15.12c-2.31,3.44-4.76,7.02-8.47,9.05c-6.37,3.57-13.76,4.65-20.93,5.22
		c-5.65,0.34-11.36,0.62-16.96-0.28c-5.21-0.87-8.91-4.99-13.44-7.31c-3.01-1.47-6.21-2.49-9.37-3.54
		c-3.92,5.38-6.61,12.55-13.1,15.34c-7.93,2.02-16.32,0.78-24.3,2.56c-4.83,1.27-9.13,3.9-13.39,6.4
		c-8.07,4.76-16.22,9.69-25.34,12.13c-1.42-4.98-2.09-10.11-2.74-15.22c-2.17-15-4.24-30-6.4-44.99c-0.57-3.55-0.7-7.18-1.61-10.64
		c-7.62-5.64-17.27-7.69-25.09-13.06c-4.78-3.11-9.92-5.65-14.43-9.15c-2.31-2.18-5.65-1.3-8.48-1.26
		c-2.67,2.99-5.79,5.52-8.62,8.34c-4.69,5.19-8.44,11.13-12.92,16.48c-3.5,4.19-8.97,5.84-14.17,6.64
		c-8.73,1.24-17.54,1.53-26.3,2.32c-3.67,0.39-7.45,0.42-10.93,1.72c-1.74,1.57-2.67,3.85-4.55,5.29
		c-7.94,5.82-17.78,7.79-26.64,11.69c-5.46,4.1-7.08,11.11-8.35,17.45c-0.46,2.98-0.81,5.98-1.12,8.99
		c-1.09,10.28-0.88,20.71-2.85,30.89c-1.43,6.48-3.54,12.77-5.2,19.19c-3.34,12.13-4.27,24.69-5.51,37.15
		c-0.33,3.3-0.69,6.61-1.38,9.87c-2.28,10.41-5.96,20.44-8.66,30.75c-4.95,18.22-7.42,37-8.3,55.84c0,3.1,0.03,6.22,0.01,9.35
		c0.14,9.01-0.29,18.2,2.02,27c1.47,5.83,3.63,11.46,5.84,17.05c1.33,3.38,2.7,6.75,3.93,10.18c2.16,6.13,4.07,12.39,4.88,18.86
		c1.34,10.06-0.42,20.45-4.81,29.58c-2,4.22-4.35,8.28-7.09,12.07c-4.75,6-9.46,12.1-12.94,18.96c-5.34,10.42-10.55,21-13.82,32.28
		c-2.72,9.31-4.76,18.82-6.19,28.41l-0.26-0.77c-1.56,10.29-3.92,20.66-8.92,29.88c-3.04,5.92-6.72,11.69-12.03,15.84
		c-9.52,5.12-20.67,5.44-30.59,9.55c-8.55,2.49-14.04,9.9-20.18,15.81c-7.54,8.12-14.93,16.38-22.23,24.71
		c-18.25,20.42-36.34,40.99-55.16,60.89c-5.92,5.76-11.21,12.2-17.6,17.48c0.26,16.15-1.98,32.18-2.76,48.29
		c-0.7,14.37-0.13,29.53,7.07,42.4c-1.96,0.97-3.9,1.98-5.84,2.98c-1.74,5.03-1.04,10.42-1.17,15.66c0.06,2.5-0.2,5.09,0.45,7.57
		c1.54,2.58,3.5,4.89,5.06,7.49c-2.43,0.69-4.96,0.84-7.23-0.37c-2.05,13.65-1.7,27.46-2.03,41.22c0.05,6.91-0.12,13.92,1.65,20.67
		c0.93-0.86,1.91-1.64,2.86-2.44c0.6,0.88,1.22,1.78,1.84,2.72c-3.32,0.99-8.9,0.27-9.73,4.65c-0.75,5.17-0.75,10.45-1.78,15.6
		c22.33-1.73,44.59-4.39,66.99-5.26c41.57-1.97,83.24-0.15,124.68,3.35c66.55,5.79,132.5,16.81,198.1,29.18
		c4.36-0.13,8.7-0.51,13.06-0.83c9.7-0.89,19.46-0.42,29.17-1.16c15.32-0.57,30.66-0.48,46-0.56c17.65,0.17,35.32-0.19,52.96,0.74
		c72.25,1.88,144.35,8.08,216.07,17.02c26.59,2.48,53.31,0.73,79.9-0.74c47.44-3.12,94.72-8.21,142.01-13.04
		c45.27-4.54,90.52-9.65,135.98-11.72c29.87-0.72,59.71,1.31,89.45,3.97C2154.87,2077.01,2147.57,2074.53,2141,2071.03z"/>
	<path id="path71" fill="#B56147" stroke="#B56147" stroke-width="0.0938" d="M1935.01,2089.88c45.27-4.54,90.52-9.65,135.98-11.72
		c29.87-0.72,59.71,1.31,89.45,3.97c37.41,4.17,74.57,10.25,111.58,17.02c46.24,8.1,92.55,17.47,139.61,18.88
		c6.49,15.52,16.04,29.6,26.78,42.48c7.69,9.59,15.38,19.19,23.1,28.77c-10.43,1.61-20.98,2.19-31.45,3.41
		c-6.21,0.84-12.6,0.65-18.61,2.57c-6.83-0.05-13.62-0.54-20.41-0.95c-155.82-9.35-311.9-14.61-468.01-14.85
		c-22.04,0.08-44.09-0.32-66.08-1.73c-70.47-4.47-140.25-16.09-209.55-29.3c-97.42-18.85-194.12-41.21-291.56-59.98
		c4.36-0.13,8.7-0.51,13.06-0.83c9.7-0.89,19.46-0.42,29.17-1.16c15.32-0.57,30.66-0.48,46-0.56c17.65,0.17,35.32-0.19,52.96,0.74
		c72.25,1.88,144.35,8.08,216.07,17.02c26.59,2.48,53.31,0.73,79.9-0.74C1840.44,2099.8,1887.72,2094.71,1935.01,2089.88z"/>
	<path id="path73" fill="#9C3031" stroke="#9C3031" stroke-width="0.0938" d="M3363.08,2098.27c48.83-5.07,97.71-9.71,146.51-14.98
		c0.43,64.59-0.16,129.21,0.27,193.81c-1.52-3.84-3.44-7.65-6.58-10.37c-4.86-4.4-11.38-6.31-17.71-7.26
		c-12.09-1.64-24.31-0.52-36.36,0.8c-20.57,2.41-40.99,5.98-61.57,8.25c-22.8,2.49-45.77,2.76-68.68,2.64
		c-70.87-0.78-141.5-7.21-212.04-13.55c-98.34-9.29-196.56-19.79-294.87-29.32c-93.7-9.22-187.5-17.4-281.37-24.65
		c5.13-7.23,9.51-14.95,13.75-22.72c44.78-4.07,89.48-9,134.23-13.38c43.22-4.43,86.45-8.7,129.67-13.19
		C2993.26,2135.81,3178.15,2116.88,3363.08,2098.27z"/>
	
		<linearGradient id="path80_1_" gradientUnits="userSpaceOnUse" x1="3036.3411" y1="327.6497" x2="3036.3411" y2="808.8046" gradientTransform="matrix(1 0 0 -1 0 2482)">
		<stop  offset="0" style="stop-color:#D66D51"/>
		<stop  offset="1" style="stop-color:#D3404A"/>
	</linearGradient>
	<path id="path80" fill="url(#path80_1_)" stroke="#D66D51" stroke-width="0.0938" d="M3366.26,2058.1
		c0.02-21.4,0.19-42.81,0.01-64.2c-1.76-2.98-3.82-5.74-5.54-8.7c-6.14-10.11-11.53-20.66-16.18-31.52
		c-2.05-4.72-3.86-9.52-5.58-14.35c-3-8.55-5.43-17.29-7.52-26.09c-4.35-18.52-6.79-37.4-9.57-56.2c-0.03-0.22-0.1-0.66-0.13-0.88
		c-2.49-15.09-4.78-30.24-8.36-45.12c-3.47-14.44-7.45-28.8-12.82-42.65c-6.03-15.7-18.26-28.42-33.13-36.05
		c-13.4-7.77-27.4-14.61-39.73-24.07c-10.37-7.94-20.11-16.68-30.68-24.34c-5.51-3.97-11.48-7.52-18.12-9.1
		c-7.49-1.84-15.27-1.71-22.91-1.55c-12.92,0.39-25.84,0.98-38.75,1.42c-18.96,1.05-38.17,1.44-56.66,6.15
		c-4.76,1.67-9.74,3.79-12.69,8.09c-3.2,4.64-4.35,10.27-6.63,15.35c-3.98,9.53-10.96,17.44-18.64,24.18
		c-1.48,1.26-3.01,2.46-4.51,3.65c-6.82,4.82-14.59,8.9-23.09,9.24c-13.24,0.76-25.42-5.33-37.93-8.6
		c-15.62-4.58-32.4-4.79-48.16-0.8c-10.81,2.69-21.68,6.49-30.44,13.58c-7.31,5.73-12.31,13.92-15.44,22.57
		c-5.05,14.03-7.8,28.8-13.33,42.67c-3.72,8.93-8.18,17.83-15.35,24.52c-13.89,13.58-33.56,17.96-51.92,21.89
		c-10.53,1.58-21.06,3.37-31.4,5.91c-6.84,25.17-12.26,50.69-17.56,76.21c-3.23,15.51-6.03,31.1-8.82,46.69
		c-6.31,34.38-11.24,69.01-15.06,103.75c-1.54,11.05-2.13,22.21-3.29,33.31c20.37,2.42,40.72,5.67,60.53,11.12
		c14.71,4.42,29.95,9.55,41.47,20.17c184.93-18.54,369.82-37.47,554.75-56.08c-0.79,0.03-2.37,0.08-3.16,0.1
		c0.14-1.47,0.34-2.91,0.58-4.33C3362.43,2082.06,3364.15,2070.05,3366.26,2058.1z"/>
	<path id="path82" fill="#B56147" stroke="#B56147" stroke-width="0.0938" d="M2544.43,2180.92c11.42-21.56,24.09-42.6,32.73-65.5
		c5.5,1.34,11.2,0.65,16.82,0.93c11.67-0.02,23.33,0.59,35,1.1c25.84,0.74,51.65,2.74,77.35,5.61c20.37,2.42,40.72,5.67,60.53,11.12
		c14.71,4.42,29.95,9.55,41.47,20.17c-43.22,4.49-86.45,8.76-129.67,13.19C2633.91,2171.92,2589.21,2176.85,2544.43,2180.92z"/>
	<path id="path84" fill="#9C3031" stroke="#9C3031" stroke-width="0.0938" d="M2461.51,2189.28c2.66,3.31,5.33,6.64,7.96,10.01
		c-19.34-1.32-38.73-2.23-58.02-4.03c6.01-1.92,12.4-1.73,18.61-2.57C2440.53,2191.47,2451.08,2190.89,2461.51,2189.28z"/>
	<path id="path86" fill="#9F2233" stroke="#9F2233" stroke-width="0.0938" d="M3,2437.95c16.68,0.21,33.35,0.04,50.02,0.1
		c1128.68,0,2257.36,0,3386.04,0c23.84-0.15,47.69,0.27,71.53-0.22l-0.03-0.22l0.02,0.13c0.92,14.84,0.16,29.77,0.4,44.65
		c-1169.32,0.03-2338.64,0.02-3507.97,0C3,2467.57,3.02,2452.76,3,2437.95z"/>
</g>
</svg>
